<svg width="88" height="88" viewBox="0 0 88 88" fill="none" xmlns="http://www.w3.org/2000/svg">
<path fill-rule="evenodd" clip-rule="evenodd" d="M11.5476 70.2646H11.5463C10.7653 70.2661 9.98415 70.2675 9.20303 70.267C7.77458 70.267 7.43303 69.9254 7.43303 68.497V9.18291C7.43303 7.73838 7.76252 7.40487 9.18897 7.40487H40.6873H41.5653V8.28887C41.5653 8.91001 41.5641 9.53116 41.5629 10.1523V10.1533C41.56 11.6615 41.5571 13.1696 41.5713 14.6777C41.5954 17.2534 43.5462 19.2484 46.1259 19.3087C47.3567 19.3379 48.5885 19.3324 49.8206 19.327H49.8208L49.8217 19.327C50.3691 19.3245 50.9166 19.3221 51.464 19.3227H52.7237C52.7237 19.7967 52.7232 20.2629 52.7226 20.7236V20.7263V20.7289V20.7316V20.7342V20.7368V20.7395V20.7421V20.7447C52.7214 21.8176 52.7201 22.861 52.7257 23.9034C52.7297 24.8336 53.1979 25.4082 53.9332 25.4163C54.6745 25.4243 55.1306 24.8678 55.1346 23.9215C55.1371 23.1769 55.1359 22.4319 55.1346 21.6868V21.6868V21.6867V21.6867V21.6866V21.6865V21.6865V21.6864V21.6863V21.6863V21.6852C55.1329 20.6016 55.1311 19.5178 55.1406 18.4347C55.1507 17.3739 54.779 16.4939 54.0557 15.7245C51.3113 12.8033 48.5689 9.87604 45.8466 6.93274C45.0912 6.11504 44.3077 5.36565 43.2288 5H7.88508C5.70121 5.76747 4.99401 7.3446 5.00004 9.59477C5.0355 24.6324 5.03192 39.6712 5.02833 54.7103C5.02724 59.2677 5.02616 63.8251 5.02616 68.3825C5.02616 68.4512 5.02578 68.5201 5.0254 68.589C5.02427 68.7961 5.02314 69.0037 5.03218 69.2102C5.11456 71.0003 6.52493 72.5915 8.311 72.6357C11.3814 72.7116 14.4536 72.6868 17.5259 72.662H17.526H17.526H17.5261H17.5262H17.5263H17.5264H17.5265H17.5266H17.5267L18.3082 72.6558C19.2625 72.6478 19.8572 71.6292 19.3187 70.9079C19.0676 70.5724 18.5011 70.3032 18.0711 70.2971L18.0731 70.2951C15.899 70.2567 13.7237 70.2607 11.5482 70.2646H11.5482H11.5481H11.548H11.5479H11.5478H11.5478H11.5477H11.5476ZM48.4297 14.1246L48.4407 14.1366L50.9758 16.8837C50.4204 16.8837 49.8804 16.8887 49.3513 16.8936H49.3512H49.351H49.3509H49.3507H49.3506H49.3504H49.3503H49.3502H49.3501C48.1305 16.9048 46.969 16.9155 45.8105 16.8636C44.8863 16.8214 44.0445 15.9575 44.0123 15.0213C43.9657 13.7287 43.9747 12.4352 43.9842 11.0771L43.9842 11.0755V11.0754V11.0753V11.0753V11.0752V11.0751V11.0751V11.075V11.0749C43.9882 10.5022 43.9923 9.91797 43.9923 9.31751V9.31551C45.4976 10.9475 46.9556 12.5274 48.4297 14.1246ZM76.3766 37.9087C74.3044 37.9074 72.2322 37.9078 70.1607 37.9083L70.1085 37.9083H70.1081C69.0901 37.9085 68.0722 37.9087 67.0545 37.9087H66.2247C66.2247 37.2923 66.2261 36.6873 66.2274 36.0902C66.2303 34.7511 66.2332 33.4519 66.2207 32.1527C66.1966 29.6795 64.4105 27.8714 61.9434 27.8674C55.3013 27.8513 48.6613 27.8513 42.0193 27.8674C39.5723 27.8734 37.8163 29.6454 37.7842 32.0965C37.7699 33.1633 37.7724 34.2309 37.7748 35.2983V35.2984V35.2985V35.2986V35.2987V35.2988V35.2989V35.299V35.2991V35.2992C37.7762 35.8859 37.7776 36.4725 37.7761 37.0589C37.7761 37.2454 37.7652 37.4319 37.7531 37.6379L37.7531 37.6385L37.7531 37.6393L37.753 37.6405C37.7479 37.7267 37.7427 37.8163 37.738 37.9107H36.8439C35.8167 37.9107 34.7892 37.9105 33.7617 37.9103C31.7064 37.9099 29.6508 37.9094 27.5961 37.9107C24.1385 37.9128 21.9687 40.0725 21.9566 43.5322C21.9497 45.5956 21.9514 47.658 21.9531 49.7209V49.7211V49.7213V49.7215V49.7217V49.722V49.7222V49.7224V49.7226V49.7228C21.9539 50.64 21.9546 51.5572 21.9546 52.4746C21.9546 54.228 21.9544 55.9815 21.9542 57.7351V57.7353V57.7354V57.7356V57.7357V57.7359V57.7361V57.7362V57.7364V57.7365C21.9535 63.8769 21.9528 70.0178 21.9607 76.1576C21.9607 76.7563 21.9747 77.3711 22.1093 77.9477C22.692 80.4229 24.7874 81.998 27.4675 82C36.1486 82.003 44.8296 82.0026 53.5106 82.0023L62.2025 82.002C63.6393 82.002 65.0758 82.0026 66.5123 82.0031H66.5236H66.5238H66.524H66.5242H66.5244H66.5246H66.5248H66.525H66.5252C69.8712 82.0044 73.2169 82.0056 76.5634 82C79.2094 81.994 81.1622 80.4952 81.8734 77.9678C81.896 77.8875 81.9353 77.8132 81.9748 77.7385L81.9748 77.7384C81.9917 77.7066 82.0085 77.6747 82.0241 77.6423V42.3006C82.0192 42.293 82.0141 42.2855 82.0089 42.2781C82.0007 42.2666 81.9921 42.2552 81.9837 42.2438C81.9527 42.2024 81.9221 42.1615 81.9096 42.1157C81.1281 39.3071 79.2998 37.9148 76.3766 37.9128V37.9087ZM40.189 32.221C40.1991 30.9593 40.8882 30.2702 42.1479 30.2682C48.7075 30.2622 55.2692 30.2622 61.8288 30.2682C62.9459 30.2682 63.7616 30.9011 63.7897 31.9156C63.828 33.2917 63.8202 34.6688 63.8124 36.0638V36.064V36.0648V36.0656V36.0664V36.0672V36.0679V36.0688V36.0696V36.0704V36.0712C63.8091 36.6494 63.8058 37.2307 63.8058 37.8163H61.1297V32.8479H42.827V37.8203H40.2533C40.2458 37.7685 40.2362 37.7169 40.2266 37.6654L40.2266 37.6653L40.2266 37.6653C40.2058 37.553 40.185 37.441 40.185 37.3281C40.1842 36.9882 40.1832 36.6481 40.1821 36.308C40.178 34.9458 40.1738 33.5828 40.185 32.221H40.189ZM58.6826 35.2588V37.8505H45.2961V35.2588H58.6826ZM79.6172 76.3284C79.6172 78.458 78.4962 79.5911 76.3907 79.5911H27.5198C25.5629 79.5911 24.3716 78.4741 24.3675 76.5614C24.3552 71.1771 24.3582 65.7915 24.3612 60.4066V60.405V60.4046V60.4042V60.4038V60.4035V60.4031V60.4027V60.4023V60.402V60.4016C24.3621 58.7456 24.363 57.0897 24.3635 55.4339C24.3635 55.3114 24.3816 55.1888 24.3816 55.2069C28.8391 56.3073 33.3491 57.1301 37.8577 57.9528C40.2969 58.3978 42.7357 58.8428 45.1655 59.3316C45.2766 59.3538 45.385 59.387 45.5169 59.4274L45.517 59.4275C45.5879 59.4492 45.6657 59.473 45.7542 59.4983C45.7542 59.758 45.7524 60.0127 45.7506 60.2641C45.7468 60.8118 45.7431 61.3434 45.7582 61.8751C45.8526 65.3307 48.5709 68.0148 51.9683 68.0228C55.3998 68.0309 58.1522 65.3307 58.2467 61.8509C58.2618 61.3218 58.2581 60.7917 58.2542 60.247V60.2465V60.246V60.2454V60.2448V60.2443V60.2437V60.2432C58.2525 59.995 58.2507 59.7438 58.2507 59.4883L59.9046 59.1717C62.3371 58.7062 64.738 58.2467 67.1388 57.7846C67.891 57.6398 68.6434 57.4959 69.3959 57.352L69.3976 57.3517L69.3993 57.3514L69.401 57.351L69.4028 57.3507L69.4045 57.3504L69.4062 57.35C71.9931 56.8553 74.5808 56.3604 77.1601 55.8317C77.7165 55.7183 78.2561 55.5183 78.8156 55.311L78.8158 55.3109C79.0786 55.2136 79.3458 55.1145 79.6213 55.0221V55.7273V76.3284H79.6172ZM48.1872 53.1356H55.7835C55.7876 53.1592 55.7919 53.1822 55.7963 53.2047L55.8068 53.257C55.8251 53.3473 55.8418 53.4298 55.8418 53.5113C55.8428 54.1791 55.8447 54.847 55.8466 55.5148C55.8526 57.6013 55.8586 59.6875 55.8358 61.7726C55.8137 63.7495 54.345 65.3849 52.4766 65.5979C50.5298 65.8189 48.7738 64.6235 48.2736 62.7349L48.2582 62.6774C48.224 62.5511 48.1892 62.4222 48.1892 62.295C48.1852 59.2693 48.1852 56.2436 48.1852 53.1356H48.1872ZM77.7247 53.1255C76.3742 53.5582 74.9693 53.8335 73.5734 54.107L73.4253 54.1361C69.7228 54.8594 66.017 55.5657 62.3112 56.2721C61.0762 56.5075 59.8412 56.7429 58.6063 56.9789C58.5478 56.9904 58.487 56.9922 58.4085 56.9945C58.3629 56.9958 58.3112 56.9973 58.2507 57.001C58.2507 56.5817 58.2511 56.1655 58.2516 55.7515V55.7505V55.7496V55.7487V55.7478V55.747V55.7461V55.7452V55.7443V55.7434C58.2525 54.9243 58.2533 54.1133 58.2507 53.3023C58.2426 51.6127 57.3426 50.7066 55.6509 50.7026C53.2199 50.6965 50.789 50.6965 48.36 50.7026C46.6141 50.7066 45.7542 51.5845 45.7462 53.3505C45.7431 53.9143 45.7416 54.4781 45.7401 55.0422V55.0429V55.0437V55.0444V55.0451V55.0459V55.0466V55.0474V55.0481C45.7386 55.6097 45.7371 56.1715 45.7341 56.7338C45.7341 56.7623 45.7226 56.7908 45.7011 56.8443L45.7011 56.8443C45.6878 56.8775 45.6705 56.9204 45.6497 56.9789C45.1113 56.8785 44.57 56.7783 44.0269 56.6779L44.0262 56.6778L44.0254 56.6776C43.2113 56.527 42.3933 56.3757 41.5753 56.2215C40.5325 56.024 39.4896 55.8273 38.4468 55.6305L38.4375 55.6288L38.4368 55.6287C34.8356 54.9492 31.2345 54.2698 27.6383 53.5615C26.9191 53.4188 26.1998 53.1235 25.5589 52.7599C24.8377 52.35 24.3977 51.679 24.3977 50.7829C24.3977 49.8945 24.3907 49.0061 24.3837 48.1178V48.1177V48.1177V48.1176V48.1176V48.1175V48.1175V48.1174V48.1174V48.1173C24.3701 46.4003 24.3566 44.6835 24.3937 42.9676C24.4298 41.3804 25.6694 40.3176 27.3591 40.3136C29.4191 40.308 31.4785 40.3148 33.5379 40.3217H33.538H33.5381H33.5382H33.5383H33.5384H33.5385H33.5386H33.5387H33.5388C35.1868 40.3271 36.8349 40.3326 38.4833 40.3317C40.7656 40.3317 43.0479 40.3256 45.3302 40.3196L45.3345 40.3196C47.4105 40.314 49.4865 40.3085 51.5624 40.3076C57.0245 40.3049 62.4865 40.3058 67.9485 40.3067C70.6795 40.3071 73.4105 40.3076 76.1415 40.3076C78.5906 40.3076 79.6152 41.3302 79.6172 43.7692C79.6172 44.4232 79.6145 45.0771 79.6118 45.731C79.6055 47.257 79.5992 48.7829 79.6273 50.3088C79.6554 51.7312 79.0105 52.7177 77.7207 53.1315L77.7247 53.1255ZM78.7456 21.5603C79.3307 21.6813 79.9159 21.8023 80.4892 21.9647L80.4912 21.9667C80.8651 22.0733 81.2114 22.2774 81.5576 22.4814C81.7136 22.5733 81.8696 22.6652 82.0281 22.7482V27.8613C81.882 27.95 81.739 28.0497 81.596 28.1494L81.5959 28.1495C81.2787 28.3707 80.9614 28.592 80.6097 28.6931C79.6936 28.9566 78.7502 29.1276 77.8085 29.2984L77.8076 29.2985L77.5279 29.3493L77.3811 29.3762C76.9351 29.4585 76.7443 29.6735 76.5735 30.1035C76.1134 31.2607 75.593 32.3998 75.0185 33.5048C74.6146 34.2823 73.8813 34.4692 73.2645 34.0794C72.6598 33.6977 72.5995 33.0729 72.9531 32.2994C73.5297 31.0317 74.0822 29.7458 74.5544 28.4359C74.7934 27.7669 75.143 27.3852 75.8402 27.2546C76.7253 27.0881 77.6054 26.8994 78.479 26.7121L78.4792 26.7121L78.4798 26.712L78.4802 26.7119L78.4807 26.7118C78.8399 26.6348 79.198 26.558 79.555 26.4831C79.7411 24.9924 79.1451 24.1017 77.7669 23.811C77.5385 23.7628 77.3106 23.7124 77.0827 23.6619C76.6269 23.561 76.171 23.4601 75.7116 23.3771C75.0948 23.2666 74.7954 22.8969 74.5805 22.3243C74.0802 20.9963 73.5458 19.6803 72.9511 18.3925C72.6799 17.8059 72.6397 17.3217 73.0013 16.7812C73.5075 16.0249 74.0018 15.2616 74.5064 14.4825L74.5071 14.4813L74.5087 14.4788L74.5093 14.4779L74.511 14.4752L74.5162 14.4673L74.5165 14.4668C74.7296 14.1377 74.9446 13.8058 75.1631 13.4703L74.5043 12.8606C74.1799 12.5605 73.8479 12.2533 73.4895 11.9213C73.2001 12.1094 72.9026 12.299 72.6008 12.4914L72.6007 12.4915L72.6005 12.4916L72.6003 12.4917L72.6001 12.4919L72.5999 12.492C71.8899 12.9445 71.1555 13.4126 70.4438 13.9143C69.7567 14.3985 69.1821 14.3563 68.4407 13.9746C67.3136 13.3939 66.1243 12.9158 64.9208 12.522C64.1594 12.2729 63.7314 11.9012 63.5888 11.1056C63.4348 10.2436 63.246 9.38766 63.0566 8.52924L63.0566 8.52913L63.0566 8.52901L63.0566 8.52889L63.0565 8.52878L63.0565 8.5287L63.0565 8.52859L63.0565 8.52847L63.0565 8.52836C62.9767 8.16656 62.8968 7.80433 62.8193 7.44103H60.5551C60.2899 8.70474 60.0287 9.94836 59.7655 11.192C59.5686 12.1182 59.0402 12.5401 58.2728 12.3874C57.5435 12.2427 57.218 11.6018 57.4109 10.6736C57.4924 10.2843 57.5705 9.89402 57.6487 9.50376L57.6488 9.50338L57.6489 9.50299L57.649 9.50261L57.649 9.50223L57.6491 9.50185L57.6492 9.50147L57.6493 9.50103L57.6494 9.50052L57.6494 9.50045L57.6494 9.5004L57.6494 9.50036L57.6494 9.50032L57.6494 9.50028L57.6495 9.50024L57.6495 9.5002L57.6495 9.50016C57.8563 8.46791 58.063 7.43571 58.331 6.42042C58.4238 6.06893 58.6489 5.75176 58.874 5.43476C58.9757 5.29153 59.0774 5.14832 59.1668 5.00201H64.2799C64.3627 5.15836 64.4543 5.31223 64.5459 5.46615L64.546 5.4663L64.5461 5.46647C64.7522 5.81285 64.9584 6.15945 65.0655 6.53494C65.3608 7.5676 65.5657 8.6284 65.7486 9.68718C65.8249 10.1332 66.0379 10.2979 66.4357 10.4386C67.2574 10.7299 68.0731 11.0574 68.8546 11.4471C69.2785 11.6561 69.5698 11.6239 69.9435 11.3668C70.8537 10.738 71.7851 10.1412 72.7161 9.54457L72.7163 9.54447L72.8949 9.43002C73.6242 8.96391 74.0943 8.99807 74.7111 9.60079C75.331 10.2073 75.9419 10.8245 76.5529 11.4417L76.5536 11.4424C76.8592 11.7512 77.1648 12.0599 77.4715 12.3673C77.9939 12.8917 78.022 13.4622 77.6303 14.067C77.4927 14.2801 77.3556 14.4937 77.2184 14.7074C76.7066 15.5047 76.1941 16.303 75.6553 17.0826C75.3941 17.4583 75.3741 17.7496 75.577 18.1695C75.7802 18.5884 75.9531 19.0218 76.126 19.4553L76.1261 19.4555L76.1262 19.4557C76.2866 19.8579 76.4471 20.2602 76.6317 20.6507C76.7483 20.8958 77.0215 21.163 77.2726 21.2293C77.7589 21.3562 78.2522 21.4582 78.7456 21.5603ZM69.1017 30.0432C69.7768 30.3204 70.4759 30.0211 70.7371 29.1833C71.0097 28.3125 71.2248 27.4242 71.4401 26.5353L71.4402 26.5353L71.4402 26.5352L71.4402 26.5351L71.4402 26.535L71.4403 26.535L71.4403 26.5349L71.4403 26.5348C71.5344 26.1462 71.6286 25.7575 71.7276 25.3701C71.6896 25.3597 71.6516 25.35 71.6132 25.3402C71.5846 25.3329 71.5558 25.3255 71.5267 25.3178C71.5227 19.9275 67.0766 15.4191 61.8429 15.4974C61.0373 15.5095 60.545 15.9194 60.5089 16.6085C60.4707 17.3096 60.9087 17.7918 61.6942 17.8883C61.8726 17.9103 62.0527 17.9206 62.2327 17.9308C62.4785 17.9447 62.7239 17.9587 62.964 18.0028C67.7436 18.8908 70.3112 23.6282 68.5412 28.2732C68.2258 29.0989 68.4387 29.7699 69.1017 30.0432ZM35.4155 23.6161C29.9829 23.6222 24.5524 23.6222 19.1198 23.6161H19.1218C18.2479 23.6141 17.6914 23.1259 17.6853 22.4147C17.6793 21.6935 18.2197 21.2253 19.1058 21.2253C21.0733 21.221 23.0397 21.2219 25.0066 21.2227C25.7934 21.223 26.5801 21.2233 27.3671 21.2233C28.2598 21.2233 29.1525 21.2229 30.0452 21.2224C31.8306 21.2215 33.616 21.2206 35.4014 21.2233C36.3135 21.2253 36.8459 21.6432 36.8761 22.3625C36.9062 23.0938 36.3196 23.6161 35.4155 23.6161ZM19.5598 18.1474C21.2783 18.1488 22.9967 18.1483 24.7151 18.1479C25.5743 18.1476 26.4335 18.1474 27.2927 18.1474V18.1434C28.0787 18.1434 28.8649 18.1444 29.6511 18.1454H29.6513H29.6515H29.6517H29.652H29.6522C31.6189 18.1478 33.586 18.1503 35.5521 18.1374C36.3718 18.1313 36.8962 17.605 36.8761 16.9138C36.856 16.2488 36.3477 15.7968 35.5621 15.7466C35.454 15.7393 35.3449 15.7405 35.2355 15.7417L35.2353 15.7417C35.1943 15.7421 35.1532 15.7426 35.1121 15.7426H19.4212L19.3837 15.7425C19.171 15.7424 18.9569 15.7423 18.7481 15.7727C18.0811 15.8691 17.7014 16.291 17.6994 16.94C17.6994 17.5849 18.063 18.0208 18.7381 18.1133C18.9958 18.1476 19.2589 18.1475 19.5206 18.1474L19.5598 18.1474ZM28.9462 27.8874C28.9322 28.6288 28.4198 29.0567 27.5077 29.0607H27.5057C26.571 29.0648 25.6354 29.0634 24.7001 29.0621H24.6993H24.6991H24.6989H24.6987C24.2312 29.0614 23.7638 29.0607 23.2967 29.0607C22.8656 29.0607 22.4343 29.0615 22.003 29.0623H22.0027H22.0025H22.0023H22.0021H22.0016C21.0302 29.064 20.0585 29.0657 19.0877 29.0587C18.2177 29.0527 17.6672 28.5605 17.6833 27.8372C17.6994 27.1481 18.2398 26.6619 19.0616 26.6599C21.8923 26.6498 24.7251 26.6498 27.5559 26.6599C28.444 26.6639 28.9603 27.1401 28.9462 27.8874ZM11.5295 26.9271C11.0513 27.3269 10.9067 27.8292 11.2 28.4038C11.5114 29.0105 12.0659 29.1049 12.6727 29.0567C13.3015 29.0989 13.9002 29.0487 14.2217 28.3977C14.5029 27.8272 14.3724 27.3169 13.8862 26.9211C13.4 26.5233 12.0077 26.5273 11.5275 26.9271H11.5295ZM13.1507 21.226C13.4527 21.3144 13.7432 21.3993 13.9725 21.5669H13.9705C14.5029 21.9566 14.4829 22.7563 14.0228 23.2324C13.4703 23.805 11.9173 23.7949 11.3828 23.2163C10.9248 22.7221 10.9167 21.9345 11.4592 21.5508C11.6935 21.3854 11.9873 21.3051 12.2972 21.2204C12.4391 21.1817 12.5844 21.142 12.7289 21.0927C12.8687 21.1436 13.011 21.1852 13.1507 21.226ZM12.4256 18.1514C13.5486 18.1896 14.1072 17.9525 14.3121 17.3036C14.509 16.6808 14.1534 15.9997 13.5125 15.8229C13.3083 15.7664 13.0919 15.754 12.9774 15.7475C12.9454 15.7457 12.9213 15.7443 12.9077 15.7425C11.5536 15.7446 10.8745 16.3413 11.0855 17.1851C11.2563 17.8661 11.7465 18.1293 12.4256 18.1514ZM53.1697 61.6219C53.1677 62.2889 52.6493 62.8032 51.9823 62.8032C51.3254 62.8012 50.7809 62.2628 50.7809 61.6179C50.7829 60.971 51.3274 60.4385 51.9863 60.4385C52.6554 60.4385 53.1697 60.9529 53.1697 61.6219Z" fill="#02F37E"/>
</svg>
