<svg width="165" height="164" viewBox="0 0 165 164" fill="none" xmlns="http://www.w3.org/2000/svg">
<g clip-path="url(#clip0_1341_4470)">
<path d="M0.879416 133.529V30.4198C1.85904 26.0136 4.74232 23.3228 8.59666 21.2353C14.4958 18.0397 20.2324 14.5575 26.0546 11.2165C32.5997 7.46485 39.1576 3.73884 45.707 0C59.5844 0 73.4575 0 87.3348 0C94.1537 2.25443 94.128 7.87552 93.6917 13.6891C94.6243 13.6891 95.2531 13.6891 95.882 13.6891C115.735 13.6891 135.585 13.6891 155.438 13.6977C156.499 13.6977 157.594 13.6934 158.617 13.9372C162.45 14.857 164.82 18.1081 164.824 22.3646C164.832 47.3387 164.824 72.3128 164.824 97.2869C164.824 103.319 161.56 106.587 155.532 106.587C141.069 106.587 126.61 106.587 112.146 106.587H110.264V128.413C110.97 128.413 111.552 128.413 112.134 128.413C118.589 128.413 125.048 128.404 131.504 128.417C135.234 128.425 137.454 130.641 137.514 134.389C137.535 135.668 137.518 136.951 137.514 138.23C137.505 142.769 135.503 144.788 130.99 144.788C119.252 144.788 107.509 144.788 95.7707 144.788H93.7516C93.7516 148.287 93.7559 151.581 93.7516 154.88C93.743 160.625 90.4491 163.94 84.7424 163.94C73.5344 163.944 62.3265 163.85 51.1228 163.991C47.2727 164.038 43.9531 163.268 40.5693 161.215C30.0415 154.833 19.3383 148.732 8.59666 142.713C4.76798 140.566 1.85049 137.926 0.862305 133.52L0.879416 133.529ZM88.3102 82.1348C88.3102 57.8579 88.3102 33.5769 88.3102 9.30005C88.3102 6.297 87.4931 5.45854 84.5542 5.45854C72.4949 5.45854 60.4357 5.45854 48.3764 5.45854C45.4717 5.45854 44.6162 6.27989 44.6162 9.13749C44.6119 57.6954 44.6119 106.253 44.6162 154.811C44.6162 157.665 45.476 158.494 48.3721 158.494C60.3244 158.494 72.2768 158.494 84.2291 158.494C87.6 158.494 88.3102 157.771 88.3102 154.332C88.3102 130.265 88.3102 106.202 88.3102 82.1348ZM148.337 90.1172V30.1888H93.8842V90.1172H148.337ZM39.025 10.0829C38.3448 10.4551 37.8443 10.716 37.3567 10.9984C28.2619 16.2473 19.1972 21.539 10.064 26.7195C7.45875 28.1953 6.29945 30.1802 6.30373 33.1876C6.35934 57.3574 6.33368 81.5273 6.33368 105.697V107.494C8.13893 108.255 9.87574 108.991 11.7922 109.804V107.626C11.7922 84.5774 11.7922 61.5283 11.7922 38.4793C11.7922 37.4141 11.758 36.3446 11.8051 35.2794C11.8949 33.2817 12.712 31.609 14.5087 30.6722C18.3331 28.6787 22.1703 26.6981 26.0888 24.8885C29.1175 23.494 32.6553 25.2564 33.4381 28.4092C33.6649 29.3247 33.6392 30.3171 33.6392 31.2711C33.6478 59.8685 33.6478 88.466 33.6478 117.063C33.6478 117.543 33.6093 118.03 33.6692 118.501C33.7077 118.792 33.8232 119.219 34.0285 119.314C35.6327 120.054 37.2711 120.73 39.025 121.478V10.0829ZM93.8585 101.128C94.5216 101.128 95.0948 101.128 95.6681 101.128C115.573 101.128 135.478 101.128 155.383 101.128C158.557 101.128 159.374 100.311 159.374 97.1628C159.374 72.454 159.374 47.7494 159.374 23.0405C159.374 19.9433 158.591 19.1562 155.511 19.1562C135.555 19.1562 115.594 19.1562 95.6381 19.1562H93.8885V24.619H95.9076C113.036 24.619 130.169 24.619 147.297 24.619C151.947 24.619 153.915 26.5868 153.915 31.2326C153.915 50.4444 153.915 69.6563 153.915 88.8638C153.915 93.6764 151.926 95.6656 147.118 95.6656C130.041 95.6656 112.963 95.6656 95.8905 95.6656H93.8628V101.133L93.8585 101.128ZM6.33368 113.457C6.33368 119.604 6.3679 125.414 6.31657 131.223C6.29518 133.837 7.38175 135.672 9.63618 136.964C19.0132 142.341 28.3689 147.761 37.7374 153.16C38.1138 153.378 38.5202 153.536 39.0079 153.767C39.0635 153.331 39.1149 153.121 39.1149 152.916C39.1191 144.814 39.102 136.707 39.1491 128.605C39.1534 127.566 38.6186 127.249 37.8358 126.915C29.0234 123.155 20.2196 119.378 11.4115 115.609C9.81157 114.924 8.20738 114.253 6.33368 113.461V113.457ZM93.8072 128.318H104.587V106.702H93.85V114.753C94.7184 114.753 95.5055 114.715 96.2841 114.762C98.115 114.869 99.1973 115.896 99.2058 117.487C99.2144 119.104 98.1578 120.118 96.314 120.212C95.4927 120.255 94.667 120.22 93.8072 120.22V128.327V128.318ZM131.974 133.999H93.8542V139.236H131.974V133.999ZM17.3834 54.226V70.9696H28.0737V52.4422C24.4461 53.0454 20.9383 53.6314 17.3834 54.226ZM17.2508 76.5949C17.2508 82.0107 17.2422 87.2297 17.2764 92.4529C17.2764 92.778 17.6058 93.3427 17.8539 93.3898C21.2334 94.0015 24.6258 94.5405 28.0566 95.1052V76.5949H17.2508ZM28.1764 30.0904C27.8128 30.1802 27.5989 30.1931 27.4278 30.2786C24.2835 31.84 21.1222 33.3801 18.0208 35.0228C17.6144 35.2409 17.2978 36.011 17.285 36.5329C17.2123 39.198 17.2508 41.8631 17.2508 44.5282C17.2508 45.88 17.2508 47.2318 17.2508 48.6948C20.7714 48.113 24.0312 47.6168 27.2652 46.9879C27.6417 46.9152 28.1165 46.1409 28.1379 45.6746C28.232 43.5485 28.1807 41.4139 28.1807 39.2792C28.1807 36.2548 28.1807 33.2304 28.1807 30.0904H28.1764ZM28.1721 116.85C28.1721 111.545 28.1849 106.553 28.1464 101.556C28.1464 101.231 27.8342 100.658 27.5903 100.615C24.2108 100.003 20.8142 99.4601 17.2508 98.874C17.2508 103.22 17.2379 107.361 17.2807 111.502C17.2807 111.819 17.6315 112.285 17.9352 112.422C21.2292 113.885 24.5488 115.292 28.1721 116.85Z" fill="#3454D2"/>
<path d="M50.0967 68.3087C50.0967 59.2396 57.4546 51.8646 66.4595 51.9074C75.567 51.9502 82.8864 59.3509 82.8522 68.4755C82.818 77.3949 75.3831 84.7442 66.4595 84.6929C57.3348 84.6373 50.101 77.3906 50.0967 68.3087ZM66.498 79.2129C72.6067 79.1702 77.4578 74.2378 77.3937 68.1461C77.3295 62.1956 72.303 57.2932 66.3397 57.3574C60.3379 57.4216 55.5296 62.3411 55.5638 68.3814C55.598 74.426 60.4747 79.2557 66.498 79.2129Z" fill="#3454D2"/>
<path d="M50.0969 30.1203C50.0541 21.0384 57.3435 13.6934 66.3912 13.6934C75.4902 13.6934 82.7882 20.9229 82.8481 29.992C82.908 38.9327 75.5929 46.3719 66.6821 46.4318C57.489 46.4916 50.1396 39.2621 50.0969 30.116V30.1203ZM55.564 30.0476C55.5682 36.1007 60.4022 40.9732 66.4083 40.9818C72.4786 40.9946 77.4152 36.0494 77.3938 29.9791C77.3682 23.9773 72.4829 19.1519 66.4297 19.1519C60.3851 19.1519 55.5597 23.9902 55.564 30.0433V30.0476Z" fill="#3454D2"/>
<path d="M66.4679 90.207C75.6439 90.2626 82.8948 97.582 82.8478 106.745C82.805 115.72 75.3359 123.027 66.2839 122.954C57.2448 122.881 50.0067 115.476 50.0965 106.399C50.1864 97.3853 57.4929 90.1557 66.4679 90.2113V90.207ZM55.5636 106.484C55.5337 112.537 60.3377 117.457 66.3353 117.504C72.4012 117.555 77.3807 112.632 77.3978 106.57C77.4149 100.559 72.5595 95.7041 66.5106 95.6698C60.4618 95.6356 55.5978 100.44 55.5679 106.484H55.5636Z" fill="#3454D2"/>
<path d="M66.4811 136.652C63.9273 136.652 61.3691 136.677 58.8152 136.643C56.7447 136.617 55.594 135.612 55.5812 133.91C55.5683 132.198 56.702 131.197 58.7853 131.189C63.8973 131.168 69.0051 131.168 74.1171 131.189C76.1662 131.197 77.3811 132.228 77.3854 133.88C77.3939 135.527 76.1576 136.617 74.147 136.643C71.5932 136.677 69.035 136.652 66.4811 136.652Z" fill="#3454D2"/>
<path d="M66.5487 147.577C64.8419 147.577 63.1307 147.603 61.4239 147.569C59.5373 147.535 58.2968 146.452 58.254 144.878C58.2112 143.244 59.4774 142.136 61.4752 142.123C64.8376 142.102 68.2 142.097 71.5624 142.123C73.4917 142.14 74.621 143.184 74.6082 144.848C74.5954 146.491 73.4446 147.526 71.511 147.569C69.8555 147.603 68.2043 147.577 66.5487 147.577Z" fill="#3454D2"/>
<path d="M143.336 76.4752C142.631 77.3907 142.211 78.4045 141.48 78.751C140.74 79.1018 139.666 78.9051 138.785 78.7254C138.336 78.6355 137.963 78.0837 137.587 77.7073C125.297 65.4213 113.006 53.131 100.733 40.8279C100.22 40.3146 99.5354 39.6643 99.5055 39.0526C99.4584 38.1457 99.6638 36.9222 100.258 36.3747C100.853 35.8271 102.076 35.7586 102.996 35.8399C103.574 35.8913 104.143 36.5543 104.626 37.0377C116.886 49.2767 129.142 61.5241 141.373 73.7973C142.087 74.516 142.592 75.4485 143.336 76.4795V76.4752Z" fill="#3454D2"/>
<path d="M118.298 35.1859C119.286 35.7977 120.048 36.1014 120.587 36.6361C127.701 43.6988 134.785 50.7872 141.861 57.8842C143.212 59.2403 143.268 60.8402 142.117 61.9909C140.979 63.1288 139.35 63.0647 138.015 61.7385C130.918 54.663 123.842 47.5617 116.745 40.4819C115.766 39.5065 115.308 38.3387 115.997 37.1751C116.476 36.3666 117.473 35.8661 118.294 35.1816L118.298 35.1859Z" fill="#3454D2"/>
<path d="M134.588 35.1816C135.564 35.7592 136.372 36.0757 136.958 36.6233C138.635 38.1847 140.239 39.8274 141.839 41.4744C143.195 42.8689 143.285 44.4175 142.139 45.5854C140.992 46.7532 139.397 46.6976 138.032 45.3715C136.312 43.6988 134.623 41.992 132.937 40.2808C132.064 39.3953 131.752 38.2489 132.377 37.2093C132.847 36.4308 133.758 35.9174 134.588 35.1859V35.1816Z" fill="#3454D2"/>
<path d="M30.9189 133.327C31.0002 135.701 29.088 137.212 27.3213 136.403C23.4156 134.606 19.5783 132.643 15.7668 130.645C14.5561 130.012 14.2567 128.472 14.8171 127.274C15.3989 126.034 16.8662 125.289 18.1752 125.909C22.0681 127.749 25.9138 129.683 29.7126 131.702C30.3585 132.044 30.6794 132.994 30.9189 133.332V133.327Z" fill="#3454D2"/>
<path d="M69.1415 68.4545C69.1415 69.3614 69.1886 70.2683 69.133 71.1709C69.0346 72.6467 68.2218 73.528 66.7459 73.7034C65.3086 73.8745 63.961 73.0318 63.8455 71.5858C63.6701 69.4212 63.683 67.2224 63.8455 65.0536C63.9439 63.6932 65.2786 62.7906 66.5662 62.8505C67.948 62.9146 69.0346 63.9584 69.133 65.4215C69.2014 66.431 69.1458 67.4449 69.1458 68.4587L69.1415 68.4545Z" fill="#3454D2"/>
<path d="M69.1419 30.0646C69.1419 31.0228 69.189 31.9854 69.1334 32.9436C69.0435 34.4366 68.1537 35.2708 66.7292 35.4932C65.4459 35.6943 64.0128 34.8216 63.9016 33.4741C63.7133 31.2068 63.7091 28.901 63.9016 26.638C64.0171 25.2691 65.3774 24.4906 66.7421 24.6531C68.1324 24.82 68.9837 25.6328 69.112 27.0316C69.2018 28.0369 69.1291 29.055 69.1291 30.0689C69.1334 30.0689 69.1377 30.0689 69.1419 30.0689V30.0646Z" fill="#3454D2"/>
<path d="M69.1454 106.523C69.1454 107.481 69.1924 108.444 69.1325 109.397C69.0384 110.89 68.0032 111.934 66.6214 112.028C65.3381 112.118 63.9606 111.237 63.8622 109.881C63.6954 107.665 63.6654 105.406 63.8836 103.199C64.0248 101.774 65.2012 101.073 66.6856 101.158C68.0374 101.24 69.017 102.206 69.124 103.644C69.1924 104.598 69.1368 105.56 69.1368 106.518C69.1368 106.518 69.1411 106.518 69.1454 106.518V106.523Z" fill="#3454D2"/>
</g>
<defs>
<clipPath id="clip0_1341_4470">
<rect width="163.949" height="164" fill="white" transform="translate(0.879883)"/>
</clipPath>
</defs>
</svg>
