<svg width="29" height="29" viewBox="0 0 29 29" fill="none" xmlns="http://www.w3.org/2000/svg">
<path d="M27.7864 11.6123C28.0052 11.4482 28.3333 11.6123 28.3333 11.8857V23.042C28.3333 24.5186 27.1302 25.667 25.7083 25.667H2.95831C1.48175 25.667 0.333313 24.5186 0.333313 23.042V11.8857C0.333313 11.6123 0.60675 11.4482 0.8255 11.6123C2.08331 12.5967 3.66925 13.7998 9.24738 17.8467C10.3958 18.667 12.3646 20.4717 14.3333 20.4717C16.2474 20.4717 18.2708 18.667 19.3646 17.8467C24.9427 13.7998 26.5286 12.5967 27.7864 11.6123ZM14.3333 18.667C13.0208 18.7217 11.2161 17.0811 10.2864 16.4248C3.013 11.1748 2.46613 10.6826 0.8255 9.37012C0.497375 9.15137 0.333313 8.76855 0.333313 8.33105V7.29199C0.333313 5.87012 1.48175 4.66699 2.95831 4.66699H25.7083C27.1302 4.66699 28.3333 5.87012 28.3333 7.29199V8.33105C28.3333 8.76855 28.1146 9.15137 27.7864 9.37012C26.1458 10.6826 25.5989 11.1748 18.3255 16.4248C17.3958 17.0811 15.5911 18.7217 14.3333 18.667Z" fill="white"/>
</svg>
