<svg width="144" height="144" viewBox="0 0 144 144" fill="none" xmlns="http://www.w3.org/2000/svg">
<g clip-path="url(#clip0_1341_4489)">
<path d="M53.1411 135.87H48.1133C47.9802 136.496 47.8692 137.126 47.7095 137.752C46.8175 141.231 43.8444 143.738 40.2588 143.756C29.4666 143.809 18.67 143.822 7.8778 143.756C3.61329 143.729 0.187478 140.241 0.169727 135.963C0.120914 121.621 0.0942885 107.279 0.178602 92.9366C0.222978 85.8587 6.06283 80.1032 13.163 80.0188C20.4716 79.9301 27.7803 79.9967 35.089 79.9922C35.7502 79.9922 36.4159 79.9922 37.2146 79.9922V74.7514C33.2075 74.4852 29.7062 72.9764 27.057 69.7725C24.4388 66.604 23.8131 62.8499 24.0927 58.7318C22.4819 58.7318 21.0574 58.7318 19.6329 58.7318C17.3387 58.7229 16.8018 58.3457 15.9631 56.1846C10.4117 55.2172 8.11743 52.4571 8.11743 46.7326C8.11743 45.7341 8.11743 44.7401 8.11743 43.7417C8.12187 38.4565 10.6735 35.5055 16.0918 34.7201C16.0918 32.1685 16.1406 29.5858 16.0829 27.0031C15.9941 22.9339 16.2737 18.94 17.7603 15.0882C21.3237 5.81812 29.369 0.248958 39.2559 0.24452C46.8397 0.24452 54.4324 0.395398 62.0118 0.20902C73.4031 -0.0749852 82.9217 8.47623 84.8431 20.0361C84.9141 20.4666 84.9851 20.8926 85.0872 21.5094H87.0664C104.564 21.5094 122.057 21.5094 139.554 21.5094C140.109 21.5094 140.668 21.4739 141.214 21.536C142.669 21.7002 143.716 22.8274 143.641 24.2074C143.561 25.6763 142.727 26.546 141.289 26.7857C140.748 26.8744 140.184 26.8212 139.629 26.8212C119.257 26.8212 98.8792 26.8212 78.5063 26.8212C75.3112 26.8212 74.5657 27.5489 74.5657 30.6863C74.5657 52.8919 74.5657 75.0976 74.5657 97.3032C74.5657 100.547 75.2846 101.248 78.595 101.248C97.9739 101.248 117.353 101.248 136.732 101.248H137.894C142.407 101.248 143.69 101.852 143.654 103.951C143.619 105.983 142.35 106.564 137.974 106.564C137.269 106.564 136.563 106.564 135.693 106.564C135.693 108.916 135.693 111.117 135.693 113.318C135.693 118.027 135.724 122.731 135.671 127.439C135.658 128.499 135.942 129.072 136.918 129.627C140.783 131.805 142.962 135.209 143.583 139.589C144.014 142.62 142.971 143.778 139.882 143.778C131.744 143.778 123.605 143.778 115.467 143.778C112.485 143.778 111.429 142.606 111.859 139.669C112.041 138.426 112.409 137.206 112.711 135.888H101.24C100.756 139.851 98.8126 142.606 94.8099 143.569C94.0156 143.76 93.1636 143.769 92.3382 143.769C82.54 143.782 72.7419 143.778 62.9481 143.778C56.9308 143.778 54.3614 141.719 53.1455 135.866L53.1411 135.87ZM69.2495 85.4593C64.8785 84.9534 60.8935 85.1487 57.2636 87.5894C55.8524 88.539 54.1928 89.107 52.6973 89.9368C51.3128 90.709 50.0481 90.7134 48.6281 89.9501C45.9522 88.5124 43.2142 87.1811 40.4674 85.8809C39.7485 85.5436 38.9009 85.3306 38.111 85.3262C30.1411 85.2863 22.1668 85.2951 14.1969 85.304C8.69875 85.3084 5.46819 88.5701 5.46376 94.1126C5.45932 105.739 5.46376 117.366 5.46376 128.992C5.46376 131.206 5.45932 133.421 5.46819 135.635C5.47707 137.099 6.20039 138.213 7.62486 138.364C9.51526 138.564 11.4456 138.413 13.3582 138.413V127.834C12.91 127.834 12.5373 127.834 12.1645 127.834C9.28451 127.794 8.06418 126.977 8.10855 125.114C8.14849 123.259 9.3422 122.526 12.2888 122.518C13.7265 122.518 15.5415 123.006 16.5 122.318C17.5029 121.595 17.6848 119.726 18.2218 118.36C18.2617 118.257 18.3105 118.155 18.3505 118.053C19.2557 115.821 20.9243 114.663 23.3161 114.557C24.0883 114.521 24.8693 114.499 25.6414 114.557C26.6665 114.641 27.2744 114.375 27.8291 113.349C29.2758 110.66 31.6676 109.249 34.7385 109.24C45.3665 109.209 55.9944 109.214 66.6224 109.24C69.285 109.249 71.668 110.283 72.9238 112.595C73.9134 114.419 75.147 114.738 76.8821 114.548C77.2105 114.512 77.5478 114.534 77.8761 114.548C80.339 114.641 82.0652 115.803 82.9527 118.124C83.3654 119.207 83.7781 120.299 84.071 121.421C84.2929 122.273 84.7056 122.571 85.5842 122.54C87.2439 122.478 88.908 122.473 90.5632 122.549C92.1252 122.62 93.1813 123.791 93.1503 125.238C93.1192 126.618 92.0897 127.696 90.6075 127.812C89.7422 127.878 88.868 127.825 87.9494 127.825V138.471C89.4272 138.471 90.7984 138.471 92.174 138.471C94.9874 138.462 95.8173 137.632 95.8173 134.801C95.8173 125.943 95.8173 117.086 95.8173 108.229V106.573C89.6535 106.573 83.7337 106.582 77.814 106.573C72.5377 106.564 69.2539 103.25 69.2406 97.9378C69.2317 93.7975 69.2406 89.6528 69.2406 85.4638L69.2495 85.4593ZM69.2495 37.5779H29.3823C29.3823 38.1902 29.3823 38.6828 29.3823 39.1754C29.3867 46.7592 29.298 54.3475 29.44 61.9313C29.5154 66.1337 33.1365 69.3287 37.5119 69.342C46.2584 69.3731 55.0049 69.382 63.7513 69.3154C64.9317 69.3065 66.1432 68.9293 67.2748 68.5433C68.6992 68.0551 69.5157 67.1144 69.2805 65.4103C69.1119 64.2166 69.2495 62.9785 69.2495 61.7627V37.5734V37.5779ZM69.2495 122.429C69.2495 120.84 69.2584 119.349 69.2495 117.863C69.2273 115.484 68.3087 114.557 65.9257 114.548C61.608 114.534 57.2902 114.548 52.9769 114.548C47.0572 114.548 41.133 114.539 35.2133 114.552C33.3761 114.552 32.2135 115.351 32.107 116.864C31.9783 118.723 32.0759 120.596 32.0759 122.438C37.4543 123.223 40.0103 126.17 40.0192 131.437C40.0192 133.736 40.0192 136.039 40.0192 138.337C41.5901 138.306 42.5264 137.53 42.6551 135.892C42.7217 135.014 42.6462 134.122 42.6906 133.239C42.7793 131.566 43.7467 130.545 45.4197 130.518C48.9076 130.47 52.3911 130.47 55.8791 130.518C57.5476 130.541 58.5194 131.566 58.6126 133.234C58.6614 134.117 58.5816 135.009 58.6481 135.888C58.7812 137.619 59.9306 138.502 61.284 138.271C61.284 135.959 61.284 133.7 61.284 131.441C61.2885 126.165 63.8401 123.219 69.2584 122.433L69.2495 122.429ZM101.213 130.487C106.423 130.487 111.504 130.527 116.581 130.465C118.413 130.443 119.74 128.917 119.74 127.119C119.74 120.867 119.74 114.614 119.74 108.362C119.74 107.78 119.74 107.203 119.74 106.653H101.209V130.487H101.213ZM69.2939 32.062C69.0454 28.9157 69.3604 26.1156 71.5703 23.8436C71.7967 23.6128 71.7478 23.0137 71.6768 22.6143C71.0156 18.9667 67.8383 16.2287 64.062 16.2065C55.1513 16.1577 46.2407 16.1621 37.33 16.2065C33.456 16.2242 30.0967 18.8335 29.6175 22.6587C29.2314 25.7384 29.5376 28.9068 29.5376 32.0886H37.5119C40.1789 25.0816 44.3325 21.5316 50.2655 21.5493C57.4012 21.5671 61.7145 25.4455 63.7691 32.0664H69.3027L69.2939 32.062ZM24.0705 32.1108C24.0705 29.3195 24.035 26.6703 24.0794 24.0255C24.1992 16.7434 29.9281 10.9524 37.2057 10.8947C46.1741 10.8193 55.138 10.837 64.1063 10.8947C69.8708 10.9302 74.7787 14.6356 76.5804 20.1382C76.7268 20.5908 76.8821 21.0434 76.9931 21.3807H79.5447C79.0166 13.0736 71.5082 5.70718 63.3519 5.59624C54.8851 5.48086 46.4137 5.5208 37.9468 5.59624C33.8465 5.63174 30.3231 7.26921 27.3455 10.0649C20.8 16.202 21.1151 24.1142 21.5411 32.1152H24.075L24.0705 32.1108ZM18.8164 138.462C23.3028 138.462 27.6073 138.493 31.9073 138.448C33.6512 138.431 34.632 137.383 34.6852 135.613C34.7296 134.011 34.7251 132.409 34.6896 130.807C34.6453 128.854 33.6601 127.874 31.7032 127.843C29.7728 127.807 27.838 127.834 25.9032 127.834C23.5513 127.834 21.1994 127.834 18.8164 127.834V138.462ZM82.469 127.838C77.9782 127.838 73.6738 127.807 69.3693 127.852C67.6253 127.869 66.6535 128.917 66.6047 130.692C66.5603 132.294 66.5648 133.895 66.6047 135.497C66.6491 137.446 67.6342 138.426 69.6001 138.457C71.7523 138.493 73.9089 138.466 76.0612 138.466C78.1912 138.466 80.3213 138.466 82.4735 138.466V127.838H82.469ZM42.6817 74.7026C42.6817 76.6685 42.6418 78.6299 42.7217 80.5913C42.735 80.8886 43.232 81.2614 43.587 81.4389C45.8945 82.6193 48.2021 84.5896 50.5584 84.6606C52.755 84.7271 55.0137 82.7613 57.2458 81.6918C57.5432 81.5498 57.8849 81.4477 58.1245 81.2392C58.3464 81.0439 58.586 80.7244 58.5904 80.4537C58.6304 78.5456 58.6126 76.6374 58.6126 74.7071H42.6817V74.7026ZM125.176 106.64V127.696H130.288V106.64H125.176ZM137.588 138.4C137.712 138.231 137.837 138.062 137.965 137.894C136.9 136.758 135.977 135.426 134.744 134.526C131.859 132.422 123.525 132.524 120.588 134.552C119.23 135.489 118.205 136.691 117.641 138.395H137.588V138.4ZM57.8627 32.0664C57.0595 28.929 53.7623 26.6836 50.2744 26.8345C47.035 26.9765 43.9553 29.3417 43.4716 32.0664H57.8627ZM69.1962 79.9168V73.7619C67.4434 74.1346 65.7482 74.4941 64.0486 74.8579V79.9212H69.1962V79.9168ZM15.9853 50.722V40.125C14.3478 40.4046 13.5046 41.2832 13.4558 42.8053C13.3981 44.567 13.3893 46.3332 13.4558 48.0949C13.518 49.6126 14.37 50.4823 15.9808 50.722H15.9853ZM23.9596 42.6944V37.5823H21.4878V42.6944H23.9596ZM23.9685 53.3756V48.2059H21.5367V53.3756H23.9685ZM22.5795 122.442H26.6354V120.006C24.3871 119.731 23.0351 120.543 22.5795 122.442ZM74.619 122.411H78.6705C78.0758 119.549 77.8717 119.438 74.619 120.068V122.411Z" fill="#3454D2"/>
<path d="M114.597 58.7229C123.011 58.7229 131.429 58.7229 139.842 58.7229C140.339 58.7229 140.85 58.6741 141.333 58.7628C142.767 59.0291 143.628 59.9122 143.628 61.381C143.628 62.8499 142.762 63.7285 141.329 63.9947C140.845 64.0835 140.335 64.0347 139.838 64.0347C122.895 64.0347 105.953 64.0347 89.0099 64.0347C88.5129 64.0347 88.0025 64.0835 87.5188 63.9903C86.0899 63.7196 85.2246 62.8454 85.2246 61.3721C85.2246 59.9033 86.0899 59.0247 87.5188 58.7584C88.0025 58.6697 88.5129 58.7185 89.0099 58.7185C97.5344 58.7185 106.063 58.7185 114.588 58.7185L114.597 58.7229Z" fill="#3454D2"/>
<path d="M127.55 74.6714C123.396 74.6714 119.247 74.6803 115.094 74.6714C112.999 74.667 111.783 73.673 111.783 72.0177C111.783 70.3581 112.995 69.3641 115.089 69.3641C123.503 69.3552 131.921 69.3552 140.335 69.3641C142.429 69.3641 143.645 70.3581 143.645 72.0177C143.645 73.673 142.429 74.667 140.335 74.6759C136.07 74.6892 131.81 74.6759 127.545 74.6759L127.55 74.6714Z" fill="#3454D2"/>
<path d="M127.653 82.646C123.446 82.646 119.239 82.6549 115.028 82.646C112.965 82.6372 111.744 81.5899 111.784 79.9258C111.824 78.3194 113.004 77.3431 114.993 77.3387C123.464 77.3298 131.935 77.3298 140.407 77.3387C142.461 77.3387 143.695 78.3993 143.65 80.0589C143.61 81.6565 142.421 82.6416 140.442 82.646C136.178 82.6593 131.917 82.6505 127.653 82.6505V82.646Z" fill="#3454D2"/>
<path d="M127.718 85.3043C131.925 85.3043 136.132 85.2954 140.343 85.3043C142.438 85.3087 143.654 86.3028 143.654 87.958C143.654 89.6132 142.438 90.6116 140.343 90.6116C131.93 90.6205 123.512 90.6205 115.098 90.6116C113.003 90.6116 111.788 89.6132 111.792 87.9535C111.792 86.2939 113.003 85.3087 115.102 85.2999C119.309 85.2865 123.516 85.2999 127.727 85.2999L127.718 85.3043Z" fill="#3454D2"/>
</g>
<defs>
<clipPath id="clip0_1341_4489">
<rect width="143.551" height="143.6" fill="white" transform="translate(0.125 0.200195)"/>
</clipPath>
</defs>
</svg>
