<svg width="144" height="144" viewBox="0 0 144 144" fill="none" xmlns="http://www.w3.org/2000/svg">
<g clip-path="url(#clip0_1341_4489)">
<path d="M53.2612 135.87H48.2334C48.1003 136.496 47.9894 137.126 47.8296 137.752C46.9377 141.231 43.9645 143.738 40.3789 143.756C29.5867 143.809 18.7901 143.822 7.99792 143.756C3.7334 143.729 0.307595 140.241 0.289844 135.963C0.241031 121.621 0.214406 107.279 0.29872 92.9366C0.343095 85.8587 6.18295 80.1032 13.2831 80.0188C20.5918 79.9301 27.9004 79.9967 35.2091 79.9922C35.8703 79.9922 36.536 79.9922 37.3347 79.9922V74.7514C33.3276 74.4852 29.8264 72.9764 27.1771 69.7725C24.559 66.604 23.9333 62.8499 24.2128 58.7318C22.602 58.7318 21.1775 58.7318 19.7531 58.7318C17.4588 58.7229 16.9219 58.3457 16.0832 56.1846C10.5318 55.2172 8.23755 52.4571 8.23755 46.7326C8.23755 45.7341 8.23755 44.7401 8.23755 43.7417C8.24198 38.4565 10.7936 35.5055 16.2119 34.7201C16.2119 32.1685 16.2607 29.5858 16.203 27.0031C16.1142 22.9339 16.3938 18.94 17.8804 15.0882C21.4438 5.81812 29.4891 0.248958 39.376 0.24452C46.9598 0.24452 54.5525 0.395398 62.1319 0.20902C73.5232 -0.0749852 83.0418 8.47623 84.9633 20.0361C85.0343 20.4666 85.1053 20.8926 85.2073 21.5094H87.1865C104.684 21.5094 122.177 21.5094 139.674 21.5094C140.229 21.5094 140.788 21.4739 141.334 21.536C142.789 21.7002 143.837 22.8274 143.761 24.2074C143.681 25.6763 142.847 26.546 141.409 26.7857C140.868 26.8744 140.304 26.8212 139.75 26.8212C119.377 26.8212 98.9993 26.8212 78.6264 26.8212C75.4313 26.8212 74.6858 27.5489 74.6858 30.6863C74.6858 52.8919 74.6858 75.0976 74.6858 97.3032C74.6858 100.547 75.4047 101.248 78.7151 101.248C98.094 101.248 117.473 101.248 136.852 101.248H138.014C142.527 101.248 143.81 101.852 143.774 103.951C143.739 105.983 142.47 106.564 138.094 106.564C137.389 106.564 136.683 106.564 135.813 106.564C135.813 108.916 135.813 111.117 135.813 113.318C135.813 118.027 135.845 122.731 135.791 127.439C135.778 128.499 136.062 129.072 137.038 129.627C140.903 131.805 143.082 135.209 143.703 139.589C144.134 142.62 143.091 143.778 140.003 143.778C131.864 143.778 123.725 143.778 115.587 143.778C112.605 143.778 111.549 142.606 111.979 139.669C112.161 138.426 112.529 137.206 112.831 135.888H101.36C100.876 139.851 98.9327 142.606 94.93 143.569C94.1357 143.76 93.2837 143.769 92.4583 143.769C82.6601 143.782 72.862 143.778 63.0682 143.778C57.0509 143.778 54.4815 141.719 53.2656 135.866L53.2612 135.87ZM69.3696 85.4593C64.9986 84.9534 61.0136 85.1487 57.3837 87.5894C55.9726 88.539 54.3129 89.107 52.8174 89.9368C51.4329 90.709 50.1682 90.7134 48.7482 89.9501C46.0723 88.5124 43.3343 87.1811 40.5875 85.8809C39.8686 85.5436 39.021 85.3306 38.2311 85.3262C30.2612 85.2863 22.2869 85.2951 14.317 85.304C8.81887 85.3084 5.58831 88.5701 5.58387 94.1126C5.57944 105.739 5.58387 117.366 5.58387 128.992C5.58387 131.206 5.57944 133.421 5.58831 135.635C5.59719 137.099 6.32051 138.213 7.74497 138.364C9.63538 138.564 11.5657 138.413 13.4783 138.413V127.834C13.0301 127.834 12.6574 127.834 12.2846 127.834C9.40463 127.794 8.18429 126.977 8.22867 125.114C8.26861 123.259 9.46232 122.526 12.4089 122.518C13.8466 122.518 15.6616 123.006 16.6201 122.318C17.623 121.595 17.805 119.726 18.3419 118.36C18.3818 118.257 18.4307 118.155 18.4706 118.053C19.3759 115.821 21.0444 114.663 23.4362 114.557C24.2084 114.521 24.9894 114.499 25.7615 114.557C26.7866 114.641 27.3946 114.375 27.9493 113.349C29.3959 110.66 31.7878 109.249 34.8586 109.24C45.4866 109.209 56.1146 109.214 66.7426 109.24C69.4051 109.249 71.7881 110.283 73.0439 112.595C74.0335 114.419 75.2672 114.738 77.0022 114.548C77.3306 114.512 77.6679 114.534 77.9963 114.548C80.4591 114.641 82.1853 115.803 83.0728 118.124C83.4855 119.207 83.8982 120.299 84.1911 121.421C84.413 122.273 84.8257 122.571 85.7043 122.54C87.364 122.478 89.0281 122.473 90.6833 122.549C92.2453 122.62 93.3015 123.791 93.2704 125.238C93.2393 126.618 92.2098 127.696 90.7277 127.812C89.8623 127.878 88.9881 127.825 88.0696 127.825V138.471C89.5473 138.471 90.9185 138.471 92.2941 138.471C95.1076 138.462 95.9374 137.632 95.9374 134.801C95.9374 125.943 95.9374 117.086 95.9374 108.229V106.573C89.7736 106.573 83.8539 106.582 77.9341 106.573C72.6579 106.564 69.374 103.25 69.3607 97.9378C69.3519 93.7975 69.3607 89.6528 69.3607 85.4638L69.3696 85.4593ZM69.3696 37.5779H29.5024C29.5024 38.1902 29.5024 38.6828 29.5024 39.1754C29.5069 46.7592 29.4181 54.3475 29.5601 61.9313C29.6355 66.1337 33.2566 69.3287 37.6321 69.342C46.3785 69.3731 55.125 69.382 63.8715 69.3154C65.0518 69.3065 66.2633 68.9293 67.3949 68.5433C68.8194 68.0551 69.6359 67.1144 69.4007 65.4103C69.232 64.2166 69.3696 62.9785 69.3696 61.7627V37.5734V37.5779ZM69.3696 122.429C69.3696 120.84 69.3785 119.349 69.3696 117.863C69.3474 115.484 68.4288 114.557 66.0459 114.548C61.7281 114.534 57.4103 114.548 53.097 114.548C47.1773 114.548 41.2531 114.539 35.3334 114.552C33.4962 114.552 32.3336 115.351 32.2271 116.864C32.0984 118.723 32.196 120.596 32.196 122.438C37.5744 123.223 40.1304 126.17 40.1393 131.437C40.1393 133.736 40.1393 136.039 40.1393 138.337C41.7102 138.306 42.6465 137.53 42.7752 135.892C42.8418 135.014 42.7663 134.122 42.8107 133.239C42.8995 131.566 43.8669 130.545 45.5398 130.518C49.0278 130.47 52.5112 130.47 55.9992 130.518C57.6677 130.541 58.6395 131.566 58.7327 133.234C58.7815 134.117 58.7017 135.009 58.7682 135.888C58.9014 137.619 60.0507 138.502 61.4042 138.271C61.4042 135.959 61.4042 133.7 61.4042 131.441C61.4086 126.165 63.9602 123.219 69.3785 122.433L69.3696 122.429ZM101.333 130.487C106.543 130.487 111.624 130.527 116.701 130.465C118.534 130.443 119.86 128.917 119.86 127.119C119.86 120.867 119.86 114.614 119.86 108.362C119.86 107.78 119.86 107.203 119.86 106.653H101.329V130.487H101.333ZM69.414 32.062C69.1655 28.9157 69.4805 26.1156 71.6905 23.8436C71.9168 23.6128 71.868 23.0137 71.797 22.6143C71.1358 18.9667 67.9585 16.2287 64.1821 16.2065C55.2714 16.1577 46.3608 16.1621 37.4501 16.2065C33.5761 16.2242 30.2169 18.8335 29.7376 22.6587C29.3515 25.7384 29.6577 28.9068 29.6577 32.0886H37.6321C40.299 25.0816 44.4526 21.5316 50.3857 21.5493C57.5213 21.5671 61.8346 25.4455 63.8892 32.0664H69.4229L69.414 32.062ZM24.1906 32.1108C24.1906 29.3195 24.1551 26.6703 24.1995 24.0255C24.3193 16.7434 30.0482 10.9524 37.3259 10.8947C46.2942 10.8193 55.2581 10.837 64.2265 10.8947C69.9909 10.9302 74.8988 14.6356 76.7005 20.1382C76.8469 20.5908 77.0022 21.0434 77.1132 21.3807H79.6648C79.1367 13.0736 71.6283 5.70718 63.4721 5.59624C55.0052 5.48086 46.5338 5.5208 38.0669 5.59624C33.9666 5.63174 30.4432 7.26921 27.4656 10.0649C20.9201 16.202 21.2352 24.1142 21.6612 32.1152H24.1951L24.1906 32.1108ZM18.9365 138.462C23.4229 138.462 27.7274 138.493 32.0274 138.448C33.7714 138.431 34.7521 137.383 34.8053 135.613C34.8497 134.011 34.8453 132.409 34.8098 130.807C34.7654 128.854 33.7802 127.874 31.8233 127.843C29.8929 127.807 27.9581 127.834 26.0234 127.834C23.6714 127.834 21.3195 127.834 18.9365 127.834V138.462ZM82.5891 127.838C78.0983 127.838 73.7939 127.807 69.4894 127.852C67.7455 127.869 66.7736 128.917 66.7248 130.692C66.6804 132.294 66.6849 133.895 66.7248 135.497C66.7692 137.446 67.7543 138.426 69.7202 138.457C71.8724 138.493 74.0291 138.466 76.1813 138.466C78.3113 138.466 80.4414 138.466 82.5936 138.466V127.838H82.5891ZM42.8018 74.7026C42.8018 76.6685 42.7619 78.6299 42.8418 80.5913C42.8551 80.8886 43.3521 81.2614 43.7071 81.4389C46.0146 82.6193 48.3222 84.5896 50.6785 84.6606C52.8751 84.7271 55.1339 82.7613 57.366 81.6918C57.6633 81.5498 58.005 81.4477 58.2446 81.2392C58.4665 81.0439 58.7061 80.7244 58.7105 80.4537C58.7505 78.5456 58.7327 76.6374 58.7327 74.7071H42.8018V74.7026ZM125.296 106.64V127.696H130.408V106.64H125.296ZM137.708 138.4C137.833 138.231 137.957 138.062 138.085 137.894C137.02 136.758 136.097 135.426 134.864 134.526C131.979 132.422 123.646 132.524 120.708 134.552C119.35 135.489 118.325 136.691 117.761 138.395H137.708V138.4ZM57.9828 32.0664C57.1796 28.929 53.8825 26.6836 50.3945 26.8345C47.1551 26.9765 44.0754 29.3417 43.5917 32.0664H57.9828ZM69.3164 79.9168V73.7619C67.5635 74.1346 65.8684 74.4941 64.1688 74.8579V79.9212H69.3164V79.9168ZM16.1054 50.722V40.125C14.4679 40.4046 13.6248 41.2832 13.576 42.8053C13.5183 44.567 13.5094 46.3332 13.576 48.0949C13.6381 49.6126 14.4901 50.4823 16.1009 50.722H16.1054ZM24.0797 42.6944V37.5823H21.608V42.6944H24.0797ZM24.0886 53.3756V48.2059H21.6568V53.3756H24.0886ZM22.6996 122.442H26.7556V120.006C24.5072 119.731 23.1552 120.543 22.6996 122.442ZM74.7391 122.411H78.7906C78.1959 119.549 77.9918 119.438 74.7391 120.068V122.411Z" fill="#02F37E"/>
<path d="M114.717 58.7229C123.131 58.7229 131.549 58.7229 139.962 58.7229C140.459 58.7229 140.97 58.6741 141.453 58.7628C142.887 59.0291 143.748 59.9122 143.748 61.381C143.748 62.8499 142.882 63.7285 141.449 63.9947C140.965 64.0835 140.455 64.0347 139.958 64.0347C123.015 64.0347 106.073 64.0347 89.13 64.0347C88.633 64.0347 88.1226 64.0835 87.639 63.9903C86.2101 63.7196 85.3447 62.8454 85.3447 61.3721C85.3447 59.9033 86.2101 59.0247 87.639 58.7584C88.1226 58.6697 88.633 58.7185 89.13 58.7185C97.6546 58.7185 106.184 58.7185 114.708 58.7185L114.717 58.7229Z" fill="#02F37E"/>
<path d="M127.67 74.6714C123.516 74.6714 119.367 74.6803 115.214 74.6714C113.119 74.667 111.903 73.673 111.903 72.0177C111.903 70.3581 113.115 69.3641 115.209 69.3641C123.623 69.3552 132.041 69.3552 140.455 69.3641C142.549 69.3641 143.765 70.3581 143.765 72.0177C143.765 73.673 142.549 74.667 140.455 74.6759C136.19 74.6892 131.93 74.6759 127.666 74.6759L127.67 74.6714Z" fill="#02F37E"/>
<path d="M127.772 82.646C123.565 82.646 119.358 82.6549 115.147 82.646C113.084 82.6372 111.863 81.5899 111.903 79.9258C111.943 78.3194 113.124 77.3431 115.112 77.3387C123.583 77.3298 132.054 77.3298 140.526 77.3387C142.58 77.3387 143.814 78.3993 143.77 80.0589C143.73 81.6565 142.54 82.6416 140.561 82.646C136.297 82.6593 132.037 82.6505 127.772 82.6505V82.646Z" fill="#02F37E"/>
<path d="M127.839 85.3043C132.045 85.3043 136.252 85.2954 140.464 85.3043C142.558 85.3087 143.774 86.3028 143.774 87.958C143.774 89.6132 142.558 90.6116 140.464 90.6116C132.05 90.6205 123.632 90.6205 115.218 90.6116C113.124 90.6116 111.908 89.6132 111.912 87.9535C111.912 86.2939 113.124 85.3087 115.223 85.2999C119.429 85.2865 123.636 85.2999 127.847 85.2999L127.839 85.3043Z" fill="#02F37E"/>
</g>
<defs>
<clipPath id="clip0_1341_4489">
<rect width="143.551" height="143.6" fill="white" transform="translate(0.245117 0.200195)"/>
</clipPath>
</defs>
</svg>
