<svg width="286" height="72" viewBox="0 0 286 72" fill="none" xmlns="http://www.w3.org/2000/svg">
<path d="M62.8706 4.69238C62.8706 5.24035 62.8782 5.69029 62.8706 6.13771C62.7704 11.5998 62.6552 17.0619 62.5825 22.524C62.575 23.1247 62.7103 23.7707 62.9533 24.3212C72.0668 45.046 57.3279 68.1511 34.7384 68.5257C18.8118 68.7921 5.19793 56.684 3.33114 40.5944C1.49692 24.7762 12.2742 9.7724 27.805 6.50721C32.819 5.45401 37.7904 5.58472 42.7393 6.91945C43.2806 7.06524 43.8895 7.10043 44.4483 7.03256C50.0962 6.32623 55.7417 5.58472 61.3872 4.85577C61.8358 4.79795 62.2868 4.75522 62.8706 4.69238ZM55.0953 27.8151C55.0126 27.5562 54.9875 27.4306 54.9324 27.32C54.8046 27.0585 54.6768 26.7946 54.529 26.5458C49.5124 18.0623 42.0878 14.1863 32.3078 15.0384C20.3653 16.0791 11.0589 28.0238 12.8455 39.888C14.7449 52.5089 25.5072 60.6932 38.1112 59.0996C48.7106 57.7624 57.1901 48.1604 57.1826 37.5102C57.1801 35.7456 56.4409 34.8834 54.752 34.8759C49.7605 34.8482 44.769 34.7904 39.7775 34.896C35.9211 34.9764 32.9944 38.0632 33.0921 41.8663C38.3693 41.8663 43.6514 41.8663 49.0037 41.8663C48.9436 42.2081 48.9386 42.374 48.886 42.5273C46.6458 49.1356 39.116 53.3987 32.19 51.9836C24.8857 50.4905 19.5936 43.9299 20.0747 36.8415C20.4856 30.7762 23.4449 26.2969 28.9802 23.8411C34.5254 21.3803 39.7575 22.3128 44.5535 26.0305C45.5884 26.8348 46.7761 27.5261 47.9989 27.981C50.3117 28.8407 52.6847 28.9965 55.0953 27.8151Z" fill="url(#paint0_linear_1341_4269)"/>
<path d="M96.9537 35.3632C96.5032 34.5374 95.8839 33.9087 95.0956 33.477C94.3074 33.0453 93.3877 32.8295 92.3367 32.8295C91.1731 32.8295 90.1408 33.0922 89.2399 33.6177C88.339 34.1433 87.6352 34.894 87.1285 35.8699C86.6218 36.8459 86.3684 37.972 86.3684 39.2482C86.3684 40.562 86.6218 41.7069 87.1285 42.6828C87.654 43.6588 88.3766 44.4095 89.2962 44.935C90.2159 45.4605 91.2857 45.7233 92.5056 45.7233C94.0071 45.7233 95.2364 45.3291 96.1936 44.5409C97.1507 43.7338 97.7795 42.6171 98.0798 41.1907H91.3232V38.1784H101.965V41.613C101.702 42.9831 101.139 44.25 100.276 45.4136C99.4123 46.5772 98.2956 47.5156 96.9255 48.2288C95.5742 48.9233 94.054 49.2705 92.3648 49.2705C90.4692 49.2705 88.7519 48.8482 87.213 48.0036C85.6927 47.1403 84.4916 45.9485 83.6094 44.4283C82.7461 42.908 82.3144 41.1814 82.3144 39.2482C82.3144 37.3151 82.7461 35.5884 83.6094 34.0682C84.4916 32.5292 85.6927 31.3374 87.213 30.4928C88.7519 29.6295 90.4599 29.1978 92.3367 29.1978C94.5513 29.1978 96.4751 29.7421 98.1079 30.8307C99.7408 31.9005 100.867 33.4113 101.486 35.3632H96.9537ZM115.016 49.1016L110.68 41.4441H108.822V49.1016H104.881V29.4512H112.257C113.777 29.4512 115.072 29.7233 116.142 30.2676C117.212 30.7931 118.009 31.5157 118.535 32.4353C119.079 33.3362 119.351 34.3497 119.351 35.4758C119.351 36.7708 118.976 37.9438 118.225 38.9949C117.474 40.0271 116.358 40.7403 114.875 41.1344L119.576 49.1016H115.016ZM108.822 38.4881H112.116C113.186 38.4881 113.983 38.2347 114.509 37.728C115.034 37.2025 115.297 36.4799 115.297 35.5603C115.297 34.6594 115.034 33.965 114.509 33.477C113.983 32.9702 113.186 32.7169 112.116 32.7169H108.822V38.4881ZM126.857 29.4512V49.1016H122.916V29.4512H126.857ZM144.124 29.4512V32.6324H138.887V49.1016H134.946V32.6324H129.71V29.4512H144.124ZM167.08 29.4512V32.6324H161.844V49.1016H157.902V32.6324H152.666V29.4512H167.08ZM180.091 49.1016L175.755 41.4441H173.897V49.1016H169.956V29.4512H177.332C178.852 29.4512 180.147 29.7233 181.217 30.2676C182.286 30.7931 183.084 31.5157 183.61 32.4353C184.154 33.3362 184.426 34.3497 184.426 35.4758C184.426 36.7708 184.051 37.9438 183.3 38.9949C182.549 40.0271 181.432 40.7403 179.95 41.1344L184.651 49.1016H180.091ZM173.897 38.4881H177.191C178.261 38.4881 179.058 38.2347 179.584 37.728C180.109 37.2025 180.372 36.4799 180.372 35.5603C180.372 34.6594 180.109 33.965 179.584 33.477C179.058 32.9702 178.261 32.7169 177.191 32.7169H173.897V38.4881ZM200.04 45.3573H192.214L190.919 49.1016H186.78L193.846 29.423H198.435L205.502 49.1016H201.335L200.04 45.3573ZM198.97 42.2042L196.127 33.9837L193.283 42.2042H198.97ZM212.084 29.4512V49.1016H208.143V29.4512H212.084ZM232.785 49.1016H228.844L219.92 35.6166V49.1016H215.978V29.423H219.92L228.844 42.9362V29.423H232.785V49.1016ZM240.621 29.4512V49.1016H236.68V29.4512H240.621ZM261.322 49.1016H257.381L248.457 35.6166V49.1016H244.516V29.423H248.457L257.381 42.9362V29.423H261.322V49.1016ZM278.899 35.3632C278.449 34.5374 277.83 33.9087 277.041 33.477C276.253 33.0453 275.334 32.8295 274.282 32.8295C273.119 32.8295 272.087 33.0922 271.186 33.6177C270.285 34.1433 269.581 34.894 269.074 35.8699C268.568 36.8459 268.314 37.972 268.314 39.2482C268.314 40.562 268.568 41.7069 269.074 42.6828C269.6 43.6588 270.322 44.4095 271.242 44.935C272.162 45.4605 273.231 45.7233 274.451 45.7233C275.953 45.7233 277.182 45.3291 278.139 44.5409C279.097 43.7338 279.725 42.6171 280.026 41.1907H273.269V38.1784H283.911V41.613C283.648 42.9831 283.085 44.25 282.221 45.4136C281.358 46.5772 280.241 47.5156 278.871 48.2288C277.52 48.9233 276 49.2705 274.311 49.2705C272.415 49.2705 270.698 48.8482 269.159 48.0036C267.639 47.1403 266.437 45.9485 265.555 44.4283C264.692 42.908 264.26 41.1814 264.26 39.2482C264.26 37.3151 264.692 35.5884 265.555 34.0682C266.437 32.5292 267.639 31.3374 269.159 30.4928C270.698 29.6295 272.406 29.1978 274.282 29.1978C276.497 29.1978 278.421 29.7421 280.054 30.8307C281.687 31.9005 282.813 33.4113 283.432 35.3632H278.899Z" fill="white"/>
<defs>
<linearGradient id="paint0_linear_1341_4269" x1="65.6888" y1="4.69238" x2="-8.01936" y2="50.6527" gradientUnits="userSpaceOnUse">
<stop stop-color="#3D00BD"/>
<stop offset="1" stop-color="#E90054"/>
</linearGradient>
</defs>
</svg>
