<svg width="88" height="88" viewBox="0 0 88 88" fill="none" xmlns="http://www.w3.org/2000/svg">
<path fill-rule="evenodd" clip-rule="evenodd" d="M59.5697 4.55296C59.5693 4.46021 59.5688 4.36321 59.5688 4.25977C59.4774 4.2696 59.392 4.27853 59.3109 4.28701C59.1109 4.30792 58.9371 4.32609 58.764 4.34841C57.9634 4.45177 57.1629 4.55561 56.3623 4.65945C54.1 4.95288 51.8374 5.24633 49.5742 5.52937C49.271 5.56619 48.9407 5.5471 48.647 5.46801C45.9621 4.74388 43.265 4.67297 40.5447 5.24436C32.1189 7.01581 26.2719 15.1557 27.2671 23.7375C28.2798 32.4666 35.6657 39.0355 44.3063 38.891C56.5617 38.6878 64.5579 26.1526 59.6136 14.9089C59.4818 14.6103 59.4084 14.2598 59.4124 13.9339C59.4416 11.7434 59.4834 9.55289 59.5251 7.3624C59.5399 6.58957 59.5546 5.81673 59.5688 5.04389C59.5714 4.88562 59.5706 4.72676 59.5697 4.55296ZM55.313 16.6816C55.323 16.7156 55.3348 16.7557 55.3504 16.8045C54.0426 17.4454 52.7552 17.3608 51.5005 16.8945C50.8371 16.6476 50.1927 16.2726 49.6312 15.8362C47.0293 13.8193 44.1908 13.3134 41.1823 14.6484C38.1793 15.9808 36.5738 18.4109 36.3509 21.7015C36.0898 25.5472 38.961 29.1064 42.9238 29.9165C46.6813 30.6842 50.7664 28.3714 51.9817 24.7862C51.9995 24.7345 52.0072 24.6801 52.0184 24.6017C52.0252 24.5541 52.0333 24.4976 52.0456 24.4276H43.4132C43.3601 22.3643 44.948 20.6896 47.0401 20.646C49.3262 20.5977 51.6122 20.6125 53.8982 20.6273C54.3202 20.63 54.7422 20.6328 55.1642 20.6351C56.0804 20.6392 56.4815 21.1069 56.4828 22.0643C56.4869 27.8423 51.8866 33.0516 46.1361 33.7771C39.2981 34.6417 33.4593 30.2015 32.4289 23.3543C31.4596 16.9176 36.5085 10.4373 42.9877 9.87276C48.2936 9.41047 52.3216 11.5133 55.0432 16.1158C55.12 16.245 55.1868 16.3817 55.2531 16.5176L55.2621 16.5358C55.2816 16.575 55.2942 16.6176 55.313 16.6816ZM18.4892 72.2769C19.0703 74.7682 20.7311 76.0368 23.2466 76.383L23.2393 76.3855C23.3386 80.891 27.0815 82.9174 30.6211 81.5181C32.1221 83.8762 34.2575 84.6243 36.9061 83.8979C38.9398 87.5925 43.1282 87.791 45.7042 84.9463C47.3432 86.072 49.113 86.6289 51.0644 85.7791C52.9867 84.9438 53.9091 83.3629 54.1439 81.3438C55.7249 81.4769 57.0637 81.1283 58.1992 80.1381C59.325 79.1551 59.8067 77.8574 59.8963 76.4218C63.1744 76.3758 65.8134 74.054 65.1451 70.1077C67.8034 68.7035 68.1037 68.2532 68.6314 64.9315C68.6557 64.7814 68.7694 64.578 68.8953 64.5223C69.6869 64.1769 70.4874 63.8477 71.2992 63.514C71.5227 63.4221 71.7472 63.3298 71.9725 63.2368C72.0231 63.353 72.0631 63.4443 72.0971 63.5219L72.0972 63.5221C72.1397 63.6189 72.1727 63.6941 72.2049 63.7694C73.2363 66.1711 75.0545 66.9531 77.4949 66.0234C78.8507 65.5077 80.204 64.9872 81.5453 64.44C83.5765 63.612 84.5038 61.6582 83.7266 59.6391C80.7052 51.7877 77.6547 43.9459 74.5848 36.1114C73.8076 34.1237 71.82 33.2618 69.825 33.9833C68.2901 34.5377 66.7697 35.1285 65.2638 35.7531C63.3294 36.5544 62.4844 38.4695 63.155 40.4378C63.2834 40.8116 63.4255 41.1789 63.5709 41.5547L63.5709 41.5548C63.645 41.7462 63.7199 41.9397 63.7942 42.1374C63.574 42.257 63.3589 42.3699 63.1487 42.4803C62.7163 42.7072 62.304 42.9236 61.9082 43.1663C60.8478 43.8127 59.7462 43.8902 58.6011 43.4714L58.247 43.342C57.3445 43.0127 56.4393 42.6823 55.553 42.3141C51.6406 40.6847 47.808 40.6121 44.053 42.8032C43.8206 42.9387 43.363 42.8564 43.0846 42.7208C41.3923 41.9001 39.6177 41.3893 37.7414 41.566C36.0926 41.721 34.4076 41.8977 32.8363 42.3795C30.0376 43.239 27.7788 42.1083 25.4521 40.83C25.5476 40.605 25.6398 40.3891 25.7301 40.1777L25.7302 40.1777C25.8323 39.9387 25.9319 39.7056 26.0308 39.4718C26.9362 37.3195 26.1688 35.3367 24.0382 34.3707C22.6631 33.746 21.2831 33.1335 19.891 32.5452C17.7798 31.6518 15.8067 32.4266 14.8504 34.5159C14.3804 35.5433 13.925 36.5775 13.4696 37.6115L13.4693 37.6122C13.2563 38.096 13.0433 38.5797 12.8288 39.0626C12.1287 40.6419 11.4285 42.2208 10.7283 43.7997L10.7269 43.8029L10.7267 43.8034C8.74931 48.2621 6.77233 52.7199 4.80064 57.1817C3.86127 59.3074 4.48832 61.329 6.43 62.2708C7.97704 63.0213 9.55314 63.7234 11.151 64.3626C12.9474 65.084 14.8698 64.3117 15.7801 62.5928C15.9013 62.3633 16.0117 62.1295 16.1279 61.8834L16.128 61.8833L16.128 61.8832C16.1858 61.7607 16.2451 61.6352 16.3079 61.5057C16.5218 61.5981 16.7332 61.688 16.9424 61.777L16.9444 61.7779L16.9445 61.7779L16.9446 61.7779C17.5348 62.0289 18.1069 62.2722 18.666 62.5419C18.8935 62.6509 19.1671 62.876 19.2179 63.0963C19.2988 63.4425 19.4004 63.7875 19.5018 64.1321C19.9316 65.5925 20.3596 67.0465 19.2058 68.5606C18.4021 69.6162 18.1769 70.9357 18.4892 72.2769ZM42.6124 72.9284L42.5278 72.934C42.4868 72.9368 42.4464 72.9396 42.4067 72.9427L42.4019 72.9379C40.7677 70.0641 39.3949 69.3305 36.5042 69.6235C36.2284 69.3304 35.9735 69.0288 35.7247 68.7345C35.1742 68.0832 34.6536 67.4674 34.0033 67.0572C33.3746 66.6601 32.6147 66.4699 31.7832 66.2618C31.3979 66.1654 30.9973 66.0651 30.5872 65.9386C30.1974 64.457 29.1951 63.0915 27.4108 62.4281C25.6168 61.7599 23.968 62.1425 22.2757 63.3336C22.006 60.6094 19.9691 59.8307 17.8728 59.0294L17.8716 59.0289L17.8704 59.0285C17.7281 58.9741 17.5856 58.9196 17.4433 58.8644L19.5798 54.0382L19.5887 54.018L19.5946 54.0049C21.138 50.5184 22.6752 47.0458 24.2271 43.5416C24.4861 43.6604 24.742 43.7707 24.9936 43.8791L24.9939 43.8792L24.994 43.8792C25.5113 44.1021 26.0104 44.3172 26.4811 44.5826C28.5608 45.752 30.7324 45.7641 32.9937 45.2872C34.6158 44.9458 36.2548 44.6262 37.9011 44.4785C38.5639 44.4184 39.2405 44.5299 39.9175 44.6414H39.9175H39.9175C40.2222 44.6916 40.527 44.7417 40.8306 44.7763C40.8439 44.8211 40.8566 44.8658 40.8693 44.9106C40.8775 44.9394 40.8857 44.9682 40.894 44.9971C40.8986 45.0131 40.9033 45.029 40.9081 45.045C40.5552 45.3753 40.2097 45.7149 39.8641 46.0546L39.864 46.0546C39.0998 46.8056 38.3355 47.5568 37.492 48.2069C35.4849 49.754 33.398 51.2018 31.2941 52.6157C29.7834 53.6325 29.5631 54.6372 30.7082 56.0366C33.3447 59.2542 36.7076 60.3218 40.6829 59.213C42.0257 58.838 43.3345 58.3422 44.6438 57.8462L44.6438 57.8462C45.3128 57.5927 45.9819 57.3393 46.6556 57.1018C47.4255 56.8331 48.2003 56.5765 48.9847 56.3586C50.4204 55.9591 51.7568 56.1358 53.0762 56.9057C56.6352 58.982 60.2271 61.0053 63.8185 63.0283L63.8189 63.0285L63.8195 63.0289L64.3389 63.3215C65.1984 63.8057 65.7819 64.4497 65.7189 65.4714C65.6245 66.9797 64.0169 67.8004 62.6103 67.0305C60.8921 66.0905 59.1874 65.1256 57.4824 64.1606L57.4821 64.1604L57.4818 64.1602C56.6884 63.7112 55.8951 63.2621 55.1002 62.8155L54.9849 62.75C54.7616 62.623 54.5367 62.4951 54.3013 62.3918C53.558 62.0698 52.7881 62.3119 52.4177 62.9705C52.0425 63.6338 52.2168 64.4134 52.8947 64.8807C53.2312 65.1129 53.5925 65.3106 53.9537 65.5083C54.0707 65.5723 54.1876 65.6363 54.3037 65.7014C55.0668 66.1314 55.8302 66.5608 56.5936 66.9902C58.1213 67.8496 59.6491 68.709 61.1746 69.5726C62.0172 70.0472 62.4626 70.7686 62.3174 71.7467C62.1842 72.6449 61.6201 73.2914 60.7364 73.3809C60.1554 73.4415 59.4726 73.2575 58.9497 72.9718C56.4665 71.6168 54.0006 70.2297 51.5343 68.8424C50.6823 68.3631 49.8302 67.8838 48.9774 67.4058C48.9117 67.3689 48.8467 67.3298 48.7818 67.2907L48.7817 67.2907L48.7816 67.2907C48.612 67.1885 48.4421 67.0863 48.2584 67.0233C47.5199 66.7715 46.8759 66.9046 46.4377 67.5971C46.0237 68.2532 46.1956 69.0303 46.8542 69.517C47.0495 69.6615 47.2637 69.7792 47.4778 69.8969L47.4788 69.8975C47.5042 69.9114 47.5296 69.9254 47.555 69.9394C47.5805 69.9535 47.6059 69.9676 47.6313 69.9818C48.3628 70.3949 49.0956 70.8054 49.8284 71.2158C51.7583 72.2969 53.6877 73.3777 55.5917 74.5043C56.1195 74.8166 56.611 75.3831 56.8458 75.9448C57.1533 76.6784 56.8918 77.4459 56.243 77.9809C55.5772 78.5281 54.7879 78.6879 54.0422 78.2521C51.626 76.8358 49.2171 75.4025 46.8542 73.9015C45.6848 73.1606 44.4936 72.7079 43.0991 72.887C42.9363 72.9072 42.7711 72.918 42.6125 72.9284H42.6124ZM33.4784 54.7418C35.19 56.5451 37.2646 57.1357 39.5474 56.5014C41.072 56.077 42.5602 55.5228 44.0485 54.9685L44.0486 54.9685C44.7677 54.7007 45.4869 54.4328 46.2102 54.1796C47.9872 53.5574 49.7885 52.9667 51.6987 53.3565C52.5702 53.5356 53.4612 53.831 54.2311 54.2692C57.0693 55.8917 59.8919 57.5403 62.7145 59.189C64.1922 60.052 65.6698 60.9151 67.1498 61.7745C67.3071 61.8665 67.5662 61.9076 67.726 61.8447C68.545 61.5212 69.3553 61.1775 70.1949 60.8214C70.4424 60.7164 70.6924 60.6103 70.946 60.5034C69.7906 57.5334 68.6445 54.5858 67.4998 51.6419L67.4832 51.5992L67.3941 51.3701C66.5521 49.2045 65.7106 47.0405 64.8667 44.8707C64.6463 44.9874 64.4389 45.0949 64.2409 45.1975C63.8473 45.4014 63.4908 45.5862 63.1429 45.7859C61.5596 46.6938 59.8891 46.8947 58.158 46.3427C57.0884 46.0002 56.037 45.603 54.986 45.2059C54.7667 45.1231 54.5474 45.0402 54.3279 44.9579C52.7034 44.3454 51.0644 43.8539 49.2946 44.0548C46.2997 44.3914 44.099 46.1442 41.9394 48.0423C40.096 49.6633 38.1857 51.2101 36.2769 52.7558L36.2767 52.7559C36.0046 52.9762 35.7326 53.1965 35.4607 53.417C35.045 53.7542 34.589 54.0397 34.1182 54.3344C33.9071 54.4665 33.6931 54.6005 33.4784 54.7418ZM71.2772 36.5304C70.755 36.7306 70.2733 36.9145 69.8152 37.0894L69.8131 37.0902L69.8074 37.0924C69.1772 37.3331 68.5916 37.5567 68.0068 37.7819C67.8258 37.8517 67.6578 37.9155 67.5023 37.9746L67.5023 37.9746C66.4957 38.357 66.012 38.5407 65.876 38.8687C65.7502 39.172 65.9218 39.5988 66.2521 40.4202L66.2522 40.4203C66.3341 40.624 66.4258 40.852 66.5251 41.1084C68.5806 46.4097 70.6427 51.7083 72.7045 57.0063L72.7089 57.0176L72.7133 57.0288C73.4244 58.8561 74.1355 60.6833 74.8463 62.5104C75.2554 63.5636 75.4806 63.6774 76.4442 63.3094C77.2818 62.9891 78.117 62.6627 78.9524 62.3362C79.2977 62.2013 79.643 62.0664 79.9886 61.9318C81.1603 61.4742 81.2596 61.2685 80.8166 60.1281C79.8433 57.6181 78.8665 55.1098 77.8891 52.6002L77.8839 52.5867L77.4077 51.364C77.0009 50.3177 76.5946 49.2714 76.1882 48.2251L76.1862 48.2198C74.8039 44.6603 73.4218 41.1013 72.0209 37.5495C71.917 37.2872 71.722 37.0608 71.5309 36.8391C71.4423 36.7362 71.3546 36.6344 71.2772 36.5304ZM7.39627 59.2462C7.3293 59.1597 7.26492 59.0766 7.19989 59.0072H7.19747C7.25903 58.8586 7.30973 58.7345 7.35398 58.6263L7.35436 58.6254L7.35437 58.6253L7.35439 58.6253L7.35456 58.6249C7.43183 58.4358 7.48943 58.2949 7.55094 58.155C10.8072 50.7974 14.066 43.4375 17.3247 36.0799C17.8186 34.9638 18.0026 34.8936 19.1042 35.3754C19.4726 35.5367 19.8401 35.7001 20.2076 35.8636C21.0258 36.2274 21.8441 36.5913 22.6728 36.9321C23.4499 37.2517 23.6509 37.702 23.2998 38.4889C19.9661 45.9796 16.6468 53.4751 13.3348 60.9755C13.0298 61.6703 12.6158 61.8713 11.9088 61.5469C11.3601 61.2953 10.8059 61.0538 10.2515 60.8122C9.47767 60.475 8.70342 60.1376 7.94315 59.7723C7.72003 59.6641 7.55119 59.4461 7.39627 59.2462ZM31.9163 69.2264C32.8823 69.4952 33.5094 70.3135 33.4948 71.4514V71.4538C33.4901 71.4707 33.4846 71.4954 33.4779 71.5259L33.4779 71.526C33.4538 71.6354 33.4135 71.8188 33.3302 71.9816L32.9202 72.7816C32.041 74.498 31.1622 76.2137 30.2506 77.9131C29.7906 78.7702 28.907 79.1672 28.0548 79.022C27.1057 78.8598 26.3455 78.1891 26.2801 77.2328C26.2438 76.7002 26.4036 76.0901 26.6602 75.6131C27.4001 74.2354 28.1812 72.8796 28.9621 71.524L28.9623 71.5238L28.9632 71.5222L28.9634 71.5219C29.2195 71.0773 29.4755 70.6328 29.7301 70.1876C30.2289 69.3136 31.0109 68.9746 31.9163 69.2264ZM39.6685 74.6836C39.6507 73.5469 38.9996 72.7513 38.027 72.5118C37.0659 72.2769 36.2742 72.6474 35.79 73.5722C35.5826 73.9701 35.3729 74.3671 35.1632 74.7641L35.1632 74.7642C34.5016 76.0168 33.8398 77.2697 33.2479 78.5547C33.0445 78.9953 33.0954 79.6708 33.2769 80.1429C33.5675 80.9007 34.2768 81.2566 35.0927 81.259C35.9038 81.259 36.555 80.9128 36.9424 80.1768C37.797 78.5547 38.6468 76.9278 39.4845 75.2936C39.5739 75.1184 39.6166 74.9184 39.6446 74.787C39.6537 74.7442 39.6613 74.7086 39.6685 74.6836ZM26.3915 65.1518C27.234 65.4569 27.8151 66.2849 27.8054 67.3985H27.803C27.7805 67.4547 27.7553 67.5254 27.7266 67.6059C27.6439 67.8377 27.5319 68.1515 27.372 68.4372C27.1027 68.9183 26.8187 69.3923 26.5347 69.8663L26.5347 69.8664L26.5346 69.8665C26.0428 70.6875 25.5509 71.5085 25.135 72.3665C24.6508 73.3688 23.4741 73.64 22.6026 73.272C21.6245 72.858 20.9611 71.6886 21.3993 70.7468C22.1861 69.057 23.0819 67.4106 24.0334 65.8055C24.4934 65.0308 25.5345 64.8419 26.3915 65.1518ZM44.3072 75.8335C45.2296 76.0804 45.8543 76.9302 45.8373 78.102H45.8349C45.8261 78.1335 45.8174 78.1779 45.8071 78.2308C45.7777 78.381 45.7348 78.6004 45.6364 78.792C44.9173 80.1792 44.1959 81.5689 43.426 82.9295C42.9902 83.7019 42.2639 84.0674 41.3729 83.9754C40.5667 83.8907 39.8937 83.484 39.6612 82.702C39.5232 82.2371 39.5353 81.6149 39.7363 81.1815C40.2335 80.1022 40.7941 79.0512 41.3547 78.0003L41.3548 78.0001L41.3549 77.9999C41.5449 77.6437 41.735 77.2875 41.9225 76.9302C42.4479 75.9303 43.2686 75.555 44.3072 75.8335ZM47.2195 82.4524L47.1059 82.3775L47.1035 82.38C47.5122 81.5297 47.9042 80.7129 48.2961 79.8963L48.2964 79.8958L48.3061 79.8756L48.8564 78.729C48.9998 78.8084 49.148 78.8844 49.297 78.9608C50.1838 79.4156 51.0956 79.8832 51.166 81.1476C51.212 81.966 50.8368 82.6075 50.1226 83.0094C49.0113 83.6348 48.1322 83.0547 47.2195 82.4524ZM69.791 41.973C70.6239 41.9463 71.2558 41.2878 71.2388 40.4574C71.2219 39.6294 70.5706 39.0024 69.7281 39.0024C68.8977 39.0048 68.2367 39.6536 68.227 40.4743C68.2174 41.3241 68.9219 41.9996 69.791 41.973ZM19.5834 40.4985C18.7675 40.5155 18.0678 39.8666 18.0363 39.058C18.0024 38.2203 18.7166 37.4867 19.5616 37.4964C20.375 37.5037 21.0626 38.184 21.0699 38.9902C21.0771 39.7916 20.3992 40.4816 19.5858 40.4985H19.5834Z" fill="#02F37E"/>
</svg>
