<svg width="88" height="88" viewBox="0 0 88 88" fill="none" xmlns="http://www.w3.org/2000/svg">
<g clip-path="url(#clip0_1341_4495)">
<path d="M19.0948 52.7194C19.8023 50.6643 20.5866 50.108 22.7069 50.1057C24.7969 50.1057 26.8869 50.1057 28.9769 50.1057C30.9692 50.1057 31.821 50.7318 32.4308 52.6658H38.1516C38.2772 51.0692 38.2772 49.468 38.5565 47.9133C39.0057 45.4113 39.5596 42.921 40.216 40.4656C40.7629 38.4244 41.6031 36.4648 42.1524 34.4236C42.5038 33.1226 42.697 31.7448 42.7226 30.3972C42.7971 26.7129 42.7389 23.024 42.7505 19.3374C42.7808 9.86485 49.4534 2.03546 58.8073 0.48075C69.2573 -1.25549 79.484 6.4296 80.5383 16.9471C80.8362 19.9099 80.664 22.9193 80.7431 25.9053C80.7524 26.2638 80.8874 26.7106 81.1294 26.9527C83.3614 29.2149 82.4817 32.7828 79.4421 33.6952C79.3071 33.7347 79.1674 33.765 78.9393 33.8255C79.0976 34.3212 79.2396 34.7821 79.3909 35.2382C80.3172 38.0148 81.3575 40.7565 82.1488 43.5703C83.3149 47.7131 83.1659 51.8908 82.0278 56.0336C81.951 56.3129 81.8696 56.5898 81.7904 56.8691C81.7834 56.8947 81.7904 56.925 81.7997 57.0437C82.0069 57.1508 82.2559 57.2764 82.5026 57.4091C85.8541 59.2012 87.7579 61.9964 87.8231 65.7901C87.9324 72.0299 87.8603 78.272 87.8533 84.5141C87.8533 85.5544 87.5089 85.8244 86.2777 85.8244C73.6771 85.8244 61.0788 85.829 48.4783 85.8151C47.78 85.8151 47.2331 85.985 46.6536 86.4039C43.1392 88.9454 38.3284 87.8073 36.1989 83.9275C34.33 80.5202 32.6077 77.0314 30.648 73.68C29.845 72.3091 28.6976 71.0803 27.5083 70.0073C26.0397 68.683 23.6774 69.2044 22.274 70.6474C20.2957 72.6815 19.0133 75.1253 17.6844 77.5644C16.5183 79.7033 15.3709 81.8515 14.1676 83.9694C12.6013 86.7204 9.64317 88.0796 6.56401 87.5257C3.65475 87.0021 1.27149 84.7212 0.882811 81.6909C0.689636 80.1734 0.973579 78.5768 1.17141 77.0338C1.49259 74.5039 1.94178 71.988 2.28624 69.4604C2.35373 68.9693 2.28624 68.4154 2.12332 67.9406C-0.434501 60.4301 5.00465 52.7566 12.9364 52.7194C14.9939 52.7101 17.0513 52.7194 19.0855 52.7194H19.0948ZM52.1253 26.2358C52.237 26.0682 52.3883 25.8285 52.5559 25.6004C53.4775 24.3669 55.0369 23.8642 56.5125 24.318C57.9066 24.7463 58.919 26.0473 58.9958 27.4647C59.033 28.1327 58.8236 28.6493 58.1277 28.7517C57.4341 28.8542 57.071 28.4329 56.9267 27.7766C56.6987 26.7385 56.2215 26.2568 55.4535 26.2451C54.6529 26.2335 54.1245 26.7548 53.9221 27.8208C53.7987 28.4725 53.4193 28.8239 52.7863 28.7587C52.1486 28.6936 51.8367 28.242 51.8437 27.6043C51.8483 27.3181 51.9042 27.0341 51.9368 26.7479C51.1478 28.4771 50.1307 30.0085 48.7343 31.2816C48.59 31.4143 48.5062 31.6866 48.5085 31.8914C48.5318 33.1948 48.4852 34.5098 48.6528 35.7968C49.5023 42.3322 55.0159 47.3873 61.4885 47.6386C68.2729 47.9016 74.3404 43.4214 75.4529 36.7836C76.0743 33.0737 75.8416 29.2219 75.9905 25.5423C75.7392 25.4003 75.6926 25.363 75.6391 25.3444C75.4762 25.2816 75.3109 25.2281 75.148 25.1675C70.819 23.5803 67.5909 20.7362 65.4404 16.6585C65.0238 15.8672 64.7631 14.778 64.1021 14.3917C63.3946 13.9797 62.2961 14.2078 61.3698 14.2055C57.0431 14.1985 53.3984 17.1985 52.6466 21.4646C52.3674 23.0519 52.2859 24.6741 52.1207 26.2288L52.1253 26.2358ZM25.2438 54.8117C25.2438 54.8117 25.2438 54.8024 25.2438 54.7954C21.2383 54.7954 17.2352 54.7884 13.2297 54.8024C12.5361 54.8047 11.8356 54.8559 11.1537 54.9746C6.62685 55.7543 3.22884 60.1438 3.58493 64.7218C3.95964 69.5209 7.84408 73.3216 12.5035 73.4426C15.7782 73.5287 18.4338 72.2766 20.4214 69.6745C21.2988 68.5248 22.3601 67.6636 23.7798 67.3494C26.3842 66.7746 28.4812 67.5636 30.1499 69.6838C32.6449 72.8538 35.9359 74.0873 39.8715 73.1633C44.4239 72.095 47.3983 67.7497 46.9166 63.1136C46.4371 58.496 42.5015 54.8839 37.7815 54.821C33.6038 54.7675 29.4238 54.8094 25.2461 54.8094L25.2438 54.8117ZM56.5125 48.7372C56.5125 50.4083 56.5474 52.0049 56.5032 53.5991C56.4496 55.4867 55.649 57.1577 53.8941 57.7791C52.3162 58.3377 52.2324 59.257 52.3231 60.5464C52.379 61.354 52.3348 62.171 52.3348 62.9832V66.8025C58.9516 68.5411 65.466 68.548 72.02 66.7955C72.02 64.112 72.0293 61.5007 72.0014 58.8917C72.0014 58.6892 71.764 58.3843 71.5638 58.3028C69.1084 57.3044 68.0192 55.731 68.0145 53.1034C68.0122 51.6604 68.0145 50.2174 68.0145 48.7535C62.7592 50.2733 60.4923 49.8986 56.5125 48.7395V48.7372ZM63.7693 12.0689C63.6623 9.22714 63.5249 6.3365 63.4668 3.44354C63.4505 2.61731 63.1921 2.3706 62.3682 2.34966C52.7002 2.08899 44.8824 9.63676 44.8475 19.3118C44.8335 22.9681 44.8452 26.6268 44.8475 30.2832C44.8475 30.5834 44.8754 30.8836 44.8941 31.2072C48.1012 30.0179 50.3355 26.6361 50.4123 22.9565C50.5217 17.7757 54.0291 13.4235 59.0912 12.3947C60.6064 12.0875 62.1983 12.1643 63.7716 12.0666L63.7693 12.0689ZM85.7051 83.6902C85.7447 83.5482 85.7726 83.4947 85.7726 83.4411C85.7726 77.5249 85.8611 71.6039 85.7377 65.69C85.6725 62.5876 84.0015 60.3346 81.1527 59.0592C78.8928 58.0491 76.4979 58.5681 74.1798 58.4564V83.6902H76.1697C76.2419 83.5156 76.3233 83.362 76.3699 83.1991C76.989 80.9787 76.9308 78.7886 76.065 76.6381C75.7974 75.9702 75.795 75.3673 76.5375 75.0206C77.1589 74.732 77.6965 75.0741 78.0317 75.919C78.6764 77.5318 78.951 79.2122 78.8369 80.9415C78.7764 81.8492 78.6321 82.7522 78.5227 83.6855H85.7051V83.6902ZM46.1299 33.0621C45.8436 33.1715 45.3991 33.3065 44.9941 33.5136C44.794 33.616 44.5822 33.8301 44.5147 34.0396C43.6722 36.5951 42.9088 39.1785 42.0197 41.7177C40.8281 45.1297 40.4627 48.6557 40.3486 52.2306C40.3347 52.6961 40.3626 53.0312 40.9375 53.1918C42.7621 53.6946 44.2982 54.7116 45.683 55.9894C45.9088 56.1965 46.2812 56.3431 46.5884 56.3501C48.2106 56.385 49.8351 56.385 51.4597 56.3618C53.2541 56.3362 54.4201 55.1352 54.4318 53.3222C54.4434 51.7279 54.4038 50.1313 54.4481 48.537C54.4643 47.9156 54.2782 47.5618 53.7429 47.2174C50.7242 45.2693 48.4946 42.6161 47.389 39.1995C46.756 37.2421 46.5419 35.1498 46.1299 33.0644V33.0621ZM65.7313 2.81747C65.7313 4.99126 65.7034 7.07429 65.736 9.15732C65.8361 15.4925 69.8741 21.1435 75.8951 23.1357C77.3707 23.6245 78.297 24.1528 77.9595 25.8471C77.9502 25.8937 77.9967 25.9519 78.02 26.0101C78.6833 26.2405 78.6414 25.7936 78.6414 25.37C78.6391 23.3103 78.6554 21.2505 78.6368 19.1931C78.5972 14.7338 77.0425 10.8633 73.9913 7.62123C71.7128 5.20073 68.9408 3.59482 65.7313 2.81747ZM79.7446 56.3501C80.5941 53.7388 80.9712 51.0134 80.8315 48.2019C80.6826 45.2042 79.7237 42.4136 78.7369 39.6277C78.4459 38.8085 78.1597 37.9869 77.8525 37.1118C77.7338 37.2444 77.6732 37.2817 77.6616 37.3306C76.6422 41.6619 74.2101 44.9877 70.5188 47.4385C70.293 47.5874 70.1278 47.9901 70.1208 48.281C70.0836 49.9335 70.0975 51.5859 70.1045 53.2407C70.1138 55.2562 71.2147 56.3501 73.2349 56.3525C75.3482 56.3571 77.4638 56.3525 79.7446 56.3525V56.3501ZM46.4511 71.4108C42.8669 75.1858 38.7288 76.3449 33.7225 74.8879C35.3494 77.8716 36.8598 80.6692 38.4052 83.4481C38.6101 83.8158 38.9429 84.137 39.278 84.407C40.8537 85.6708 42.6248 86.0129 44.4961 85.2309C46.3976 84.4349 47.4868 82.9035 47.6055 80.8693C47.68 79.5846 47.4402 78.2766 47.275 76.9872C47.0422 75.1835 46.7467 73.3867 46.4534 71.4108H46.4511ZM4.19936 71.5807C4.13885 71.6761 4.09463 71.718 4.08765 71.7645C3.78741 73.7708 3.45925 75.7723 3.20323 77.7832C3.04963 78.9818 2.81688 80.22 2.96118 81.4C3.21953 83.4947 4.96974 85.1262 6.96432 85.459C9.16139 85.8267 11.2118 84.9376 12.3034 83.0245C13.7534 80.483 15.1289 77.9019 16.5323 75.3348C16.5788 75.2487 16.5765 75.1369 16.6161 74.9391C11.7495 76.3355 7.6416 75.1462 4.19936 71.5807ZM71.9641 74.9112C65.4288 76.5473 58.905 76.5124 52.3674 74.9065V78.5815C58.4512 80.5086 67.1627 80.2572 72.02 78.5187C72.02 77.462 72.02 76.3914 72.02 75.3208C72.02 75.2091 71.992 75.0974 71.9664 74.9135L71.9641 74.9112ZM52.3767 72.7351C58.9399 74.462 65.4567 74.4713 71.9897 72.7281V69.0042C65.4427 70.6381 58.9283 70.6288 52.3767 68.9949V72.7374V72.7351ZM52.365 83.6622H71.9734V80.8135C65.4171 82.4497 58.9074 82.4217 52.365 80.8042V83.6599V83.6622ZM47.6939 58.4937C47.7102 58.6147 47.7032 58.6752 47.7265 58.7217C49.2673 61.8149 49.479 64.9825 48.2781 68.2362C48.2013 68.4433 48.1757 68.6924 48.2083 68.9088C48.4992 70.9453 48.8437 72.9748 49.102 75.0136C49.4697 77.8879 50.4403 80.7739 48.9833 83.6692H50.1959V58.489H47.6916L47.6939 58.4937ZM77.9455 31.8146C78.4948 31.6866 78.9556 31.6563 79.3397 31.4725C80.0658 31.1234 80.4056 30.2995 80.2101 29.4872C80.0332 28.7564 79.605 28.2304 78.8113 28.1513C78.311 28.1001 77.9036 28.2025 77.9362 28.8867C77.9781 29.7805 77.9455 30.6765 77.9455 31.8169V31.8146ZM21.4222 52.6495H30.1639C29.482 51.9909 22.0878 51.9886 21.4222 52.6495Z" fill="#3454D2"/>
<path d="M25.2973 37.9775C28.3113 38.045 30.918 39.0831 33.1058 41.1288C33.406 41.4105 33.6085 41.8992 33.6481 42.3135C33.6713 42.5532 33.2966 43.0303 33.0685 43.0536C32.6636 43.0932 32.1236 42.9884 31.8304 42.7301C29.8777 40.9939 27.641 40.0769 25.0157 40.149C22.7558 40.2118 20.7729 40.9822 19.0692 42.4648C18.9156 42.5974 18.7713 42.7394 18.613 42.8674C18.1173 43.2631 17.589 43.3306 17.1351 42.8511C16.651 42.3414 16.7395 41.7922 17.2259 41.315C18.8388 39.7301 20.7566 38.6967 22.9746 38.2615C23.738 38.1125 24.5246 38.0706 25.2997 37.9799L25.2973 37.9775Z" fill="#3454D2"/>
<path d="M26.1401 41.5336C27.3201 41.5359 29.1471 42.2295 30.6855 43.6469C31.3256 44.238 31.4093 44.8059 30.9625 45.3063C30.5226 45.7997 29.9524 45.7625 29.2844 45.1969C26.7615 43.065 23.7824 43.0673 21.2293 45.2016C20.5892 45.7369 19.9376 45.7834 19.5466 45.283C19.0415 44.6383 19.3115 44.117 19.8445 43.6236C21.2595 42.3109 23.2122 41.5406 26.1378 41.5312L26.1401 41.5336Z" fill="#3454D2"/>
<path d="M25.4438 45.0267C26.3631 45.0174 27.3708 45.4038 28.239 46.1532C28.7696 46.6117 28.9581 47.1703 28.4787 47.7521C28.0225 48.3037 27.4965 48.2106 26.9473 47.801C25.6742 46.8538 24.8922 46.8561 23.5609 47.8103C23.0046 48.2083 22.4693 48.2851 22.0201 47.7452C21.5384 47.168 21.7292 46.6094 22.2692 46.1532C23.1164 45.4364 24.0869 45.0314 25.4438 45.0244V45.0267Z" fill="#3454D2"/>
<path d="M62.2028 40.0578C60.3851 40.0508 58.8048 39.4364 57.4525 38.2192C56.9335 37.7513 56.731 37.2277 57.1826 36.6202C57.5759 36.0919 58.1996 36.1245 58.8513 36.6644C60.9669 38.417 63.3991 38.4379 65.51 36.718C66.2082 36.1478 66.8716 36.1012 67.2556 36.6365C67.7374 37.3022 67.4325 37.8212 66.8948 38.2913C65.5496 39.469 63.9856 40.0531 62.2028 40.0555V40.0578Z" fill="#3454D2"/>
<path d="M72.5579 27.5526C72.5998 28.2415 72.2879 28.707 71.6013 28.7628C70.9567 28.8164 70.6076 28.4021 70.4795 27.7807C70.2654 26.7543 69.786 26.2585 69.0179 26.2423C68.2196 26.226 67.7076 26.7426 67.4888 27.8109C67.3608 28.4416 66.9908 28.821 66.3484 28.7582C65.7084 28.6977 65.4105 28.2601 65.4035 27.6131C65.3849 25.7977 67.0559 24.1639 68.9574 24.1476C70.8729 24.1313 72.5416 25.7093 72.5579 27.5503V27.5526Z" fill="#3454D2"/>
<path d="M15.3985 66.6419C15.3985 67.261 15.4124 67.7777 15.3938 68.2944C15.3682 69.0206 14.9912 69.4209 14.2487 69.4279C13.4085 69.4348 12.566 69.4325 11.7258 69.4279C10.9485 69.4255 10.5458 69.0275 10.5272 68.2548C10.5156 67.7638 10.5272 67.2703 10.5272 66.6419C9.99192 66.6419 9.48222 66.6536 8.97717 66.6396C8.13232 66.6187 7.76925 66.2696 7.74597 65.4154C7.7227 64.545 7.7227 63.6745 7.74597 62.8064C7.76925 61.9569 8.13465 61.6147 8.98648 61.5938C9.47058 61.5822 9.95701 61.5938 10.5272 61.5938C10.5272 61.0562 10.5202 60.6 10.5272 60.1462C10.5458 59.1454 10.8833 58.8195 11.9074 58.8079C12.6312 58.8009 13.3573 58.7986 14.0812 58.8079C15.0401 58.8219 15.3775 59.1593 15.4008 60.1182C15.4101 60.5767 15.4008 61.0352 15.4008 61.5938C15.9757 61.5938 16.4877 61.5938 17.0021 61.5938C17.7911 61.5891 18.1797 61.9941 18.1867 62.7691C18.1937 63.6396 18.2053 64.51 18.1867 65.3782C18.1658 66.2928 17.819 66.628 16.9136 66.6443C16.4528 66.6536 15.9896 66.6443 15.4008 66.6443L15.3985 66.6419ZM9.85693 64.3867C10.753 64.5589 11.798 64.4565 12.2355 64.9243C12.708 65.4247 12.6102 66.4627 12.8058 67.4961C13.0152 67.2471 13.241 67.0911 13.2899 66.8933C13.362 66.5907 13.3061 66.2603 13.3108 65.9391C13.3201 64.8708 13.632 64.5659 14.7235 64.5519C15.1518 64.5473 15.5823 64.5519 16.0595 64.5519C16.0734 64.3448 16.092 64.2075 16.092 64.0702C16.092 63.9631 16.0664 63.8537 16.0478 63.7211C15.9012 63.7048 15.7895 63.6768 15.6778 63.6838C13.5645 63.8095 13.0408 63.4627 13.3038 61.4099C13.3783 60.8327 13.0664 60.8048 12.7918 60.9282C12.6079 61.8359 12.6964 62.8762 12.2262 63.3114C11.7165 63.7816 10.6855 63.6838 9.85693 63.8374V64.3867Z" fill="#3454D2"/>
<path d="M25.816 56.1942C26.6283 56.1942 27.4405 56.1686 28.2528 56.1989C29.619 56.2501 30.5825 57.2136 30.6011 58.4983C30.6198 59.8296 29.6539 60.8467 28.2481 60.8793C26.5957 60.9165 24.9409 60.9212 23.2884 60.877C21.9455 60.8397 20.9703 59.811 20.9727 58.5379C20.9727 57.2648 21.9478 56.2594 23.2931 56.2012C24.1333 56.164 24.9758 56.1942 25.816 56.1942ZM22.8625 58.4169C23.8284 58.9871 28.1062 58.901 28.4599 58.4169H22.8625Z" fill="#3454D2"/>
<path d="M40.146 60.008C40.153 61.3835 39.0614 62.503 37.6859 62.5309C36.2848 62.5588 35.1025 61.4231 35.0909 60.0382C35.0816 58.6511 36.2476 57.506 37.6533 57.5177C39.0358 57.5293 40.1367 58.6325 40.1437 60.0057L40.146 60.008Z" fill="#3454D2"/>
<path d="M31.0362 64.095C31.0455 62.7195 32.151 61.6071 33.5172 61.5977C34.9043 61.5861 36.0797 62.7614 36.0634 64.1393C36.0471 65.4892 34.909 66.6273 33.5591 66.6389C32.165 66.6529 31.0269 65.5055 31.0362 64.095Z" fill="#3454D2"/>
<path d="M40.1463 68.1797C40.1533 69.5855 39.0128 70.7143 37.6024 70.7003C36.2386 70.6864 35.1144 69.5622 35.1075 68.2053C35.1005 66.8252 36.2828 65.6522 37.6629 65.6731C39.0315 65.6941 40.1393 66.8112 40.1463 68.1774V68.1797Z" fill="#3454D2"/>
<path d="M41.7267 66.6392C40.3652 66.6509 39.2364 65.5477 39.2038 64.1792C39.1712 62.7688 40.2907 61.6074 41.6895 61.5958C43.051 61.5865 44.1845 62.6873 44.217 64.0535C44.252 65.4499 43.1185 66.6276 41.7267 66.6369V66.6392Z" fill="#3454D2"/>
<path d="M82.8218 74.3854C82.8218 76.2124 82.8265 78.0418 82.8218 79.8688C82.8195 80.7834 82.4378 81.2768 81.7652 81.2699C81.0926 81.2629 80.7341 80.7811 80.7341 79.8455C80.7295 76.2194 80.7318 72.5933 80.7341 68.9672C80.7341 68.0199 81.0763 67.5452 81.7442 67.5242C82.4424 67.5009 82.8195 68.006 82.8218 68.9905C82.8265 70.7896 82.8218 72.5886 82.8218 74.3854Z" fill="#3454D2"/>
<path d="M82.821 64.8028C82.821 65.8734 82.2764 66.4855 81.5084 66.2481C80.8311 66.0386 80.7194 65.4987 80.7217 64.868C80.7217 64.2256 80.7613 63.6251 81.4874 63.3854C82.2578 63.1317 82.8187 63.7415 82.821 64.8028Z" fill="#3454D2"/>
</g>
<defs>
<clipPath id="clip0_1341_4495">
<rect width="87.0589" height="87.5244" fill="white" transform="translate(0.829102 0.238281)"/>
</clipPath>
</defs>
</svg>
