<svg width="164" height="164" viewBox="0 0 164 164" fill="none" xmlns="http://www.w3.org/2000/svg">
<g clip-path="url(#clip0_1341_4470)">
<path d="M-0.000466717 133.529V30.4198C0.979161 26.0136 3.86243 23.3228 7.71678 21.2353C13.6159 18.0397 19.3525 14.5575 25.1747 11.2165C31.7198 7.46485 38.2778 3.73884 44.8271 0C58.7045 0 72.5776 0 86.4549 0C93.2738 2.25443 93.2481 7.87552 92.8118 13.6891C93.7444 13.6891 94.3732 13.6891 95.0021 13.6891C114.856 13.6891 134.705 13.6891 154.558 13.6977C155.619 13.6977 156.714 13.6934 157.737 13.9372C161.57 14.857 163.94 18.1081 163.944 22.3646C163.952 47.3387 163.944 72.3128 163.944 97.2869C163.944 103.319 160.68 106.587 154.652 106.587C140.189 106.587 125.73 106.587 111.266 106.587H109.384V128.413C110.09 128.413 110.672 128.413 111.254 128.413C117.709 128.413 124.168 128.404 130.624 128.417C134.354 128.425 136.574 130.641 136.634 134.389C136.656 135.668 136.638 136.951 136.634 138.23C136.626 142.769 134.624 144.788 130.11 144.788C118.372 144.788 106.629 144.788 94.8908 144.788H92.8717C92.8717 148.287 92.876 151.581 92.8717 154.88C92.8631 160.625 89.5692 163.94 83.8625 163.94C72.6546 163.944 61.4466 163.85 50.2429 163.991C46.3928 164.038 43.0732 163.268 39.6894 161.215C29.1616 154.833 18.4585 148.732 7.71678 142.713C3.8881 140.566 0.970606 137.926 -0.0175781 133.52L-0.000466717 133.529ZM87.4303 82.1348C87.4303 57.8579 87.4303 33.5769 87.4303 9.30005C87.4303 6.297 86.6132 5.45854 83.6743 5.45854C71.6151 5.45854 59.5558 5.45854 47.4965 5.45854C44.5919 5.45854 43.7363 6.27989 43.7363 9.13749C43.732 57.6954 43.732 106.253 43.7363 154.811C43.7363 157.665 44.5961 158.494 47.4922 158.494C59.4446 158.494 71.3969 158.494 83.3492 158.494C86.7201 158.494 87.4303 157.771 87.4303 154.332C87.4303 130.265 87.4303 106.202 87.4303 82.1348ZM147.457 90.1172V30.1888H93.0043V90.1172H147.457ZM38.1451 10.0829C37.465 10.4551 36.9645 10.716 36.4768 10.9984C27.3821 16.2473 18.3173 21.539 9.18408 26.7195C6.57887 28.1953 5.41957 30.1802 5.42385 33.1876C5.47946 57.3574 5.45379 81.5273 5.45379 105.697V107.494C7.25905 108.255 8.99586 108.991 10.9123 109.804V107.626C10.9123 84.5774 10.9123 61.5283 10.9123 38.4793C10.9123 37.4141 10.8781 36.3446 10.9252 35.2794C11.015 33.2817 11.8321 31.609 13.6288 30.6722C17.4532 28.6787 21.2904 26.6981 25.2089 24.8885C28.2376 23.494 31.7754 25.2564 32.5583 28.4092C32.785 29.3247 32.7593 30.3171 32.7593 31.2711C32.7679 59.8685 32.7679 88.466 32.7679 117.063C32.7679 117.543 32.7294 118.03 32.7893 118.501C32.8278 118.792 32.9433 119.219 33.1486 119.314C34.7528 120.054 36.3912 120.73 38.1451 121.478V10.0829ZM92.9786 101.128C93.6417 101.128 94.2149 101.128 94.7882 101.128C114.693 101.128 134.598 101.128 154.503 101.128C157.677 101.128 158.494 100.311 158.494 97.1628C158.494 72.454 158.494 47.7494 158.494 23.0405C158.494 19.9433 157.711 19.1562 154.631 19.1562C134.675 19.1562 114.714 19.1562 94.7582 19.1562H93.0086V24.619H95.0277C112.156 24.619 129.289 24.619 146.418 24.619C151.068 24.619 153.035 26.5868 153.035 31.2326C153.035 50.4444 153.035 69.6563 153.035 88.8638C153.035 93.6764 151.046 95.6656 146.238 95.6656C129.161 95.6656 112.084 95.6656 95.0106 95.6656H92.9829V101.133L92.9786 101.128ZM5.45379 113.457C5.45379 119.604 5.48802 125.414 5.43668 131.223C5.41529 133.837 6.50187 135.672 8.7563 136.964C18.1333 142.341 27.489 147.761 36.8575 153.16C37.234 153.378 37.6404 153.536 38.128 153.767C38.1836 153.331 38.235 153.121 38.235 152.916C38.2393 144.814 38.2221 136.707 38.2692 128.605C38.2735 127.566 37.7387 127.249 36.9559 126.915C28.1435 123.155 19.3397 119.378 10.5316 115.609C8.93169 114.924 7.32749 114.253 5.45379 113.461V113.457ZM92.9273 128.318H103.707V106.702H92.9701V114.753C93.8385 114.753 94.6256 114.715 95.4042 114.762C97.2351 114.869 98.3174 115.896 98.326 117.487C98.3345 119.104 97.2779 120.118 95.4341 120.212C94.6128 120.255 93.7872 120.22 92.9273 120.22V128.327V128.318ZM131.094 133.999H92.9744V139.236H131.094V133.999ZM16.5035 54.226V70.9696H27.1938V52.4422C23.5662 53.0454 20.0584 53.6314 16.5035 54.226ZM16.3709 76.5949C16.3709 82.0107 16.3623 87.2297 16.3965 92.4529C16.3965 92.778 16.7259 93.3427 16.9741 93.3898C20.3536 94.0015 23.7459 94.5405 27.1767 95.1052V76.5949H16.3709ZM27.2965 30.0904C26.9329 30.1802 26.719 30.1931 26.5479 30.2786C23.4037 31.84 20.2423 33.3801 17.1409 35.0228C16.7345 35.2409 16.4179 36.011 16.4051 36.5329C16.3324 39.198 16.3709 41.8631 16.3709 44.5282C16.3709 45.88 16.3709 47.2318 16.3709 48.6948C19.8915 48.113 23.1513 47.6168 26.3853 46.9879C26.7618 46.9152 27.2366 46.1409 27.258 45.6746C27.3521 43.5485 27.3008 41.4139 27.3008 39.2792C27.3008 36.2548 27.3008 33.2304 27.3008 30.0904H27.2965ZM27.2922 116.85C27.2922 111.545 27.3051 106.553 27.2666 101.556C27.2666 101.231 26.9543 100.658 26.7104 100.615C23.3309 100.003 19.9343 99.4601 16.3709 98.874C16.3709 103.22 16.358 107.361 16.4008 111.502C16.4008 111.819 16.7516 112.285 17.0553 112.422C20.3493 113.885 23.6689 115.292 27.2922 116.85Z" fill="#02F37E"/>
<path d="M49.2168 68.3087C49.2168 59.2396 56.5747 51.8646 65.5796 51.9074C74.6871 51.9502 82.0065 59.3509 81.9723 68.4755C81.9381 77.3949 74.5032 84.7442 65.5796 84.6929C56.4549 84.6373 49.2211 77.3906 49.2168 68.3087ZM65.6181 79.2129C71.7269 79.1702 76.5779 74.2378 76.5138 68.1461C76.4496 62.1956 71.4231 57.2932 65.4598 57.3574C59.458 57.4216 54.6497 62.3411 54.6839 68.3814C54.7181 74.426 59.5949 79.2557 65.6181 79.2129Z" fill="#02F37E"/>
<path d="M49.217 30.1203C49.1742 21.0384 56.4637 13.6934 65.5113 13.6934C74.6103 13.6934 81.9083 20.9229 81.9682 29.992C82.0281 38.9327 74.713 46.3719 65.8022 46.4318C56.6091 46.4916 49.2598 39.2621 49.217 30.116V30.1203ZM54.6841 30.0476C54.6884 36.1007 59.5223 40.9732 65.5284 40.9818C71.5987 40.9946 76.5353 36.0494 76.514 29.9791C76.4883 23.9773 71.603 19.1519 65.5498 19.1519C59.5052 19.1519 54.6798 23.9902 54.6841 30.0433V30.0476Z" fill="#02F37E"/>
<path d="M65.588 90.207C74.764 90.2626 82.0149 97.582 81.9679 106.745C81.9251 115.72 74.456 123.027 65.404 122.954C56.3649 122.881 49.1268 115.476 49.2166 106.399C49.3065 97.3853 56.6131 90.1557 65.588 90.2113V90.207ZM54.6837 106.484C54.6538 112.537 59.4578 117.457 65.4554 117.504C71.5214 117.555 76.5008 112.632 76.5179 106.57C76.535 100.559 71.6796 95.7041 65.6308 95.6698C59.5819 95.6356 54.718 100.44 54.688 106.484H54.6837Z" fill="#02F37E"/>
<path d="M65.6012 136.652C63.0474 136.652 60.4892 136.677 57.9353 136.643C55.8649 136.617 54.7141 135.612 54.7013 133.91C54.6884 132.198 55.8221 131.197 57.9054 131.189C63.0174 131.168 68.1252 131.168 73.2372 131.189C75.2863 131.197 76.5012 132.228 76.5055 133.88C76.514 135.527 75.2777 136.617 73.2672 136.643C70.7133 136.677 68.1551 136.652 65.6012 136.652Z" fill="#02F37E"/>
<path d="M65.6689 147.577C63.962 147.577 62.2509 147.603 60.544 147.569C58.6575 147.535 57.4169 146.452 57.3741 144.878C57.3313 143.244 58.5976 142.136 60.5953 142.123C63.9577 142.102 67.3201 142.097 70.6825 142.123C72.6118 142.14 73.7412 143.184 73.7283 144.848C73.7155 146.491 72.5648 147.526 70.6312 147.569C68.9756 147.603 67.3244 147.577 65.6689 147.577Z" fill="#02F37E"/>
<path d="M142.456 76.4752C141.751 77.3907 141.331 78.4045 140.6 78.751C139.86 79.1018 138.786 78.9051 137.905 78.7254C137.456 78.6355 137.084 78.0837 136.707 77.7073C124.417 65.4213 112.127 53.131 99.8534 40.8279C99.34 40.3146 98.6556 39.6643 98.6256 39.0526C98.5786 38.1457 98.7839 36.9222 99.3785 36.3747C99.9731 35.8271 101.197 35.7586 102.116 35.8399C102.694 35.8913 103.263 36.5543 103.746 37.0377C116.007 49.2767 128.263 61.5241 140.493 73.7973C141.207 74.516 141.712 75.4485 142.456 76.4795V76.4752Z" fill="#02F37E"/>
<path d="M117.418 35.1859C118.407 35.7977 119.168 36.1014 119.707 36.6361C126.821 43.6988 133.905 50.7872 140.981 57.8842C142.333 59.2403 142.388 60.8402 141.237 61.9909C140.1 63.1288 138.47 63.0647 137.135 61.7385C130.038 54.663 122.962 47.5617 115.865 40.4819C114.886 39.5065 114.428 38.3387 115.117 37.1751C115.596 36.3666 116.593 35.8661 117.414 35.1816L117.418 35.1859Z" fill="#02F37E"/>
<path d="M133.708 35.1816C134.684 35.7592 135.492 36.0757 136.078 36.6233C137.755 38.1847 139.359 39.8274 140.959 41.4744C142.315 42.8689 142.405 44.4175 141.259 45.5854C140.112 46.7532 138.517 46.6976 137.152 45.3715C135.432 43.6988 133.743 41.992 132.057 40.2808C131.185 39.3953 130.872 38.2489 131.497 37.2093C131.967 36.4308 132.879 35.9174 133.708 35.1859V35.1816Z" fill="#02F37E"/>
<path d="M30.039 133.327C30.1203 135.701 28.2081 137.212 26.4414 136.403C22.5357 134.606 18.6985 132.643 14.8869 130.645C13.6763 130.012 13.3768 128.472 13.9372 127.274C14.519 126.034 15.9863 125.289 17.2953 125.909C21.1882 127.749 25.034 129.683 28.8327 131.702C29.4786 132.044 29.7995 132.994 30.039 133.332V133.327Z" fill="#02F37E"/>
<path d="M68.2616 68.4545C68.2616 69.3614 68.3087 70.2683 68.2531 71.1709C68.1547 72.6467 67.3419 73.528 65.866 73.7034C64.4287 73.8745 63.0811 73.0318 62.9656 71.5858C62.7903 69.4212 62.8031 67.2224 62.9656 65.0536C63.064 63.6932 64.3987 62.7906 65.6864 62.8505C67.0681 62.9146 68.1547 63.9584 68.2531 65.4215C68.3215 66.431 68.2659 67.4449 68.2659 68.4587L68.2616 68.4545Z" fill="#02F37E"/>
<path d="M68.2621 30.0646C68.2621 31.0228 68.3091 31.9854 68.2535 32.9436C68.1637 34.4366 67.2739 35.2708 65.8493 35.4932C64.566 35.6943 63.1329 34.8216 63.0217 33.4741C62.8335 31.2068 62.8292 28.901 63.0217 26.638C63.1372 25.2691 64.4975 24.4906 65.8622 24.6531C67.2525 24.82 68.1038 25.6328 68.2321 27.0316C68.3219 28.0369 68.2492 29.055 68.2492 30.0689C68.2535 30.0689 68.2578 30.0689 68.2621 30.0689V30.0646Z" fill="#02F37E"/>
<path d="M68.2665 106.523C68.2665 107.481 68.3135 108.444 68.2536 109.397C68.1595 110.89 67.1243 111.934 65.7425 112.028C64.4592 112.118 63.0817 111.237 62.9833 109.881C62.8165 107.665 62.7865 105.406 63.0047 103.199C63.1459 101.774 64.3223 101.073 65.8067 101.158C67.1585 101.24 68.1381 102.206 68.2451 103.644C68.3135 104.598 68.2579 105.56 68.2579 106.518C68.2579 106.518 68.2622 106.518 68.2665 106.518V106.523Z" fill="#02F37E"/>
</g>
<defs>
<clipPath id="clip0_1341_4470">
<rect width="163.949" height="164" fill="white"/>
</clipPath>
</defs>
</svg>
