<svg width="21" height="27" viewBox="0 0 21 27" fill="none" xmlns="http://www.w3.org/2000/svg">
<path d="M9.29165 26.1455C1.68748 15.208 0.333313 14.0622 0.333313 9.99967C0.333313 4.47884 4.7604 -0.000326633 10.3333 -0.000326633C15.8541 -0.000326633 20.3333 4.47884 20.3333 9.99967C20.3333 14.0622 18.9271 15.208 11.3229 26.1455C10.8541 26.8747 9.7604 26.8747 9.29165 26.1455ZM10.3333 14.1663C12.625 14.1663 14.5 12.3434 14.5 9.99967C14.5 7.70801 12.625 5.83301 10.3333 5.83301C7.98956 5.83301 6.16665 7.70801 6.16665 9.99967C6.16665 12.3434 7.98956 14.1663 10.3333 14.1663Z" fill="white"/>
</svg>
