<svg width="328" height="267" viewBox="0 0 328 267" fill="none" xmlns="http://www.w3.org/2000/svg">
<path d="M254.453 0.0751953C254.453 1.81665 254.477 3.24655 254.453 4.66847C254.134 22.0271 253.768 39.3856 253.537 56.7442C253.513 58.6534 253.943 60.7064 254.716 62.4559C283.678 128.319 236.838 201.748 165.048 202.938C114.433 203.785 71.1683 165.305 65.2356 114.172C59.4065 63.9017 93.6569 16.2196 143.014 5.84275C158.948 2.49565 174.748 2.91104 190.475 7.15283C192.195 7.61615 194.13 7.72799 195.906 7.51231C213.856 5.26759 231.797 2.91104 249.739 0.594435C251.164 0.410704 252.597 0.274903 254.453 0.0751953ZM229.743 73.5596C229.48 72.7368 229.4 72.3374 229.225 71.9859C228.819 71.1551 228.413 70.3164 227.943 69.5255C212 42.565 188.405 30.247 157.324 32.9551C119.371 36.2622 89.7946 74.2226 95.4725 111.927C101.509 152.037 135.711 178.047 175.767 172.982C209.452 168.732 236.4 138.217 236.376 104.37C236.368 98.7627 234.019 96.0227 228.652 95.9988C212.789 95.9109 196.926 95.7272 181.063 96.0627C168.807 96.3183 159.506 106.128 159.816 118.214C176.587 118.214 193.374 118.214 210.384 118.214C210.193 119.301 210.177 119.828 210.009 120.315C202.89 141.316 178.96 154.865 156.95 150.367C133.736 145.622 116.918 124.773 118.447 102.246C119.753 82.9698 129.157 68.7347 146.749 60.9301C164.371 53.1096 180.999 56.0732 196.241 67.8879C199.53 70.4442 203.304 72.641 207.19 74.0868C214.541 76.8188 222.082 77.3141 229.743 73.5596Z" fill="#3454D2"/>
<path d="M14.4151 245.305C14.0284 244.596 13.4966 244.056 12.8198 243.685C12.143 243.315 11.3534 243.13 10.451 243.13C9.45193 243.13 8.56565 243.355 7.79216 243.806C7.01868 244.258 6.41439 244.902 5.97931 245.74C5.54422 246.578 5.32668 247.545 5.32668 248.641C5.32668 249.769 5.54422 250.752 5.97931 251.59C6.43051 252.427 7.0509 253.072 7.8405 253.523C8.6301 253.974 9.54861 254.2 10.596 254.2C11.8852 254.2 12.9407 253.862 13.7625 253.185C14.5843 252.492 15.1241 251.533 15.382 250.308H9.58084V247.722H18.7176V250.671C18.492 251.847 18.0086 252.935 17.2673 253.934C16.5261 254.933 15.5673 255.739 14.3909 256.351C13.2307 256.948 11.9255 257.246 10.4752 257.246C8.84764 257.246 7.37319 256.883 6.05182 256.158C4.74657 255.417 3.71525 254.393 2.95788 253.088C2.21663 251.783 1.846 250.3 1.846 248.641C1.846 246.981 2.21663 245.498 2.95788 244.193C3.71525 242.872 4.74657 241.848 6.05182 241.123C7.37319 240.382 8.83959 240.011 10.451 240.011C12.3525 240.011 14.0042 240.479 15.4061 241.413C16.8081 242.332 17.7749 243.629 18.3067 245.305H14.4151ZM29.923 257.101L26.2006 250.526H24.6052V257.101H21.2213V240.229H27.5542C28.8594 240.229 29.9713 240.463 30.8898 240.93C31.8083 241.381 32.4932 242.002 32.9444 242.791C33.4117 243.565 33.6453 244.435 33.6453 245.402C33.6453 246.514 33.3231 247.521 32.6785 248.423C32.0339 249.309 31.0751 249.922 29.8021 250.26L33.8387 257.101H29.923ZM24.6052 247.988H27.4333C28.3518 247.988 29.0367 247.77 29.4879 247.335C29.9391 246.884 30.1647 246.264 30.1647 245.474C30.1647 244.701 29.9391 244.104 29.4879 243.685C29.0367 243.25 28.3518 243.033 27.4333 243.033H24.6052V247.988ZM40.09 240.229V257.101H36.706V240.229H40.09ZM54.9148 240.229V242.96H50.419V257.101H47.035V242.96H42.5391V240.229H54.9148ZM62.3217 248.641C62.3217 246.981 62.6923 245.498 63.4336 244.193C64.1909 242.872 65.2142 241.848 66.5033 241.123C67.8086 240.382 69.2669 240.011 70.8784 240.011C72.7637 240.011 74.4154 240.495 75.8335 241.462C77.2515 242.429 78.2426 243.766 78.8066 245.474H74.915C74.5282 244.668 73.9803 244.064 73.2713 243.661C72.5784 243.258 71.7727 243.057 70.8542 243.057C69.8712 243.057 68.993 243.291 68.2195 243.758C67.4621 244.209 66.8659 244.854 66.4308 245.692C66.0118 246.53 65.8024 247.513 65.8024 248.641C65.8024 249.752 66.0118 250.735 66.4308 251.59C66.8659 252.427 67.4621 253.08 68.2195 253.547C68.993 253.999 69.8712 254.224 70.8542 254.224C71.7727 254.224 72.5784 254.023 73.2713 253.62C73.9803 253.201 74.5282 252.589 74.915 251.783H78.8066C78.2426 253.507 77.2515 254.853 75.8335 255.82C74.4315 256.77 72.7798 257.246 70.8784 257.246C69.2669 257.246 67.8086 256.883 66.5033 256.158C65.2142 255.417 64.1909 254.393 63.4336 253.088C62.6923 251.783 62.3217 250.3 62.3217 248.641ZM89.5285 257.27C87.9493 257.27 86.499 256.899 85.1776 256.158C83.8562 255.417 82.8088 254.393 82.0353 253.088C81.2618 251.767 80.8751 250.276 80.8751 248.616C80.8751 246.973 81.2618 245.498 82.0353 244.193C82.8088 242.872 83.8562 241.84 85.1776 241.099C86.499 240.358 87.9493 239.987 89.5285 239.987C91.1238 239.987 92.5741 240.358 93.8793 241.099C95.2007 241.84 96.2401 242.872 96.9974 244.193C97.7709 245.498 98.1576 246.973 98.1576 248.616C98.1576 250.276 97.7709 251.767 96.9974 253.088C96.2401 254.393 95.2007 255.417 93.8793 256.158C92.5579 256.899 91.1077 257.27 89.5285 257.27ZM89.5285 254.248C90.5437 254.248 91.438 254.023 92.2115 253.572C92.985 253.104 93.5893 252.444 94.0243 251.59C94.4594 250.735 94.677 249.744 94.677 248.616C94.677 247.488 94.4594 246.505 94.0243 245.668C93.5893 244.813 92.985 244.161 92.2115 243.71C91.438 243.258 90.5437 243.033 89.5285 243.033C88.5133 243.033 87.6109 243.258 86.8213 243.71C86.0478 244.161 85.4435 244.813 85.0084 245.668C84.5733 246.505 84.3558 247.488 84.3558 248.616C84.3558 249.744 84.5733 250.735 85.0084 251.59C85.4435 252.444 86.0478 253.104 86.8213 253.572C87.6109 254.023 88.5133 254.248 89.5285 254.248ZM115.106 257.101H111.722L104.059 245.522V257.101H100.675V240.205H104.059L111.722 251.807V240.205H115.106V257.101ZM124.275 257.27C123.099 257.27 122.035 257.068 121.084 256.666C120.15 256.263 119.409 255.683 118.861 254.925C118.313 254.168 118.031 253.273 118.015 252.242H121.64C121.689 252.935 121.93 253.483 122.365 253.886C122.817 254.289 123.429 254.49 124.203 254.49C124.992 254.49 125.613 254.305 126.064 253.934C126.515 253.547 126.741 253.048 126.741 252.436C126.741 251.936 126.587 251.525 126.281 251.203C125.975 250.88 125.588 250.631 125.121 250.453C124.67 250.26 124.041 250.051 123.236 249.825C122.14 249.503 121.246 249.188 120.553 248.882C119.876 248.56 119.288 248.085 118.788 247.456C118.305 246.812 118.063 245.958 118.063 244.894C118.063 243.895 118.313 243.025 118.812 242.284C119.312 241.542 120.013 240.978 120.915 240.592C121.818 240.189 122.849 239.987 124.009 239.987C125.749 239.987 127.159 240.414 128.239 241.268C129.335 242.106 129.939 243.283 130.052 244.797H126.33C126.297 244.217 126.048 243.742 125.58 243.371C125.129 242.984 124.525 242.791 123.767 242.791C123.107 242.791 122.575 242.96 122.172 243.299C121.785 243.637 121.592 244.129 121.592 244.773C121.592 245.224 121.737 245.603 122.027 245.909C122.333 246.199 122.704 246.441 123.139 246.634C123.59 246.812 124.219 247.021 125.024 247.263C126.12 247.585 127.014 247.907 127.707 248.23C128.4 248.552 128.996 249.035 129.496 249.68C129.996 250.325 130.245 251.171 130.245 252.218C130.245 253.12 130.012 253.958 129.544 254.732C129.077 255.505 128.392 256.126 127.49 256.593C126.587 257.044 125.516 257.27 124.275 257.27ZM136.515 240.229V250.671C136.515 251.815 136.813 252.693 137.409 253.306C138.005 253.902 138.843 254.2 139.923 254.2C141.019 254.2 141.865 253.902 142.461 253.306C143.057 252.693 143.355 251.815 143.355 250.671V240.229H146.763V250.647C146.763 252.081 146.449 253.298 145.821 254.297C145.208 255.28 144.379 256.021 143.331 256.52C142.3 257.02 141.148 257.27 139.875 257.27C138.618 257.27 137.474 257.02 136.442 256.52C135.427 256.021 134.621 255.28 134.025 254.297C133.429 253.298 133.131 252.081 133.131 250.647V240.229H136.515ZM153.417 254.418H158.976V257.101H150.033V240.229H153.417V254.418ZM172.609 240.229V242.96H168.113V257.101H164.729V242.96H160.233V240.229H172.609ZM185.423 253.886H178.704L177.592 257.101H174.038L180.105 240.205H184.045L190.112 257.101H186.535L185.423 253.886ZM184.505 251.179L182.063 244.121L179.622 251.179H184.505ZM206.811 257.101H203.427L195.764 245.522V257.101H192.38V240.205H195.764L203.427 251.807V240.205H206.811V257.101ZM221.636 240.229V242.96H217.14V257.101H213.756V242.96H209.26V240.229H221.636ZM229.043 248.641C229.043 246.981 229.414 245.498 230.155 244.193C230.912 242.872 231.935 241.848 233.225 241.123C234.53 240.382 235.988 240.011 237.6 240.011C239.485 240.011 241.137 240.495 242.555 241.462C243.973 242.429 244.964 243.766 245.528 245.474H241.636C241.249 244.668 240.702 244.064 239.993 243.661C239.3 243.258 238.494 243.057 237.575 243.057C236.592 243.057 235.714 243.291 234.941 243.758C234.183 244.209 233.587 244.854 233.152 245.692C232.733 246.53 232.524 247.513 232.524 248.641C232.524 249.752 232.733 250.735 233.152 251.59C233.587 252.427 234.183 253.08 234.941 253.547C235.714 253.999 236.592 254.224 237.575 254.224C238.494 254.224 239.3 254.023 239.993 253.62C240.702 253.201 241.249 252.589 241.636 251.783H245.528C244.964 253.507 243.973 254.853 242.555 255.82C241.153 256.77 239.501 257.246 237.6 257.246C235.988 257.246 234.53 256.883 233.225 256.158C231.935 255.417 230.912 254.393 230.155 253.088C229.414 251.783 229.043 250.3 229.043 248.641ZM256.25 257.27C254.67 257.27 253.22 256.899 251.899 256.158C250.577 255.417 249.53 254.393 248.757 253.088C247.983 251.767 247.596 250.276 247.596 248.616C247.596 246.973 247.983 245.498 248.757 244.193C249.53 242.872 250.577 241.84 251.899 241.099C253.22 240.358 254.67 239.987 256.25 239.987C257.845 239.987 259.295 240.358 260.601 241.099C261.922 241.84 262.961 242.872 263.719 244.193C264.492 245.498 264.879 246.973 264.879 248.616C264.879 250.276 264.492 251.767 263.719 253.088C262.961 254.393 261.922 255.417 260.601 256.158C259.279 256.899 257.829 257.27 256.25 257.27ZM256.25 254.248C257.265 254.248 258.159 254.023 258.933 253.572C259.706 253.104 260.31 252.444 260.746 251.59C261.181 250.735 261.398 249.744 261.398 248.616C261.398 247.488 261.181 246.505 260.746 245.668C260.31 244.813 259.706 244.161 258.933 243.71C258.159 243.258 257.265 243.033 256.25 243.033C255.234 243.033 254.332 243.258 253.542 243.71C252.769 244.161 252.165 244.813 251.73 245.668C251.295 246.505 251.077 247.488 251.077 248.616C251.077 249.744 251.295 250.735 251.73 251.59C252.165 252.444 252.769 253.104 253.542 253.572C254.332 254.023 255.234 254.248 256.25 254.248ZM268.895 257.27C268.283 257.27 267.775 257.084 267.372 256.714C266.986 256.327 266.792 255.852 266.792 255.288C266.792 254.724 266.986 254.256 267.372 253.886C267.775 253.499 268.283 253.306 268.895 253.306C269.491 253.306 269.983 253.499 270.37 253.886C270.756 254.256 270.95 254.724 270.95 255.288C270.95 255.852 270.756 256.327 270.37 256.714C269.983 257.084 269.491 257.27 268.895 257.27ZM277.374 253.547L274.546 260.34H272.37L273.941 253.547H277.374ZM283.197 254.418H288.756V257.101H279.813V240.229H283.197V254.418ZM302.388 240.229V242.96H297.892V257.101H294.508V242.96H290.013V240.229H302.388ZM310.755 240.229C312.528 240.229 314.083 240.575 315.42 241.268C316.774 241.961 317.813 242.952 318.538 244.241C319.28 245.514 319.65 246.997 319.65 248.689C319.65 250.381 319.28 251.863 318.538 253.136C317.813 254.393 316.774 255.368 315.42 256.061C314.083 256.754 312.528 257.101 310.755 257.101H304.857V240.229H310.755ZM310.634 254.224C312.407 254.224 313.777 253.741 314.743 252.774C315.71 251.807 316.194 250.445 316.194 248.689C316.194 246.932 315.71 245.563 314.743 244.58C313.777 243.581 312.407 243.081 310.634 243.081H308.241V254.224H310.634ZM323.682 257.27C323.07 257.27 322.562 257.084 322.159 256.714C321.772 256.327 321.579 255.852 321.579 255.288C321.579 254.724 321.772 254.256 322.159 253.886C322.562 253.499 323.07 253.306 323.682 253.306C324.278 253.306 324.77 253.499 325.156 253.886C325.543 254.256 325.737 254.724 325.737 255.288C325.737 255.852 325.543 256.327 325.156 256.714C324.77 257.084 324.278 257.27 323.682 257.27Z" fill="#3454D2"/>
</svg>
