<svg width="77" height="104" viewBox="0 0 77 104" fill="none" xmlns="http://www.w3.org/2000/svg">
<g clip-path="url(#clip0_1341_4467)">
<path d="M42.2228 0.445312C42.9925 1.02396 43.154 1.81254 43.1432 2.73569C43.1083 5.9546 43.1298 9.17619 43.1298 12.4651H47.6621C47.6621 11.0709 47.6756 9.70371 47.6567 8.33648C47.646 7.56674 47.8532 6.94234 48.6095 6.61668C49.3361 6.30448 49.896 6.6113 50.4235 7.09844C56.8075 12.998 63.1914 18.8975 69.5943 24.7782C70.2456 25.3757 70.3344 26.0728 70.3317 26.8667C70.3236 34.2169 70.3425 41.5698 70.3075 48.92C70.3048 49.7678 70.5497 50.3599 71.158 50.9359C72.6678 52.3677 74.1508 53.8318 75.5611 55.3578C75.9756 55.8073 76.3201 56.5097 76.3308 57.1045C76.3927 60.4257 76.3739 63.7496 76.3174 67.0708C76.2582 70.6449 75.2408 73.9634 73.2653 76.9347C69.8849 82.0161 66.7683 87.3235 62.925 92.0334C55.992 100.533 46.7497 104.36 35.7823 103.413C25.6653 102.541 17.8065 97.61 12.0899 89.264C9.41739 85.3615 6.84711 81.3917 4.223 77.4542C1.90571 73.9769 0.807617 70.1443 0.815691 65.9673C0.83184 56.9377 0.829148 47.908 0.807617 38.8784C0.807617 37.9714 1.07676 37.2878 1.73615 36.658C3.24064 35.2208 4.67246 33.7082 6.16887 32.263C6.66409 31.7839 6.90362 31.2968 6.87671 30.5943C6.82827 29.254 6.77982 27.9029 6.90093 26.5707C6.95745 25.9355 7.25081 25.1685 7.70297 24.7486C13.982 18.8841 20.3095 13.0706 26.6208 7.23839C27.186 6.71357 27.7565 6.26411 28.5828 6.61937C29.4414 6.98809 29.5517 7.72015 29.5356 8.54103C29.5113 9.84097 29.5302 11.1409 29.5302 12.4866H34.006C34.0248 12.1071 34.0598 11.7519 34.0598 11.3966C34.0652 8.50873 34.084 5.62355 34.049 2.73569C34.0383 1.81523 34.1971 1.02396 34.9695 0.445313H36.1779C36.9423 1.02127 37.1145 1.80716 37.0984 2.73031C37.058 5.10681 37.0849 7.486 37.0849 9.8625C37.0849 10.7211 37.0849 11.5823 37.0849 12.4489H40.1047C40.1047 9.15466 40.1262 5.94114 40.0912 2.72761C40.0804 1.80716 40.2419 1.01858 41.0117 0.445313H42.2201L42.2228 0.445312ZM50.6818 11.4531V12.8069C50.6818 21.6723 50.698 30.5351 50.663 39.4005C50.6576 40.5632 50.5204 41.7555 50.2351 42.8805C48.8006 48.5271 43.0571 52.4619 37.3702 51.7675C31.2957 51.0274 26.6046 46.016 26.5131 40.1703C26.4943 38.978 27.0083 38.2917 27.9476 38.2486C28.9031 38.2056 29.3902 38.8569 29.5598 40.0249C29.732 41.2065 29.915 42.4418 30.3995 43.5157C31.6644 46.3174 33.9037 47.9861 37.0822 48.6697C37.0822 47.9457 37.0392 47.3482 37.093 46.7588C37.1684 45.9595 36.91 45.545 36.116 45.1924C33.8203 44.1751 32.6172 42.3046 32.5661 39.7989C32.5042 36.7118 32.5149 33.6194 32.5661 30.5324C32.6011 28.4035 33.4811 26.5168 35.392 25.6395C37.0284 24.8886 37.2626 23.8443 37.0876 22.3667C37.0553 22.103 37.0822 21.8311 37.0822 21.562C37.0822 19.5919 37.0822 17.6218 37.0822 15.6275H29.5275V16.7982C29.5275 22.1702 29.5275 27.5423 29.5275 32.9143C29.5275 33.2507 29.5598 33.5952 29.4925 33.9182C29.3283 34.7014 28.8277 35.1643 28.0149 35.1616C27.2021 35.1616 26.6988 34.6987 26.54 33.9128C26.4754 33.5898 26.5077 33.2426 26.5077 32.9089C26.5077 26.1939 26.5077 19.4788 26.5077 12.7638V11.6173C26.3059 11.7169 26.209 11.7411 26.1444 11.8003C20.8612 16.669 15.5807 21.5405 10.3136 26.4253C10.0956 26.6272 9.92606 26.9851 9.90991 27.2785C9.85878 28.2501 9.85878 29.2271 9.9126 30.1987C9.92606 30.449 10.1602 30.8123 10.3863 30.9092C14.5337 32.6855 15.9306 34.766 15.9306 39.2552C15.9306 44.4927 15.9171 49.7301 15.9548 54.9676C15.9575 55.4224 16.1862 56.063 16.5281 56.2971C21.6928 59.8013 26.8872 63.2598 32.1005 66.6913C32.3992 66.8877 32.9886 66.8824 33.3331 66.729C34.7111 66.1153 36.0649 65.4452 37.3864 64.7158C38.2476 64.2394 39.0039 64.2771 39.849 64.7319C41.1758 65.4479 42.5538 66.0669 43.8834 66.7801C44.3678 67.0412 44.7123 66.9954 45.1537 66.6994C50.2808 63.2624 55.416 59.8363 60.5646 56.4263C61.0679 56.0926 61.2859 55.7292 61.2698 55.1183C61.2294 53.5734 61.2563 52.0286 61.2563 50.4837C61.2563 46.487 61.2536 42.493 61.259 38.4962C61.2644 35.4146 62.4782 32.8335 65.3096 31.6332C67.1639 30.8473 67.565 29.83 67.3039 28.1317C67.2824 27.9998 67.3416 27.8491 67.2931 27.7307C67.0859 27.2058 66.9836 26.5545 66.6095 26.1912C64.6852 24.318 62.6881 22.5201 60.7154 20.6981C57.4372 17.6729 54.1564 14.6505 50.6818 11.445V11.4531ZM61.259 59.6156C60.7288 59.952 60.4193 60.1404 60.1152 60.3423C55.3972 63.4858 50.6684 66.6159 45.9692 69.7891C45.116 70.365 44.3732 70.4592 43.4608 69.9586C42.0801 69.2023 40.6645 68.5026 39.23 67.854C38.872 67.6925 38.3176 67.6925 37.9596 67.854C36.5251 68.5026 35.1121 69.205 33.7287 69.9586C32.8164 70.4538 32.0735 70.3596 31.2177 69.781C26.5212 66.6052 21.7924 63.4751 17.0744 60.3315C16.7514 60.1162 16.4123 59.9251 16.0086 59.6775C15.9736 59.9978 15.9333 60.1943 15.9333 60.388C15.9306 69.8564 15.9252 79.3247 15.9521 88.793C15.9521 89.2129 16.162 89.7135 16.4365 90.0418C21.1142 95.6534 27.0299 99.1791 34.2886 100.194C44.8146 101.666 53.567 98.229 60.5539 90.2706C60.9657 89.7996 61.2267 89.0272 61.2294 88.3947C61.2725 79.2278 61.259 70.0636 61.259 60.8967V59.6129V59.6156ZM40.1127 48.6186C40.4734 48.5674 40.6402 48.5594 40.799 48.5163C44.863 47.472 47.6406 43.9221 47.654 39.6589C47.6756 31.8727 47.6621 24.0892 47.6594 16.303C47.6594 16.0796 47.6298 15.8535 47.6137 15.6328H40.11C40.11 18.5611 40.0939 21.4113 40.137 24.2615C40.1397 24.5171 40.4761 24.8805 40.7452 24.9989C43.3612 26.1616 44.6397 28.164 44.6397 31.0115C44.6397 33.7971 44.637 36.5827 44.6397 39.3682C44.6424 42.2157 43.3666 44.2235 40.7506 45.3835C40.4949 45.4966 40.1639 45.7899 40.1423 46.0214C40.067 46.8449 40.1127 47.6793 40.1127 48.6159V48.6186ZM12.6632 84.0858C12.7439 84.0669 12.8274 84.0481 12.9081 84.0292V83.1384C12.9081 68.3707 12.9081 53.603 12.9054 38.8354C12.9054 38.3671 12.8812 37.8934 12.8139 37.4304C12.5825 35.8425 11.3633 34.4403 9.88838 34.1335C9.88838 34.4834 9.88838 34.8144 9.88838 35.1428C9.88838 47.2244 9.86685 59.3088 9.90991 71.3905C9.91799 73.3256 10.1225 75.2768 10.4159 77.1931C10.7846 79.6019 11.5597 81.9084 12.6605 84.0858H12.6632ZM67.3012 34.0447C65.1965 34.8225 64.2841 36.3324 64.2841 38.8354C64.2815 53.603 64.2841 68.3707 64.2841 83.1384C64.2841 83.4479 64.3191 83.7574 64.3407 84.0642C64.7067 83.7117 64.8951 83.3349 65.0593 82.9473C66.6472 79.2197 67.3093 75.3172 67.3066 71.2774C67.2958 59.263 67.3012 47.246 67.3039 35.2316V34.042L67.3012 34.0447ZM41.6172 35.2397C41.6172 33.7998 41.6253 32.3599 41.6172 30.92C41.6011 28.9929 40.32 27.6257 38.5652 27.6472C36.8481 27.6661 35.5885 29.0145 35.5804 30.885C35.567 33.7648 35.567 36.6446 35.5804 39.5243C35.5885 41.3868 36.8642 42.7379 38.5813 42.7486C40.3011 42.7594 41.5957 41.411 41.6172 39.5593C41.6334 38.1194 41.6199 36.6795 41.6199 35.2397H41.6172ZM6.88209 75.9416V54.6688L6.57258 54.6069C5.80015 55.3955 5.0035 56.1599 4.27413 56.9888C4.03729 57.2579 3.86773 57.6859 3.86235 58.0438C3.83274 60.859 3.77084 63.6769 3.88119 66.4894C3.94309 68.0477 4.20416 69.6195 4.56749 71.1402C5.0035 72.9568 5.86744 74.6094 6.88209 75.9416ZM70.2294 76.0896C71.9277 73.6539 73.0689 70.9948 73.225 68.0262C73.3811 65.0172 73.3003 61.9948 73.3541 58.9777C73.3703 58.0169 73.3595 57.1476 72.4741 56.4747C71.7581 55.9338 71.1687 55.2259 70.5255 54.5908C70.4286 54.6392 70.329 54.685 70.2321 54.7334V76.0896H70.2294ZM3.92425 53.1051C4.80972 52.1874 5.46642 51.4418 6.1931 50.7744C6.70984 50.3007 6.88209 49.7839 6.87671 49.0949C6.8498 45.1009 6.86595 41.1069 6.86056 37.1129C6.86056 36.7953 6.82288 36.4777 6.7852 35.8291C5.90243 36.7441 5.24573 37.4897 4.51636 38.1571C3.99961 38.6308 3.82736 39.1449 3.83274 39.8366C3.85966 43.8306 3.84351 47.8246 3.84889 51.8186C3.84889 52.1362 3.88657 52.4538 3.92694 53.1078L3.92425 53.1051Z" fill="#02F37E"/>
</g>
<defs>
<clipPath id="clip0_1341_4467">
<rect width="75.5636" height="103.11" fill="white" transform="translate(0.807617 0.445312)"/>
</clipPath>
</defs>
</svg>
