<svg width="147" height="144" viewBox="0 0 147 144" fill="none" xmlns="http://www.w3.org/2000/svg">
<g clip-path="url(#clip0_1341_4484)">
<path d="M146.245 106.777V112.765C145.461 116.513 144.49 120.197 144.972 124.136C145.386 127.509 145.549 130.959 145.374 134.352C145.135 138.995 141.16 143.093 136.685 143.837C131.512 144.697 126.619 142.182 124.562 137.643C123.273 134.79 121.948 131.957 120.631 129.117C119.846 127.422 118.525 126.622 116.668 126.718C116.537 126.726 116.414 126.801 116.219 126.869C116.115 128.989 115.968 131.03 117.11 133.051C118.853 136.147 120.337 139.389 121.924 142.572C122.147 143.022 122.346 143.483 122.565 143.965H0.371094C2.27285 140.157 4.05524 136.497 5.93312 132.884C6.58958 131.623 6.8641 130.37 6.8641 128.95C6.84023 87.9545 6.84421 46.9554 6.84421 5.96035C6.84421 3.25891 7.39723 2.59847 10.0907 2.35975C17.5147 1.70329 24.9427 1.06672 32.3707 0.477894C34.9607 0.271009 37.6661 -0.297925 40.1487 0.183481C64.3105 4.8742 88.4405 9.74396 112.574 14.5819C115.944 15.2582 116.143 15.5487 116.143 19.0339C116.143 42.8814 116.143 66.7289 116.143 90.5764C116.143 91.1851 116.143 91.7938 116.143 92.6929C118.817 92.0763 121.307 91.5551 123.766 90.9145C126.308 90.2501 128.823 89.7886 131.492 90.1507C138.92 91.1612 144.785 96.8625 145.859 104.263C145.978 105.102 146.118 105.938 146.245 106.773V106.777ZM41.6765 129.069H71.452C71.5794 127.474 71.7027 125.966 71.8221 124.458C72.0568 121.418 71.9255 118.438 71.2014 115.426C70.1312 110.974 70.3699 106.423 71.4361 102.011C73.2504 94.5191 81.3786 89.1282 89.4789 90.0989C93.3699 90.5644 97.1695 91.758 101.053 92.3428C104.351 92.8402 107.713 92.9436 111.122 93.2301V61.7318C87.967 58.6444 64.8635 55.565 41.6765 52.4697V129.061V129.069ZM111.11 19.3363C87.9153 14.7012 64.8397 10.0861 41.7123 5.46303V47.4607C64.8635 50.5481 87.9392 53.6275 111.11 56.7188V19.3363ZM141.451 109.208C141.077 107.032 140.993 104.493 140.178 102.218C138.216 96.7511 131.496 93.7672 125.863 95.4899C114.962 98.8199 104.017 98.8398 93.0198 95.7763C90.8754 95.1796 88.5201 95.0244 86.2841 95.1278C81.6809 95.3427 77.1533 99.1104 76.2383 103.328C75.4266 107.064 75.3033 110.831 76.0353 114.635C76.4969 117.038 76.8987 119.497 76.8987 121.931C76.8987 125.246 76.5406 128.568 76.2581 131.878C75.9637 135.319 77.6904 138.084 80.734 138.88C83.8572 139.7 86.6263 138.06 88.1023 134.818C89.9086 130.851 91.8581 126.944 93.8593 123.073C94.1895 122.437 95.1006 121.697 95.7531 121.693C104.395 121.613 113.04 121.645 121.681 121.709C122.147 121.709 122.835 122.154 123.038 122.58C125.015 126.678 126.953 130.8 128.819 134.953C130.192 138.009 132.845 139.576 135.853 138.948C138.805 138.331 140.727 135.709 140.572 132.407C140.456 129.988 140.253 127.573 140.086 125.158C139.851 121.744 139.649 118.367 140.667 114.989C141.192 113.246 141.184 111.344 141.455 109.208H141.451ZM21.6206 129.065V53.5877C18.3184 53.8622 15.1196 54.1288 11.8492 54.4033V129.065H21.6206ZM26.8245 53.166V129.041H36.5322V52.3384C33.234 52.6209 30.0472 52.8914 26.8245 53.166ZM21.6246 48.5906V6.37412C18.7878 6.59692 16.0546 6.87542 13.3173 7.00671C12.1118 7.06241 11.7339 7.42844 11.7418 8.68566C11.7935 21.7433 11.7736 34.8009 11.7776 47.8625C11.7776 48.3559 11.8214 48.8492 11.8492 49.4142C15.1992 49.1357 18.3621 48.8691 21.6285 48.5946L21.6246 48.5906ZM26.7887 48.153C29.6175 47.9222 32.2553 47.6198 34.901 47.5244C36.2259 47.4766 36.6595 47.1185 36.6556 45.7261C36.5999 32.7201 36.6237 19.7142 36.6198 6.70832C36.6198 6.20702 36.572 5.70572 36.5442 5.12087C33.1863 5.40335 29.9955 5.67389 26.7887 5.94444V48.149V48.153ZM40.0095 138.991C39.2496 137.46 38.621 136.087 37.8849 134.774C37.7059 134.456 37.1688 134.161 36.7948 134.161C28.4438 134.126 20.0928 134.13 11.7378 134.154C11.3678 134.154 10.8069 134.309 10.6596 134.575C9.88781 135.964 9.21941 137.412 8.43563 138.995H40.0055L40.0095 138.991ZM71.1218 134.237H43.2162C43.8647 135.53 44.5053 136.636 44.9787 137.81C45.3766 138.8 45.9614 139.099 47.0197 139.095C55.1399 139.051 63.2562 139.071 71.3765 139.071H72.8087C72.2159 137.368 71.6748 135.817 71.1258 134.241L71.1218 134.237ZM114.564 138.987C113.78 137.42 113.147 136.051 112.403 134.742C112.224 134.432 111.679 134.161 111.301 134.158C105.755 134.122 100.209 134.122 94.6669 134.158C94.2969 134.158 93.7479 134.452 93.5848 134.766C92.8965 136.099 92.3196 137.492 91.6472 138.983H114.56L114.564 138.987ZM96.4096 129.168C98.9598 129.168 101.367 129.168 103.778 129.168C106.189 129.168 108.664 129.168 111.082 129.168V126.698C107.104 126.698 103.229 126.698 99.3537 126.698C97.8604 126.698 96.8777 127.521 96.4056 129.168H96.4096Z" fill="#02F37E"/>
<path d="M128.62 99.3604C134.023 99.3843 138.491 103.844 138.523 109.247C138.551 114.65 133.928 119.269 128.541 119.213C123.138 119.158 118.678 114.698 118.638 109.307C118.598 103.884 123.162 99.3366 128.62 99.3604ZM133.514 109.235C133.498 106.494 131.222 104.254 128.505 104.31C125.815 104.365 123.663 106.554 123.651 109.243C123.639 112.02 125.815 114.212 128.58 114.208C131.349 114.208 133.526 112.008 133.51 109.235H133.514Z" fill="#02F37E"/>
<path d="M98.4262 109.235C98.4541 114.706 93.9265 119.257 88.4997 119.217C83.0769 119.178 78.6647 114.749 78.6368 109.319C78.609 103.832 83.0809 99.3405 88.5594 99.3604C93.9861 99.3763 98.3984 103.8 98.4262 109.239V109.235ZM88.5952 114.212C91.3205 114.185 93.5564 111.889 93.4968 109.176C93.4411 106.526 91.1812 104.31 88.5355 104.306C85.8261 104.306 83.5464 106.597 83.5663 109.303C83.5862 112.032 85.846 114.236 88.5952 114.208V114.212Z" fill="#02F37E"/>
<path d="M111.038 104.282C111.237 103.829 111.364 103.423 111.579 103.069C112.156 102.11 113.111 101.573 114.106 101.983C114.87 102.297 115.749 103.061 115.964 103.805C116.278 104.899 116.163 106.164 116.011 107.326C115.836 108.651 114.786 109.247 113.557 109.267C110.33 109.327 107.099 109.343 103.869 109.267C102.238 109.232 101.35 108.261 101.255 106.642C101.203 105.746 101.199 104.827 101.335 103.944C101.51 102.814 102.198 102.058 103.395 101.911C104.637 101.76 105.448 102.329 106.045 103.407C106.26 103.793 106.781 104.207 107.191 104.242C108.46 104.35 109.745 104.282 111.034 104.282H111.038Z" fill="#02F37E"/>
</g>
<defs>
<clipPath id="clip0_1341_4484">
<rect width="145.874" height="144" fill="white" transform="translate(0.371094)"/>
</clipPath>
</defs>
</svg>
