<svg width="29" height="29" viewBox="0 0 29 29" fill="none" xmlns="http://www.w3.org/2000/svg">
<path d="M27.513 20.6299C27.9505 20.8486 28.2786 21.3408 28.2786 21.8877C28.2786 21.9424 28.2786 22.0518 28.2786 22.1611L26.9661 27.8486C26.8021 28.4502 26.3099 28.833 25.7083 28.833C11.6536 28.833 0.333313 17.5127 0.333313 3.45801C0.333313 2.85645 0.716125 2.36426 1.31769 2.2002L7.00519 0.887695C7.11456 0.887695 7.22394 0.833008 7.27863 0.833008C7.8255 0.833008 8.31769 1.16113 8.53644 1.65332L11.1614 7.77832C11.2161 7.94238 11.2708 8.10645 11.2708 8.27051C11.2708 8.70801 11.0521 9.09082 10.7786 9.30957L7.44269 12.0439C9.46613 16.3096 12.8568 19.7002 17.1224 21.7236L19.8568 18.3877C20.0755 18.1143 20.4583 17.8955 20.8411 17.8955C21.0599 17.8955 21.2239 17.9502 21.388 18.0049L27.513 20.6299Z" fill="white"/>
</svg>
