<svg width="88" height="88" viewBox="0 0 88 88" fill="none" xmlns="http://www.w3.org/2000/svg">
<g clip-path="url(#clip0_1341_4495)">
<path d="M19.2139 52.7194C19.9214 50.6643 20.7058 50.108 22.826 50.1057C24.916 50.1057 27.0061 50.1057 29.0961 50.1057C31.0883 50.1057 31.9402 50.7318 32.5499 52.6658H38.2707C38.3964 51.0692 38.3964 49.468 38.6757 47.9133C39.1249 45.4113 39.6788 42.921 40.3351 40.4656C40.882 38.4244 41.7222 36.4648 42.2715 34.4236C42.6229 33.1226 42.8161 31.7448 42.8417 30.3972C42.9162 26.7129 42.858 23.024 42.8697 19.3374C42.8999 9.86485 49.5726 2.03546 58.9264 0.48075C69.3765 -1.25549 79.6031 6.4296 80.6574 16.9471C80.9553 19.9099 80.7831 22.9193 80.8622 25.9053C80.8715 26.2638 81.0065 26.7106 81.2486 26.9527C83.4806 29.2149 82.6008 32.7828 79.5612 33.6952C79.4262 33.7347 79.2866 33.765 79.0585 33.8255C79.2168 34.3212 79.3587 34.7821 79.51 35.2382C80.4363 38.0148 81.4767 40.7565 82.268 43.5703C83.434 47.7131 83.2851 51.8908 82.147 56.0336C82.0702 56.3129 81.9887 56.5898 81.9096 56.8691C81.9026 56.8947 81.9096 56.925 81.9189 57.0437C82.126 57.1508 82.375 57.2764 82.6217 57.4091C85.9732 59.2012 87.877 61.9964 87.9422 65.7901C88.0516 72.0299 87.9794 78.272 87.9725 84.5141C87.9725 85.5544 87.628 85.8244 86.3968 85.8244C73.7962 85.8244 61.198 85.829 48.5974 85.8151C47.8992 85.8151 47.3522 85.985 46.7727 86.4039C43.2583 88.9454 38.4476 87.8073 36.318 83.9275C34.4491 80.5202 32.7268 77.0314 30.7671 73.68C29.9642 72.3091 28.8168 71.0803 27.6275 70.0073C26.1589 68.683 23.7966 69.2044 22.3931 70.6474C20.4148 72.6815 19.1324 75.1253 17.8035 77.5644C16.6375 79.7033 15.4901 81.8515 14.2868 83.9694C12.7204 86.7204 9.76231 88.0796 6.68315 87.5257C3.77389 87.0021 1.39063 84.7212 1.00195 81.6909C0.808776 80.1734 1.09272 78.5768 1.29055 77.0338C1.61173 74.5039 2.06092 71.988 2.40538 69.4604C2.47287 68.9693 2.40538 68.4154 2.24246 67.9406C-0.315361 60.4301 5.12379 52.7566 13.0556 52.7194C15.113 52.7101 17.1704 52.7194 19.2046 52.7194H19.2139ZM52.2444 26.2358C52.3562 26.0682 52.5074 25.8285 52.675 25.6004C53.5967 24.3669 55.156 23.8642 56.6316 24.318C58.0257 24.7463 59.0381 26.0473 59.1149 27.4647C59.1522 28.1327 58.9427 28.6493 58.2468 28.7517C57.5533 28.8542 57.1902 28.4329 57.0459 27.7766C56.8178 26.7385 56.3407 26.2568 55.5726 26.2451C54.772 26.2335 54.2437 26.7548 54.0412 27.8208C53.9178 28.4725 53.5385 28.8239 52.9054 28.7587C52.2677 28.6936 51.9558 28.242 51.9628 27.6043C51.9675 27.3181 52.0233 27.0341 52.0559 26.7479C51.2669 28.4771 50.2499 30.0085 48.8534 31.2816C48.7091 31.4143 48.6253 31.6866 48.6277 31.8914C48.6509 33.1948 48.6044 34.5098 48.772 35.7968C49.6215 42.3322 55.1351 47.3873 61.6076 47.6386C68.392 47.9016 74.4595 43.4214 75.572 36.7836C76.1935 33.0737 75.9607 29.2219 76.1097 25.5423C75.8583 25.4003 75.8118 25.363 75.7582 25.3444C75.5953 25.2816 75.4301 25.2281 75.2672 25.1675C70.9382 23.5803 67.7101 20.7362 65.5595 16.6585C65.1429 15.8672 64.8823 14.778 64.2213 14.3917C63.5137 13.9797 62.4152 14.2078 61.4889 14.2055C57.1623 14.1985 53.5175 17.1985 52.7658 21.4646C52.4865 23.0519 52.405 24.6741 52.2398 26.2288L52.2444 26.2358ZM25.3629 54.8117C25.3629 54.8117 25.3629 54.8024 25.3629 54.7954C21.3574 54.7954 17.3543 54.7884 13.3488 54.8024C12.6553 54.8047 11.9547 54.8559 11.2728 54.9746C6.74599 55.7543 3.34798 60.1438 3.70407 64.7218C4.07878 69.5209 7.96322 73.3216 12.6227 73.4426C15.8973 73.5287 18.5529 72.2766 20.5405 69.6745C21.418 68.5248 22.4793 67.6636 23.899 67.3494C26.5033 66.7746 28.6003 67.5636 30.2691 69.6838C32.7641 72.8538 36.055 74.0873 39.9907 73.1633C44.5431 72.095 47.5175 67.7497 47.0357 63.1136C46.5563 58.496 42.6206 54.8839 37.9006 54.821C33.7229 54.7675 29.5429 54.8094 25.3652 54.8094L25.3629 54.8117ZM56.6316 48.7372C56.6316 50.4083 56.6665 52.0049 56.6223 53.5991C56.5688 55.4867 55.7681 57.1577 54.0133 57.7791C52.4353 58.3377 52.3515 59.257 52.4423 60.5464C52.4981 61.354 52.4539 62.171 52.4539 62.9832V66.8025C59.0707 68.5411 65.5851 68.548 72.1391 66.7955C72.1391 64.112 72.1484 61.5007 72.1205 58.8917C72.1205 58.6892 71.8831 58.3843 71.6829 58.3028C69.2275 57.3044 68.1383 55.731 68.1337 53.1034C68.1313 51.6604 68.1337 50.2174 68.1337 48.7535C62.8784 50.2733 60.6115 49.8986 56.6316 48.7395V48.7372ZM63.8885 12.0689C63.7814 9.22714 63.6441 6.3365 63.5859 3.44354C63.5696 2.61731 63.3113 2.3706 62.4874 2.34966C52.8193 2.08899 45.0016 9.63676 44.9666 19.3118C44.9527 22.9681 44.9643 26.6268 44.9666 30.2832C44.9666 30.5834 44.9946 30.8836 45.0132 31.2072C48.2204 30.0179 50.4547 26.6361 50.5315 22.9565C50.6409 17.7757 54.1483 13.4235 59.2104 12.3947C60.7255 12.0875 62.3175 12.1643 63.8908 12.0666L63.8885 12.0689ZM85.8243 83.6902C85.8638 83.5482 85.8918 83.4947 85.8918 83.4411C85.8918 77.5249 85.9802 71.6039 85.8568 65.69C85.7917 62.5876 84.1206 60.3346 81.2719 59.0592C79.0119 58.0491 76.617 58.5681 74.2989 58.4564V83.6902H76.2889C76.361 83.5156 76.4425 83.362 76.489 83.1991C77.1081 80.9787 77.0499 78.7886 76.1841 76.6381C75.9165 75.9702 75.9142 75.3673 76.6566 75.0206C77.278 74.732 77.8157 75.0741 78.1508 75.919C78.7955 77.5318 79.0701 79.2122 78.9561 80.9415C78.8956 81.8492 78.7513 82.7522 78.6419 83.6855H85.8243V83.6902ZM46.249 33.0621C45.9628 33.1715 45.5182 33.3065 45.1133 33.5136C44.9131 33.616 44.7013 33.8301 44.6338 34.0396C43.7913 36.5951 43.0279 39.1785 42.1388 41.7177C40.9472 45.1297 40.5818 48.6557 40.4678 52.2306C40.4538 52.6961 40.4817 53.0312 41.0566 53.1918C42.8813 53.6946 44.4174 54.7116 45.8022 55.9894C46.0279 56.1965 46.4003 56.3431 46.7075 56.3501C48.3297 56.385 49.9543 56.385 51.5788 56.3618C53.3732 56.3362 54.5393 55.1352 54.5509 53.3222C54.5625 51.7279 54.523 50.1313 54.5672 48.537C54.5835 47.9156 54.3973 47.5618 53.862 47.2174C50.8433 45.2693 48.6137 42.6161 47.5082 39.1995C46.8751 37.2421 46.661 35.1498 46.249 33.0644V33.0621ZM65.8505 2.81747C65.8505 4.99126 65.8225 7.07429 65.8551 9.15732C65.9552 15.4925 69.9932 21.1435 76.0142 23.1357C77.4898 23.6245 78.4161 24.1528 78.0787 25.8471C78.0693 25.8937 78.1159 25.9519 78.1392 26.0101C78.8025 26.2405 78.7606 25.7936 78.7606 25.37C78.7583 23.3103 78.7745 21.2505 78.7559 19.1931C78.7164 14.7338 77.1617 10.8633 74.1104 7.62123C71.8319 5.20073 69.06 3.59482 65.8505 2.81747ZM79.8638 56.3501C80.7133 53.7388 81.0903 51.0134 80.9507 48.2019C80.8017 45.2042 79.8428 42.4136 78.856 39.6277C78.5651 38.8085 78.2788 37.9869 77.9716 37.1118C77.8529 37.2444 77.7924 37.2817 77.7807 37.3306C76.7613 41.6619 74.3292 44.9877 70.6379 47.4385C70.4122 47.5874 70.2469 47.9901 70.24 48.281C70.2027 49.9335 70.2167 51.5859 70.2237 53.2407C70.233 55.2562 71.3338 56.3501 73.354 56.3525C75.4673 56.3571 77.5829 56.3525 79.8638 56.3525V56.3501ZM46.5702 71.4108C42.986 75.1858 38.8479 76.3449 33.8416 74.8879C35.4685 77.8716 36.979 80.6692 38.5244 83.4481C38.7292 83.8158 39.062 84.137 39.3972 84.407C40.9728 85.6708 42.744 86.0129 44.6152 85.2309C46.5167 84.4349 47.6059 82.9035 47.7246 80.8693C47.7991 79.5846 47.5594 78.2766 47.3941 76.9872C47.1614 75.1835 46.8658 73.3867 46.5726 71.4108H46.5702ZM4.3185 71.5807C4.25799 71.6761 4.21377 71.718 4.20679 71.7645C3.90655 73.7708 3.57839 75.7723 3.32237 77.7832C3.16877 78.9818 2.93603 80.22 3.08032 81.4C3.33867 83.4947 5.08888 85.1262 7.08346 85.459C9.28053 85.8267 11.331 84.9376 12.4225 83.0245C13.8725 80.483 15.248 77.9019 16.6514 75.3348C16.698 75.2487 16.6956 75.1369 16.7352 74.9391C11.8686 76.3355 7.76074 75.1462 4.3185 71.5807ZM72.0833 74.9112C65.5479 76.5473 59.0242 76.5124 52.4865 74.9065V78.5815C58.5703 80.5086 67.2818 80.2572 72.1391 78.5187C72.1391 77.462 72.1391 76.3914 72.1391 75.3208C72.1391 75.2091 72.1112 75.0974 72.0856 74.9135L72.0833 74.9112ZM52.4958 72.7351C59.0591 74.462 65.5758 74.4713 72.1089 72.7281V69.0042C65.5619 70.6381 59.0475 70.6288 52.4958 68.9949V72.7374V72.7351ZM52.4842 83.6622H72.0926V80.8135C65.5363 82.4497 59.0265 82.4217 52.4842 80.8042V83.6599V83.6622ZM47.8131 58.4937C47.8294 58.6147 47.8224 58.6752 47.8456 58.7217C49.3864 61.8149 49.5982 64.9825 48.3972 68.2362C48.3204 68.4433 48.2948 68.6924 48.3274 68.9088C48.6183 70.9453 48.9628 72.9748 49.2211 75.0136C49.5889 77.8879 50.5594 80.7739 49.1024 83.6692H50.315V58.489H47.8107L47.8131 58.4937ZM78.0647 31.8146C78.614 31.6866 79.0748 31.6563 79.4588 31.4725C80.185 31.1234 80.5248 30.2995 80.3293 29.4872C80.1524 28.7564 79.7241 28.2304 78.9305 28.1513C78.4301 28.1001 78.0228 28.2025 78.0554 28.8867C78.0973 29.7805 78.0647 30.6765 78.0647 31.8169V31.8146ZM21.5413 52.6495H30.283C29.6011 51.9909 22.2069 51.9886 21.5413 52.6495Z" fill="#02F37E"/>
<path d="M25.4165 37.9775C28.4305 38.045 31.0372 39.0831 33.2249 41.1288C33.5252 41.4105 33.7276 41.8992 33.7672 42.3135C33.7905 42.5532 33.4158 43.0303 33.1877 43.0536C32.7827 43.0932 32.2428 42.9884 31.9495 42.7301C29.9968 40.9939 27.7602 40.0769 25.1349 40.149C22.875 40.2118 20.892 40.9822 19.1883 42.4648C19.0347 42.5974 18.8904 42.7394 18.7322 42.8674C18.2364 43.2631 17.7081 43.3306 17.2543 42.8511C16.7702 42.3414 16.8586 41.7922 17.345 41.315C18.9579 39.7301 20.8757 38.6967 23.0937 38.2615C23.8571 38.1125 24.6438 38.0706 25.4188 37.9799L25.4165 37.9775Z" fill="#02F37E"/>
<path d="M26.2592 41.5336C27.4392 41.5359 29.2662 42.2295 30.8047 43.6469C31.4447 44.238 31.5285 44.8059 31.0816 45.3063C30.6417 45.7997 30.0715 45.7625 29.4036 45.1969C26.8807 43.065 23.9016 43.0673 21.3484 45.2016C20.7084 45.7369 20.0567 45.7834 19.6657 45.283C19.1607 44.6383 19.4306 44.117 19.9636 43.6236C21.3787 42.3109 23.3314 41.5406 26.2569 41.5312L26.2592 41.5336Z" fill="#02F37E"/>
<path d="M25.5629 45.0267C26.4822 45.0174 27.49 45.4038 28.3581 46.1532C28.8888 46.6117 29.0773 47.1703 28.5978 47.7521C28.1417 48.3037 27.6157 48.2106 27.0664 47.801C25.7933 46.8538 25.0113 46.8561 23.68 47.8103C23.1238 48.2083 22.5885 48.2851 22.1393 47.7452C21.6575 47.168 21.8484 46.6094 22.3883 46.1532C23.2355 45.4364 24.206 45.0314 25.5629 45.0244V45.0267Z" fill="#02F37E"/>
<path d="M62.3219 40.0578C60.5042 40.0508 58.9239 39.4364 57.5717 38.2192C57.0527 37.7513 56.8502 37.2277 57.3017 36.6202C57.695 36.0919 58.3188 36.1245 58.9705 36.6644C61.0861 38.417 63.5182 38.4379 65.6292 36.718C66.3274 36.1478 66.9907 36.1012 67.3747 36.6365C67.8565 37.3022 67.5516 37.8212 67.014 38.2913C65.6687 39.469 64.1047 40.0531 62.3219 40.0555V40.0578Z" fill="#02F37E"/>
<path d="M72.6771 27.5526C72.719 28.2415 72.4071 28.707 71.7205 28.7628C71.0758 28.8164 70.7267 28.4021 70.5987 27.7807C70.3846 26.7543 69.9051 26.2585 69.1371 26.2423C68.3388 26.226 67.8267 26.7426 67.608 27.8109C67.48 28.4416 67.1099 28.821 66.4675 28.7582C65.8275 28.6977 65.5296 28.2601 65.5226 27.6131C65.504 25.7977 67.1751 24.1639 69.0766 24.1476C70.992 24.1313 72.6608 25.7093 72.6771 27.5503V27.5526Z" fill="#02F37E"/>
<path d="M15.5176 66.6419C15.5176 67.261 15.5316 67.7777 15.513 68.2944C15.4874 69.0206 15.1103 69.4209 14.3679 69.4279C13.5277 69.4348 12.6852 69.4325 11.845 69.4279C11.0676 69.4255 10.665 69.0275 10.6464 68.2548C10.6347 67.7638 10.6464 67.2703 10.6464 66.6419C10.1111 66.6419 9.60136 66.6536 9.09631 66.6396C8.25146 66.6187 7.88839 66.2696 7.86511 65.4154C7.84184 64.545 7.84184 63.6745 7.86511 62.8064C7.88839 61.9569 8.25379 61.6147 9.10562 61.5938C9.58972 61.5822 10.0761 61.5938 10.6464 61.5938C10.6464 61.0562 10.6394 60.6 10.6464 60.1462C10.665 59.1454 11.0025 58.8195 12.0265 58.8079C12.7503 58.8009 13.4765 58.7986 14.2003 58.8079C15.1592 58.8219 15.4967 59.1593 15.5199 60.1182C15.5293 60.5767 15.5199 61.0352 15.5199 61.5938C16.0948 61.5938 16.6068 61.5938 17.1212 61.5938C17.9102 61.5891 18.2989 61.9941 18.3059 62.7691C18.3128 63.6396 18.3245 64.51 18.3059 65.3782C18.2849 66.2928 17.9381 66.628 17.0328 66.6443C16.5719 66.6536 16.1088 66.6443 15.5199 66.6443L15.5176 66.6419ZM9.97607 64.3867C10.8721 64.5589 11.9171 64.4565 12.3547 64.9243C12.8271 65.4247 12.7294 66.4627 12.9249 67.4961C13.1344 67.2471 13.3601 67.0911 13.409 66.8933C13.4811 66.5907 13.4253 66.2603 13.4299 65.9391C13.4392 64.8708 13.7511 64.5659 14.8427 64.5519C15.2709 64.5473 15.7015 64.5519 16.1786 64.5519C16.1926 64.3448 16.2112 64.2075 16.2112 64.0702C16.2112 63.9631 16.1856 63.8537 16.167 63.7211C16.0203 63.7048 15.9086 63.6768 15.7969 63.6838C13.6836 63.8095 13.16 63.4627 13.423 61.4099C13.4974 60.8327 13.1856 60.8048 12.9109 60.9282C12.7271 61.8359 12.8155 62.8762 12.3454 63.3114C11.8357 63.7816 10.8046 63.6838 9.97607 63.8374V64.3867Z" fill="#02F37E"/>
<path d="M25.9351 56.1942C26.7474 56.1942 27.5597 56.1686 28.3719 56.1989C29.7381 56.2501 30.7017 57.2136 30.7203 58.4983C30.7389 59.8296 29.773 60.8467 28.3673 60.8793C26.7148 60.9165 25.06 60.9212 23.4076 60.877C22.0647 60.8397 21.0895 59.811 21.0918 58.5379C21.0918 57.2648 22.067 56.2594 23.4122 56.2012C24.2524 56.164 25.0949 56.1942 25.9351 56.1942ZM22.9817 58.4169C23.9475 58.9871 28.2253 58.901 28.5791 58.4169H22.9817Z" fill="#02F37E"/>
<path d="M40.2651 60.008C40.2721 61.3835 39.1806 62.503 37.8051 62.5309C36.404 62.5588 35.2217 61.4231 35.21 60.0382C35.2007 58.6511 36.3667 57.506 37.7725 57.5177C39.155 57.5293 40.2558 58.6325 40.2628 60.0057L40.2651 60.008Z" fill="#02F37E"/>
<path d="M31.1553 64.095C31.1646 62.7195 32.2702 61.6071 33.6363 61.5977C35.0235 61.5861 36.1988 62.7614 36.1825 64.1393C36.1662 65.4892 35.0281 66.6273 33.6782 66.6389C32.2841 66.6529 31.146 65.5055 31.1553 64.095Z" fill="#02F37E"/>
<path d="M40.2654 68.1797C40.2724 69.5855 39.132 70.7143 37.7216 70.7003C36.3577 70.6864 35.2336 69.5622 35.2266 68.2053C35.2196 66.8252 36.4019 65.6522 37.7821 65.6731C39.1506 65.6941 40.2584 66.8112 40.2654 68.1774V68.1797Z" fill="#02F37E"/>
<path d="M41.8459 66.6392C40.4843 66.6509 39.3555 65.5477 39.323 64.1792C39.2904 62.7688 40.4099 61.6074 41.8086 61.5958C43.1702 61.5865 44.3036 62.6873 44.3362 64.0535C44.3711 65.4499 43.2377 66.6276 41.8459 66.6369V66.6392Z" fill="#02F37E"/>
<path d="M82.941 74.3854C82.941 76.2124 82.9456 78.0418 82.941 79.8688C82.9386 80.7834 82.5569 81.2768 81.8843 81.2699C81.2117 81.2629 80.8533 80.7811 80.8533 79.8455C80.8486 76.2194 80.8509 72.5933 80.8533 68.9672C80.8533 68.0199 81.1954 67.5452 81.8634 67.5242C82.5616 67.5009 82.9386 68.006 82.941 68.9905C82.9456 70.7896 82.941 72.5886 82.941 74.3854Z" fill="#02F37E"/>
<path d="M82.9402 64.8028C82.9402 65.8734 82.3956 66.4855 81.6275 66.2481C80.9502 66.0386 80.8385 65.4987 80.8409 64.868C80.8409 64.2256 80.8804 63.6251 81.6066 63.3854C82.3769 63.1317 82.9379 63.7415 82.9402 64.8028Z" fill="#02F37E"/>
</g>
<defs>
<clipPath id="clip0_1341_4495">
<rect width="87.0589" height="87.5244" fill="white" transform="translate(0.948242 0.238281)"/>
</clipPath>
</defs>
</svg>
