<svg width="88" height="88" viewBox="0 0 88 88" fill="none" xmlns="http://www.w3.org/2000/svg">
<g clip-path="url(#clip0_1321_4209)">
<path d="M87.6095 31.5236L80.1375 24.0516C79.5957 23.5324 78.7605 23.5324 78.2413 24.0516C78.2187 24.0765 78.2007 24.1035 78.1781 24.1306C76.7966 25.449 74.5866 25.4309 73.2299 24.0742C71.8529 22.6972 71.8529 20.4398 73.2299 19.0628C73.7491 18.521 73.7491 17.6858 73.2299 17.1666L65.7579 9.69459C65.2161 9.17539 64.3809 9.17539 63.8617 9.69459L41.9875 31.5688C41.7392 31.8171 41.6038 32.1557 41.6038 32.5169C41.6038 32.878 41.7392 33.2167 41.9875 33.465L48.613 40.0904C47.9764 41.0792 47.631 42.2304 47.631 43.4427C47.631 43.5239 47.6333 43.6052 47.6378 43.6865C45.7348 43.6413 44.1772 42.0814 44.1772 40.1469C44.1772 39.4019 43.5903 38.815 42.8454 38.815H33.59V14.0965C33.59 13.3516 33.0031 12.7646 32.2582 12.7646H22.8561C22.2399 9.98805 19.7477 7.88867 16.795 7.88867C13.8423 7.88867 11.3457 9.97451 10.7317 12.7646H1.33186C0.586923 12.7646 0 13.3516 0 14.0965V24.6837C0 25.4286 0.586923 26.0156 1.33186 26.0156C3.27322 26.0156 4.87597 27.5957 4.87597 29.5597C4.87597 31.5236 3.2958 33.1038 1.33186 33.1038C0.586923 33.1038 0 33.6907 0 34.4356V55.61C0 55.61 0 55.6168 0 55.6213C0 55.6258 0 55.6281 0 55.6326C0 56.3775 0.586923 56.9645 1.33186 56.9645C3.27322 56.9645 4.87597 58.5446 4.87597 60.5086C4.87597 62.4725 3.2958 64.0527 1.33186 64.0527C0.586923 64.0527 0 64.6396 0 65.3845V75.9717C0 76.7167 0.586923 77.3036 1.33186 77.3036H11.8965C11.8965 77.3036 11.9032 77.3036 11.9078 77.3036C11.9123 77.3036 11.9145 77.3036 11.919 77.3036C12.664 77.3036 13.2509 76.7167 13.2509 75.9717C13.2509 74.0304 14.8311 72.4276 16.795 72.4276C18.7589 72.4276 20.3391 74.0078 20.3391 75.9717C20.3391 76.7167 20.926 77.3036 21.671 77.3036H32.2582C32.9805 77.3036 33.59 76.6941 33.59 75.9492V72.405H41.6534C42.2562 75.1929 44.7416 77.3036 47.7213 77.3036C50.7011 77.3036 53.1865 75.1929 53.7892 72.405H63.1845C63.9294 72.405 64.5163 71.8181 64.5163 71.0732V60.486C64.5163 60.486 64.5163 60.4792 64.5163 60.4747C64.5163 60.4702 64.5163 60.4679 64.5163 60.4634C64.5163 59.7185 63.9294 59.1316 63.1845 59.1316C61.2431 59.1316 59.6404 57.5514 59.6404 55.5874C59.6404 54.4091 60.2386 53.3188 61.1867 52.6641L63.8617 55.3391C64.1326 55.5874 64.4712 55.7229 64.8098 55.7229C65.1484 55.7229 65.487 55.5874 65.8031 55.3391L73.275 47.8672C73.7942 47.3254 73.7942 46.4901 73.275 45.9709C73.2479 45.9461 73.2163 45.9258 73.1892 45.9032C71.8551 44.5217 71.8687 42.3004 73.2299 40.9369C74.6069 39.5599 76.8643 39.5599 78.2413 40.9369C78.5415 41.2259 78.9343 41.3478 79.3113 41.3162C79.3136 41.3162 79.3181 41.3162 79.3203 41.3162C79.4016 41.3094 79.4806 41.2936 79.5596 41.271C79.5619 41.271 79.5664 41.271 79.5686 41.2688C79.7763 41.2078 79.9705 41.1017 80.1353 40.9392C80.2007 40.8715 80.2571 40.7992 80.3046 40.7248L87.6072 33.4221C88.1264 32.8803 88.1264 32.0451 87.6072 31.5259L87.6095 31.5236ZM7.5397 29.5597C7.5397 26.6047 5.45387 24.1103 2.66373 23.4963V15.4284H11.919C12.664 15.4284 13.2509 14.8415 13.2509 14.0965C13.2509 12.1552 14.8311 10.5524 16.795 10.5524C18.7589 10.5524 20.3391 12.1326 20.3391 14.0965C20.3391 14.8415 20.926 15.4284 21.671 15.4284H30.9263V43.691H22.8561C22.2399 40.9144 19.7477 38.815 16.795 38.815C13.8423 38.815 11.3457 40.9008 10.7317 43.691H2.66373V35.6208C5.44032 35.009 7.5397 32.5304 7.5397 29.5597ZM30.9263 74.6399H22.8561C22.2399 71.8633 19.7477 69.7639 16.795 69.7639C13.8423 69.7639 11.3457 71.8497 10.7317 74.6399H2.66373V66.5697C5.44032 65.9534 7.5397 63.4612 7.5397 60.5086C7.5397 57.5559 5.45387 55.0592 2.66373 54.4452V46.3547H11.919C12.664 46.3547 13.2509 45.7678 13.2509 45.0228C13.2509 43.0815 14.8311 41.4787 16.795 41.4787C18.7589 41.4787 20.3391 43.0589 20.3391 45.0228C20.3391 45.7678 20.926 46.3547 21.671 46.3547H30.9263V74.6399ZM61.8526 61.6734V69.7413H52.5973C51.8524 69.7413 51.2654 70.3282 51.2654 71.0732C51.2654 71.0777 51.2654 71.08 51.2654 71.0845C51.2654 71.089 51.2654 71.0912 51.2654 71.0958C51.2654 73.0371 49.6853 74.6399 47.7213 74.6399C45.7574 74.6399 44.1772 73.0597 44.1772 71.0958C44.1772 71.0912 44.1772 71.089 44.1772 71.0845C44.1772 71.08 44.1772 71.0777 44.1772 71.0732C44.1772 70.3282 43.5903 69.7413 42.8454 69.7413H33.59V41.4787H41.6602C42.272 44.2553 44.7506 46.3547 47.7213 46.3547C47.929 46.3547 48.1344 46.3412 48.3376 46.3208C48.6288 46.8762 49.0035 47.3886 49.4595 47.8446C50.6785 49.0636 52.2587 49.6731 53.8614 49.6731C55.0353 49.6731 56.1956 49.3457 57.2137 48.6911L59.2995 50.7769C57.8683 51.9418 56.9789 53.7093 56.9789 55.6123C56.9789 58.5672 59.0647 61.0616 61.8549 61.6756L61.8526 61.6734ZM79.0878 38.1942C78.0991 37.5576 76.9478 37.2122 75.7356 37.2122C74.0651 37.2122 72.5075 37.8669 71.3337 39.0407C69.232 41.1627 68.9589 44.4291 70.5165 46.8333L64.8324 52.5174L62.5027 50.1878C62.444 50.1155 62.3786 50.0501 62.3086 49.9936L58.2882 45.9732C58.2882 45.9732 58.2792 45.9664 58.2769 45.9642C58.2724 45.9597 58.2701 45.9551 58.2656 45.9506C57.7238 45.4314 56.8886 45.4314 56.3694 45.9506C54.9924 47.3276 52.735 47.3276 51.358 45.9506C49.981 44.5736 49.981 42.3162 51.358 40.9392C51.8772 40.3974 51.8772 39.5622 51.358 39.043L44.8115 32.4965L64.7895 12.5186L70.4962 18.2253C68.9657 20.6407 69.2456 23.8823 71.3359 25.9727C72.5098 27.1465 74.0674 27.8012 75.7378 27.8012C76.9546 27.8012 78.1104 27.4513 79.1036 26.8102L84.79 32.4965L79.0901 38.1965L79.0878 38.1942Z" fill="#02F37E"/>
<path d="M64.1771 24.5703C62.7323 24.5703 61.3779 25.1347 60.3621 26.1505C59.8429 26.6923 59.8429 27.5275 60.3621 28.0467C60.9038 28.5659 61.7391 28.5659 62.2583 28.0467C62.7775 27.5275 63.4773 27.234 64.1996 27.234C65.7121 27.234 66.9311 28.453 66.9311 29.9655C66.9311 31.4779 65.7121 32.6969 64.1996 32.6969C63.4547 32.6969 62.8678 33.2839 62.8678 34.0288C62.8678 34.0333 62.8678 34.0356 62.8678 34.0401C62.8678 34.0446 62.8678 34.0469 62.8678 34.0514V39.1305C62.8678 39.8754 63.4547 40.4624 64.1996 40.4624C64.9446 40.4624 65.5315 39.8529 65.5315 39.1305V35.1959C67.8724 34.6022 69.6106 32.487 69.5722 29.9655C69.5722 26.9857 67.1568 24.5703 64.1771 24.5703Z" fill="#02F37E"/>
</g>
<defs>
<clipPath id="clip0_1321_4209">
<rect width="88" height="69.4149" fill="white" transform="translate(0 7.88867)"/>
</clipPath>
</defs>
</svg>
