<svg width="88" height="88" viewBox="0 0 88 88" fill="none" xmlns="http://www.w3.org/2000/svg">
<g clip-path="url(#clip0_1321_4736)">
<path fill-rule="evenodd" clip-rule="evenodd" d="M34.0387 0V2.78442H31.2881V0H34.0387ZM45.3545 0.221886C45.1902 0.149766 45.026 0.0776374 44.8654 0H43.1465C43.0614 0.0367227 42.9768 0.0746004 42.8922 0.112459L42.8922 0.112467L42.8921 0.112532C42.7479 0.177092 42.6039 0.241594 42.4573 0.300219C40.6496 1.03174 39.5185 2.89436 39.7722 4.72527C40.0534 6.76126 41.5461 8.24544 43.5355 8.46955C45.4912 8.69154 47.3073 7.57101 47.9902 5.72107C48.671 3.87959 48.0325 1.8436 46.3813 0.744204C46.0634 0.533244 45.709 0.377586 45.3545 0.221886ZM43.9563 2.86265C44.7576 2.83728 45.3897 3.43771 45.4024 4.23266C45.4151 5.02972 44.7998 5.66398 44.0134 5.66821C43.2248 5.67244 42.6053 5.0424 42.6116 4.24535C42.6159 3.47788 43.1909 2.8859 43.9563 2.86265ZM84.4734 76.5623C86.3783 76.2219 87.4015 74.9344 88.002 73.2113L88.0083 73.2134V71.4946C87.9088 71.3087 87.8161 71.1175 87.7233 70.9263L87.7232 70.9261C87.5185 70.5039 87.3137 70.0817 87.0358 69.7165C86.1373 68.5368 84.8666 68.1097 83.412 68.1118C80.0088 68.1177 76.6055 68.1164 73.2022 68.1151H73.1915C71.7314 68.1145 70.2713 68.1139 68.8112 68.1139C67.3863 68.1139 66.6949 67.634 66.7182 66.672C66.7414 65.7418 67.4116 65.2957 68.788 65.2957C69.9335 65.2957 71.0788 65.2967 72.224 65.2977H72.2242H72.2244H72.2246H72.2248H72.225H72.2252H72.2254H72.2256H72.2258H72.2261H72.2263H72.2265H72.2267H72.2269C75.0884 65.3003 77.9494 65.3029 80.8115 65.2893C82.5642 65.2809 83.9152 64.4944 84.7017 62.9235C85.4374 61.4563 85.3296 59.9721 84.3951 58.6084C83.5198 57.3293 82.245 56.7669 80.7164 56.7606C79.0209 56.7542 77.3266 56.755 75.6317 56.7558H75.6315H75.6313H75.6311H75.6309H75.6306H75.6304H75.6302H75.63H75.6298H75.6296H75.6294H75.6292H75.629H75.6288C75.0632 56.7561 74.4976 56.7564 73.9319 56.7564C73.2278 56.7564 72.7204 56.4667 72.4794 55.7817C72.2617 55.1601 72.4414 54.6062 72.9551 54.2679C73.2849 54.0502 73.7522 53.9614 74.1602 53.9571C74.7209 53.9521 75.2817 53.9454 75.8427 53.9388C78.116 53.9117 80.3908 53.8846 82.6615 53.9677C85.3042 54.0628 87.1352 53.0945 88.0041 50.5279V48.809C87.9804 48.7559 87.9562 48.7028 87.9319 48.6496L87.9317 48.6493L87.9316 48.6491L87.9316 48.6489C87.8757 48.5265 87.8195 48.4035 87.7694 48.2784C87.1521 46.7138 86.0463 45.6525 84.3634 45.5024C83.2685 45.4058 82.1635 45.4288 81.0441 45.452H81.0439C80.5466 45.4624 80.0464 45.4728 79.543 45.4728V48.272H80.5346C80.8417 48.272 81.1488 48.2702 81.4559 48.2683C82.2375 48.2636 83.0188 48.2589 83.7989 48.2847C84.6044 48.3101 85.1393 48.8999 85.1393 49.6674C85.1415 50.437 84.6129 50.9972 83.8074 51.0628C83.6139 51.0786 83.4205 51.0766 83.227 51.0747C83.1625 51.074 83.0981 51.0733 83.0336 51.0733C82.0647 51.074 81.0955 51.0725 80.1263 51.071H80.1261H80.1259H80.1258H80.1256H80.1254H80.1252H80.125H80.1248H80.1247H80.1245H80.1243H80.1241H80.1239H80.1237C78.0865 51.0678 76.0489 51.0646 74.0122 51.0818C71.6105 51.1008 69.7669 52.7267 69.5935 54.9085C69.3863 57.528 71.2341 59.5725 73.9023 59.6127C75.1995 59.6316 76.4975 59.6287 77.7953 59.6258C78.8178 59.6235 79.8402 59.6212 80.8623 59.6296C81.7228 59.638 82.3063 60.2216 82.3211 61.0017C82.3359 61.784 81.7651 62.3611 80.9088 62.4182C80.7154 62.4309 80.5219 62.4293 80.3285 62.4277C80.264 62.4272 80.1995 62.4267 80.135 62.4267C78.9953 62.4267 77.8554 62.4258 76.7155 62.4249H76.7152H76.715H76.7148H76.7145H76.7143H76.7141H76.7139H76.7136H76.7134L76.6989 62.4249C73.9491 62.4227 71.1989 62.4205 68.4497 62.4309C66.3545 62.4394 64.7858 63.4796 64.141 65.2301C63.1029 68.0547 65.1663 70.9449 68.2869 70.9618C71.8026 70.9813 75.3172 70.9774 78.8323 70.9734H78.8325H78.8327H78.8329H78.8332H78.8334H78.8336H78.8339H78.8341H78.8343H78.8345H78.8348H78.835H78.8352H78.8355C80.2742 70.9718 81.713 70.9702 83.152 70.9702L83.1995 70.97L83.2541 70.9695L83.3457 70.9681C83.5395 70.9649 83.7334 70.9618 83.9237 70.9871C84.6552 71.0823 85.1753 71.6827 85.1372 72.41C85.0992 73.1627 84.6996 73.6384 83.9406 73.7504C83.6936 73.7859 83.4398 73.7836 83.1869 73.7812H83.1868H83.1866L83.0873 73.7804C83.0574 73.7802 83.0275 73.78 82.9976 73.78C80.7413 73.7809 78.4846 73.781 76.2277 73.7812C72.8425 73.7814 69.4569 73.7817 66.0712 73.7842C65.6146 73.7842 65.1537 73.799 64.7012 73.8604C62.8111 74.1183 61.384 75.5496 61.0753 77.4693C60.7963 79.2178 61.754 81.0952 63.4348 81.8415C64.0944 82.1333 64.864 82.2855 65.5871 82.2961C68.3208 82.3383 71.0577 82.3279 73.7936 82.3175H73.7942H73.7948H73.7954L74.5541 82.3147L75.0376 82.313C75.8241 82.3088 76.3801 82.6301 76.5937 83.3891C76.7776 84.0403 76.5324 84.6111 75.9383 84.9156C75.6021 85.089 75.1687 85.1291 74.7797 85.1312C73.1957 85.1439 71.6108 85.1435 70.0261 85.143C69.2334 85.1428 68.4408 85.1425 67.6484 85.1439C67.4379 85.1439 67.2284 85.1593 67.0235 85.1744L67.0232 85.1744C66.934 85.1809 66.8456 85.1874 66.7583 85.1926V87.9875C67.6756 87.9875 68.587 87.988 69.4944 87.9885H69.4951H69.4958H69.4965H69.4972H69.4979H69.4986H69.4992H69.4999H69.5006H69.5013H69.502H69.5027H69.5034H69.5041C71.304 87.9894 73.0883 87.9904 74.8727 87.9875C77.5662 87.9833 79.4754 86.2095 79.4711 83.7253C79.4669 81.2326 77.5831 79.4905 74.86 79.4736C73.6317 79.4663 72.4035 79.4681 71.1752 79.4699H71.1721C70.6255 79.4707 70.0788 79.4715 69.5322 79.4715C69.1439 79.4715 68.7559 79.4733 68.3679 79.4752C67.3805 79.4799 66.3939 79.4846 65.4074 79.4588C64.3629 79.4334 63.771 78.7315 63.9232 77.7991C64.05 77.0317 64.6188 76.6448 65.6632 76.6448C68.585 76.6427 71.5063 76.6427 74.4277 76.6427C77.349 76.6427 80.2703 76.6427 83.1921 76.6405C83.6192 76.6405 84.0547 76.6363 84.4734 76.5623ZM56.7242 2.78019V0H53.9736V2.78019H56.7242ZM18.68 19.854L18.6846 19.8564L18.6858 19.8569L18.6949 19.8616L18.6954 19.8619L18.7013 19.8649C19.0977 20.0668 19.4807 20.262 19.8481 20.4489C19.6436 21.0273 19.4245 21.5953 19.2071 22.159C18.7458 23.3549 18.292 24.5315 18.0003 25.7471C15.3977 36.6227 18.2836 45.847 26.6918 53.215C29.0238 55.2574 31.2015 57.3166 32.0324 60.378C32.3215 61.4406 32.4762 62.5408 32.6343 63.6658L32.6344 63.6659L32.6344 63.6659L32.6344 63.666L32.6344 63.666L32.6344 63.6661L32.6344 63.6661L32.6344 63.6664C32.7075 64.1863 32.7814 64.7115 32.8696 65.2407H36.9225V63.6254C36.9225 63.1404 36.9243 62.6555 36.926 62.1708L36.926 62.1679V62.1675C36.9309 60.7917 36.9358 59.4167 36.9014 58.0418C36.8929 57.6633 36.7217 57.1601 36.4447 56.9339C34.6138 55.4371 33.3411 53.7372 34.2459 51.1029H31.2818V45.4516H28.4424V42.6165H31.1867V39.7432H28.4466V36.9461H31.1867V34.0729H28.4466V31.2695H31.2142V25.5822H36.8993V22.7682H39.6985V25.504H42.5717V22.7703H45.3709V25.4998H48.2738V22.7492H51.073V25.5442H56.7602V31.2293H59.5806V34.0327H56.8342V36.906H59.5806V39.7031H56.8342V42.5763H59.5806V45.3797H56.794V51.067H53.9525C53.9525 51.3557 53.9571 51.6367 53.9615 51.9121V51.9122V51.9123V51.9124V51.9125V51.9126V51.9128V51.9129V51.913V51.9131V51.9132V51.9132V51.9132V51.9133V51.9133V51.9133V51.9134V51.9134V51.9134V51.9135V51.9135C53.9719 52.5612 53.9818 53.1777 53.9314 53.7901C53.8976 54.2002 53.7475 54.7563 53.4515 54.9677C51.3986 56.4329 50.7643 58.38 51.0561 60.8283C51.1738 61.8142 51.1446 62.8181 51.1149 63.8393C51.1014 64.3028 51.0878 64.77 51.0878 65.2407H55.257C55.293 64.8707 55.3202 64.5007 55.3473 64.1318L55.3473 64.1316C55.4061 63.3306 55.4646 62.5345 55.6122 61.7543C56.2401 58.4625 57.997 55.8747 60.6335 53.8176C64.9232 50.4708 67.9656 46.2106 69.6252 41.016C71.7733 34.2949 71.3758 27.707 68.4518 21.2777C68.3788 21.117 68.3108 20.9532 68.2346 20.7697C68.2005 20.6876 68.1648 20.6017 68.1262 20.5102C68.6341 20.2511 69.1347 19.996 69.6449 19.736L70.6147 19.2417C71.8557 21.6434 72.7669 24.1128 73.2067 26.7133C75.2237 38.6375 71.6316 48.5088 62.2276 56.1749C59.5616 58.3483 58.1852 61.0651 58.2042 64.5092C58.2198 67.3453 58.2158 70.1825 58.2118 73.0192V73.0205V73.0209V73.0213V73.0216C58.2104 74.0222 58.209 75.0228 58.2085 76.0232C58.2085 78.2262 57.5256 79.019 55.3627 79.4968C55.1006 79.5539 54.8236 79.945 54.7179 80.241C53.424 83.8479 50.999 86.3152 47.3414 87.4717C41.5336 89.3068 35.4637 86.2179 33.3728 80.389C33.1592 79.7907 32.9436 79.4503 32.2269 79.3996C31.0344 79.315 30.1169 78.389 29.897 77.2135C29.8251 76.8223 29.8103 76.4164 29.8082 76.0189C29.8066 75.0459 29.8029 74.0729 29.7993 73.0999C29.7889 70.3203 29.7785 67.541 29.8145 64.7629C29.8632 61.1518 28.4847 58.2976 25.6474 56.0629C19.7678 51.4306 16.0637 45.4326 14.7085 38.0603C13.5055 31.5189 14.4273 25.2524 17.457 19.229V19.2311C17.8763 19.4444 18.2847 19.6526 18.68 19.854ZM34.1106 28.4153V48.2191H53.9039V28.4153H34.1106ZM48.3014 63.2587L48.3014 63.2581V63.258C48.3282 61.752 48.3546 60.2618 48.2399 58.7839C48.094 56.9128 48.5211 55.4223 50.0941 54.3609C51.2881 53.5546 51.1646 52.4184 51.0362 51.2368L51.0265 51.1473H45.3921V53.8958H42.595V51.1198H36.9923L36.9846 51.1882C36.8475 52.4016 36.7187 53.5413 37.912 54.3652C38.1774 54.5482 38.4005 54.7917 38.6242 55.0359L38.6242 55.0359L38.6242 55.0359L38.6243 55.0359L38.6243 55.0359L38.6243 55.036L38.6243 55.036L38.6244 55.036L38.6244 55.036L38.6244 55.0361L38.6244 55.0361L38.6245 55.0361C38.7909 55.2178 38.9576 55.3998 39.1425 55.5576C39.5949 55.9402 39.7556 56.3758 39.7471 56.972C39.7228 58.8582 39.7271 60.7456 39.7313 62.6334V62.6335V62.6336V62.6337V62.6339V62.634V62.6341V62.6342V62.6344V62.6345V62.6346V62.6347C39.7326 63.2095 39.7339 63.7843 39.7344 64.359C39.7344 64.5649 39.7464 64.7708 39.758 64.9706L39.758 64.9707V64.9708V64.9709V64.971V64.971V64.9711V64.9712C39.7616 65.0337 39.7652 65.0955 39.7684 65.1565L39.7695 65.1787L39.7725 65.2407H42.6203V56.8198H45.409V65.247H48.2759L48.278 65.2449C48.278 64.5796 48.2897 63.9176 48.3014 63.2587ZM36.1551 79.5116C36.9923 82.8014 40.6668 85.2961 44.3307 85.1291C47.8551 84.9684 51.3669 82.3447 51.8087 79.5116H36.1551ZM32.6983 70.911H55.3162V68.1646H32.6983V70.911ZM55.3162 73.8519H32.7322V76.594H55.3162V73.8519ZM8.47151 48.2719V45.5234V45.5213C7.9297 45.5213 7.39137 45.5039 6.8571 45.4866L6.85691 45.4866H6.85688H6.85685H6.85681H6.85678H6.85675H6.85671H6.85668H6.85665H6.85661H6.85658C5.67526 45.4483 4.51378 45.4107 3.37837 45.5636C1.02947 45.8786 -0.431451 48.3544 0.141502 50.661C0.636228 52.6462 2.27686 53.9211 4.42913 53.9338C6.53364 53.9456 8.63919 53.943 10.7443 53.9403H10.7446H10.7448H10.745H10.7452H10.7455H10.7457H10.7459H10.7462H10.7464H10.7466C11.648 53.9391 12.5493 53.938 13.4505 53.938C13.5127 53.938 13.575 53.9375 13.6374 53.9371C13.8042 53.9358 13.9715 53.9345 14.1376 53.9422C14.9981 53.9845 15.5943 54.5321 15.6218 55.2996C15.6514 56.0987 15.0446 56.733 14.1418 56.7415C13.0175 56.7529 11.8937 56.751 10.7699 56.7492C9.60293 56.7473 8.436 56.7454 7.26852 56.7584C4.98728 56.7837 3.1902 58.2933 2.91535 60.3652C2.55805 63.0714 4.46296 65.2681 7.23892 65.2829C9.73023 65.2968 12.2215 65.2948 14.7128 65.2928H14.7208C16.3792 65.2914 18.0375 65.2901 19.6959 65.2935C20.6684 65.2977 21.3048 65.8812 21.2985 66.7079C21.2921 67.5092 20.6917 68.0589 19.7635 68.1054C19.5793 68.1144 19.3951 68.1127 19.2108 68.111C19.1371 68.1103 19.0634 68.1096 18.9897 68.1096C17.7936 68.1096 16.5975 68.1099 15.4013 68.1101C11.8151 68.1109 8.22889 68.1117 4.64267 68.1054C3.32551 68.1032 2.13732 68.431 1.22398 69.4183C0.00830621 70.7333 -0.323626 72.2598 0.329667 73.9469C0.972389 75.6045 2.49674 76.6299 4.35513 76.6341C8.75807 76.6436 13.161 76.6424 17.564 76.6412C19.0322 76.6408 20.5004 76.6404 21.9687 76.6404C22.0443 76.6404 22.1202 76.6393 22.1962 76.6381H22.1965H22.1968H22.1971H22.1974H22.1975H22.1976H22.1976H22.1977H22.1978H22.1979H22.198H22.1981H22.1982H22.1982C22.4085 76.6347 22.6195 76.6314 22.827 76.6531C23.5839 76.7314 24.0913 77.2811 24.1104 78.0147C24.1294 78.7631 23.6643 79.3213 22.901 79.4312C22.6248 79.4707 22.3435 79.4701 22.0632 79.4694H22.0631L21.9581 79.4693C20.9644 79.4707 19.9705 79.4677 18.9764 79.4648C16.9354 79.4588 14.8938 79.4528 12.8522 79.4841C10.3341 79.5221 8.52225 81.37 8.54551 83.7696C8.56876 86.165 10.4335 87.9684 12.9283 87.9874C14.3027 87.9979 15.6772 87.9957 17.0516 87.9935C17.6243 87.9926 18.1971 87.9917 18.7699 87.9917H21.271V85.1459H19.81C19.1816 85.1459 18.5531 85.1468 17.9246 85.1476C16.2909 85.1497 14.6572 85.1518 13.0234 85.1396C11.979 85.1311 11.3426 84.5476 11.3701 83.6914C11.3955 82.8647 12.0255 82.3404 13.0171 82.3214C13.1691 82.3185 13.3222 82.3195 13.4749 82.3204H13.4755C13.5519 82.3209 13.6282 82.3214 13.7042 82.3214C14.6018 82.3207 15.4998 82.3231 16.3979 82.3254H16.3982H16.3986H16.399H16.3993H16.3997H16.4H16.4004H16.4008H16.4011H16.4015C18.5378 82.331 20.675 82.3365 22.8101 82.3023C24.4909 82.2748 25.7616 81.4482 26.5185 79.9365C27.2605 78.4523 27.1273 76.9851 26.195 75.6277C25.2542 74.2577 23.8715 73.7778 22.252 73.782C18.1408 73.7911 14.0308 73.7894 9.9203 73.7877H9.92008H9.91986H9.91963H9.91941H9.91919H9.91896H9.91874H9.91852H9.91829H9.91807C8.27317 73.787 6.6282 73.7863 4.98306 73.7863C4.92244 73.7863 4.86159 73.7869 4.80065 73.7875H4.8004H4.80015H4.79989H4.79964H4.79939H4.79913H4.79888H4.79863H4.79837C4.54338 73.7902 4.28695 73.7929 4.04012 73.7503C3.28745 73.6192 2.88575 73.1351 2.88153 72.3803C2.8773 71.6171 3.30648 71.152 4.04012 70.9997C4.24278 70.9576 4.45694 70.9638 4.66988 70.97L4.67035 70.97C4.74603 70.9722 4.82157 70.9744 4.89637 70.9744C6.44362 70.9737 7.99108 70.9751 9.53861 70.9765H9.53877H9.53893H9.53909H9.53924H9.5394H9.53956H9.53971H9.53987H9.54003H9.54019C12.9466 70.9796 16.3535 70.9827 19.7593 70.9638C22.4993 70.949 24.381 68.8009 24.0808 66.118C23.8397 63.9552 21.9961 62.4414 19.531 62.4329C17.1754 62.4243 14.8198 62.4257 12.4643 62.4272H12.459C10.7782 62.4282 9.09736 62.4292 7.41652 62.4266C6.33615 62.4245 5.71246 61.9171 5.69132 61.0587C5.66806 60.1728 6.32558 59.6252 7.43554 59.6231C8.38065 59.6204 9.32576 59.6212 10.2709 59.622C11.5309 59.623 12.7909 59.624 14.0509 59.6168C15.5816 59.6062 16.8459 59.0185 17.7085 57.7309C18.6282 56.3567 18.7191 54.8767 17.9728 53.4116C17.1715 51.8365 15.7973 51.0923 14.0573 51.0796C12.0772 51.0636 10.0972 51.0661 8.11712 51.0685H8.1136C6.94464 51.0699 5.77568 51.0714 4.60673 51.069C3.47985 51.0669 2.85404 50.5426 2.87095 49.6398C2.88787 48.7709 3.49676 48.2783 4.58135 48.2719C5.43137 48.2691 6.28139 48.27 7.14499 48.271H7.14727H7.14739H7.1475H7.14762H7.14774H7.14786H7.14798H7.14809H7.14821H7.14833H7.14845C7.5854 48.2714 8.02584 48.2719 8.47151 48.2719ZM31.2779 17.0235H19.9668V14.2539H34.0073V22.6368H31.2779V17.0235ZM68.0735 17.0091V14.269H54.0034V22.654H56.7815V17.0091H68.0735ZM39.6517 19.8254H36.9265V17.5971C36.9265 17.1685 36.9238 16.7398 36.9212 16.311V16.3109V16.3108V16.3108V16.3107V16.3106V16.3106V16.3105V16.3103C36.9147 15.2523 36.9082 14.1942 36.9413 13.1382C36.9624 12.4849 36.7933 12.1149 36.159 11.8295C35.2965 11.4414 34.4525 11.0126 33.6086 10.5838L33.6086 10.5838L33.6085 10.5837L33.6085 10.5837L33.6085 10.5837L33.6084 10.5837L33.6084 10.5837L33.6084 10.5836C33.0271 10.2883 32.4459 9.99298 31.8587 9.71104C31.419 9.49962 31.2139 9.25437 31.2371 8.74273C31.267 8.04295 31.261 7.34107 31.2549 6.62371C31.2524 6.32458 31.2498 6.02276 31.2498 5.71729H33.9433C33.9558 5.73662 33.9704 5.75527 33.9843 5.77296C34.0131 5.80942 34.0385 5.84177 34.0342 5.86739C33.77 7.29238 34.4655 8.01121 35.7467 8.49536C36.7865 8.88917 37.7733 9.43194 38.7547 9.9717L38.755 9.97186L38.7553 9.97202L38.7577 9.97334C38.9029 10.0532 39.0479 10.1329 39.1929 10.2121C39.4361 10.3453 39.7109 10.6984 39.713 10.9542C39.7418 13.3892 39.7354 15.8241 39.7289 18.2591C39.7278 18.6825 39.7266 19.106 39.7257 19.5295C39.7257 19.5813 39.709 19.6339 39.6881 19.7L39.6881 19.7L39.688 19.7001L39.688 19.7003C39.6765 19.7366 39.6637 19.7769 39.6517 19.8233V19.8254ZM56.7578 5.7002H53.9522H53.9501C53.9501 5.80628 53.9464 5.90521 53.9429 5.99899V5.99903C53.9358 6.18932 53.9295 6.35834 53.9564 6.52263C54.096 7.34928 53.7725 7.80173 52.986 8.14211C52.1713 8.49359 51.3799 8.89833 50.5883 9.30318C50.0323 9.58751 49.4763 9.8719 48.9119 10.1379C48.432 10.3663 48.2565 10.6453 48.2629 11.1802C48.2815 12.9807 48.2797 14.782 48.278 16.5831V16.5832V16.5833V16.5834V16.5834V16.5835V16.5836C48.2771 17.4409 48.2763 18.2981 48.2777 19.1551C48.2777 19.3001 48.2968 19.4461 48.3164 19.5957V19.5957V19.5958V19.5958V19.5958V19.5959C48.326 19.6686 48.3356 19.7421 48.3432 19.8168H51.0853C51.0853 19.2065 51.0863 18.6002 51.0873 17.9968V17.9965V17.9961V17.9958V17.9955V17.9951V17.9948C51.0902 16.2831 51.093 14.5953 51.0727 12.9076C51.0663 12.4023 51.2376 12.1443 51.6815 11.9308C53.1996 11.2014 54.7028 10.4424 56.1975 9.66858C56.4195 9.55441 56.7239 9.31128 56.7324 9.11465C56.7704 8.27088 56.7657 7.42474 56.761 6.56735V6.56727V6.56719V6.56712V6.56704V6.56696V6.56689C56.7594 6.27937 56.7578 5.99058 56.7578 5.7002ZM45.3431 19.842H42.6729V11.4062H45.3431V19.842ZM24.1821 87.9601H26.9475V85.2031H24.1821V87.9601ZM63.8214 87.9453H61.0708V85.2158H63.8214V87.9453ZM14.2456 14.2729V16.977H16.9645V14.2729H14.2456ZM71.042 14.25H73.744V16.9689H71.042V14.25ZM51.0519 45.3268V31.2969H36.9775V45.3268H51.0519ZM48.2188 42.5382H39.781V34.1172H48.2188V42.5382Z" fill="#02F37E"/>
</g>
<defs>
<clipPath id="clip0_1321_4736">
<rect width="88.0021" height="88" fill="white"/>
</clipPath>
</defs>
</svg>
