<svg width="108" height="111" viewBox="0 0 108 111" fill="none" xmlns="http://www.w3.org/2000/svg">
<path d="M101.201 3C101.201 3.90988 101.213 4.65699 101.201 5.39992C101.034 14.4695 100.843 23.5391 100.722 32.6087C100.71 33.6062 100.934 34.6789 101.338 35.593C116.47 70.0057 91.997 108.371 54.488 108.993C28.0424 109.435 5.43716 89.3302 2.33742 62.6139C-0.708239 36.3484 17.1871 11.4352 42.9753 6.01346C51.3009 4.26465 59.5558 4.48169 67.7732 6.69796C68.672 6.94004 69.683 6.99847 70.6109 6.88578C79.9892 5.71295 89.3633 4.48169 98.7374 3.27129C99.4822 3.1753 100.231 3.10434 101.201 3ZM88.2898 41.3945C88.1525 40.9646 88.1109 40.7559 88.0194 40.5723C87.8072 40.1382 87.595 39.6999 87.3495 39.2867C79.0197 25.2003 66.6915 18.7643 50.4521 20.1792C30.6221 21.9072 15.1691 41.7409 18.1357 61.4411C21.2895 82.3976 39.1599 95.9874 60.0884 93.3412C77.6883 91.1208 91.7682 75.177 91.7557 57.4927C91.7515 54.5627 90.5241 53.1311 87.7198 53.1186C79.4316 53.0727 71.1434 52.9767 62.8553 53.152C56.4519 53.2856 51.5922 58.4109 51.7544 64.7259C60.5169 64.7259 69.2878 64.7259 78.1751 64.7259C78.0752 65.2935 78.0669 65.569 77.9795 65.8236C74.2598 76.7964 61.7568 83.8751 50.2566 81.5253C38.128 79.0461 29.3406 68.1525 30.1394 56.3825C30.8218 46.3112 35.7356 38.8735 44.9267 34.7958C54.1344 30.7096 62.822 32.2581 70.7856 38.4311C72.504 39.7667 74.4762 40.9145 76.5066 41.67C80.347 43.0974 84.2872 43.3562 88.2898 41.3945Z" stroke="#3454D2" stroke-width="4"/>
</svg>
